/* XPM */
static char *ancient_debris_side[] = {
/* columns rows colors chars-per-pixel */
"64 64 68 1 ",
"  c #2D1612",
". c #2F1914",
"X c #301713",
"o c #321B16",
"O c #351E19",
"+ c #381E1A",
"@ c #37201E",
"# c #3B221E",
"$ c #3D2522",
"% c #3F2925",
"& c #3F2929",
"* c #40251F",
"= c #412623",
"- c #432A25",
"; c #492E27",
": c #442D2B",
"> c #492E2B",
", c #46302E",
"< c #4B322D",
"1 c #51352E",
"2 c #54382F",
"3 c #462F30",
"4 c #482F30",
"5 c #463131",
"6 c #4C3434",
"7 c #4E3936",
"8 c #4D3639",
"9 c #4F393B",
"0 c #503634",
"q c #533935",
"w c #593C35",
"e c #50373A",
"r c #533B3C",
"t c #593E3A",
"y c #55413F",
"u c #5B413D",
"i c #61463D",
"p c #62483D",
"a c #543D41",
"s c #583F42",
"d c #564144",
"f c #5A4344",
"g c #5D4846",
"h c #574248",
"j c #5C454A",
"k c #5D494C",
"l c #5E4D51",
"z c #5F5050",
"x c #614642",
"c c #634945",
"v c #684A44",
"b c #624749",
"n c #624B4C",
"m c #694E4C",
"M c #65504D",
"N c #6B524E",
"B c #634E51",
"V c #655153",
"C c #6A5453",
"Z c #6B5857",
"A c #6A5359",
"S c #6D5A5C",
"D c #715655",
"F c #725D5C",
"G c #70605F",
"H c #736162",
"J c #786466",
"K c #7F6A6B",
/* pixels */
"-;;;----*****#***-;1<-*******=;;;;<twqtuxixvxfttq<<16<<;;-;--*--",
"<<6;>-;-;;<,;;;<;;;;;----;112q<11<:;<<11qqwt0<011w00qq0q71<<1<1;",
"<06<>>>-<;<<<;;,<<<<1<<<<<11000610>;;<06000uiffnMuqerq061750<777",
"66rqq6<><,<<<<770qq6<6<<<<,<<<<4<6>>-=,>66qr06tjffrq8te07,57767<",
"60tcu766<655,575,,6446:::,:&&:6677efr:::,::787dr6rrsaffuuq66666e",
"666u6<:,:,5:,,,<,,,:::5,5::$$:&4ettq::%:%,5rftr666dbbNvuutq67666",
",66wq<<;:&::-$-:,%&%%%,,:%#$$@@O$$$=$#$$-$<wutwqtvmcxpcccxt88886",
"866fuu0---=##-$%%,:::,556,,-;444<6067,:,:#ynbnNvfgfserfree888988",
"8860upuq6111;,<<7qq77777q766e466eq6654:3&&nCZCNCVgaa99uere68a588",
"9rr0cmvuiiip1<qyygffyyyyreere88arrr85353&5gVVVVCFfr99rr8rra98aaa",
"hhrtcNmccitu<7fnnbnggfdyaeee8eaarrsr8655&7fnBnnbxsarrdfraa9aaaaa",
"kVbuMccq6606;yfMNVnjffyrrrr8aeaaaaara968&,dfkbfhsfar9rueeeraaaaa",
"BBbryrryt05r6rfMCMfgaa99999raaasssdsar95&&8ddffhjss988r8e6rrjBBB",
"VBjjdr88r65r77yfbbftdaaaaradaaaaafjjar86&$,7errfsa84666,6688slBB",
"nngaa88r665885yffffars9aaaadslljhjgsae63&$&6579yrre654:&::658bjs",
"0q68656546787;tyr8taeea9aaadlslBkjfae64:&&@@==$=-$+$OOOoo.oO+$&:",
"tg68644668886:qrr8rfurrdsslsllBskjfe:><>:::$$$$$+OOoo..  .ooOO$$",
"<<66408e8a986:;er88ucurfssjlBBlBhd9q666666646::$OO$##$$OoOoOO$#$",
"-6r868e084864:=qtr7rfbsjjBBlBBlsarree7e68er536:$O$%:,56&&$&&$$$:",
"#45466683:83:=$eee5etsxjllAAssssfarq066666646564&$558664:3454::&",
"$53&3343333:=##>0868efbsjBBsddddaaar9ererreq8488::6et66446646:3:",
"$&&&&&&&3&:&###-060eebnsjlslhd9addaa8arartarsee8668tteretss8634:",
"@$$$@@$@O$@$#=--q668esbfljjjsarr9aaaaa9suraaaeee;errrrasssra9663",
"o$$&&$&&:3:4<000>668aaxfsaabVfrr9aaaa99araarsatr:8rradrrte8aa894",
"$&&&&5555585666<=#6er9re08BCbere99a9688rrerrre6<-<66e78qeeatr886",
"&$5858858888660<$+-e66>:;6006e8r9aa9986606860eq6:0rtrree0rtrr889",
"&$8868688r99565;#oO##=$::>>><668999eeee606treree0frrtttrerqea666",
"53888eeer99866<,-OXO---;::>4,<66884460t0rrbserre0nre676qr00rr989",
",6q6erre5757<<,--O.o#;---::$$:::5:;-<<60ivmtq7t6emf0<000tq0tsfra",
"=:756666<7006-,-&O  O####$$$OO@O##@#+#$;wir;;106<vciq11012tuteud",
"$-1<600qw06656qq,$#OoX .          . XO+#*;;1<11-#**=*;**-;*1;;;;",
"$-u1qttifuuiguuu0<*=###Ooo  .       .  Xoo+**-#oXXXXoXooo+#@@#++",
"==;12qtuxxxcngpfu7<;-$$#@O+OOoOO@@+OOooO@O@####@oO@#$O@OO@@####*",
"1<;<1110qwuuwtuuufw706,;:--$==$$$=-#$###*=--*####*#*$###*;<111;;",
"qw010<qqrwunNMCGGMfre664,,:>3464;<,-=-$=-;<;;;;-$=-;--;>;<10q221",
"q006q<66rsfnVCVCCMgrq7365,:646385<:,66>665q01077<<;;:;:6<<<<q0<<",
"6tafn86tghnVBBlVMnhy8666556533346<66qeqq6eee66te6766666664666re6",
"qrtfte6efzlkkkkgkgarae69e878a&a3566q0<666066678e676q6668e8866qe0",
">:;:6<69kzVhhkhdhaddsaas96683a&a666etq<6466<<646<<,<--4>->->:>;:",
"0tfduyydlVldsdaaaa9ahhaa988r3aa&6666uut<>;;;-<-;-<---><>40<0re76",
"errrrrrdzzzd9aeaa98aaaaaa883aaaa66966areeq008446<6<<<<66666erq6q",
"rrrer89kzzld958r9aaaahdaaaaaaaaa9aa8a6e9r800588887eeq066668ree66",
"6668e9rkzhzd888e9aaaahaaaaasaaaaasaaa96a88865888de88e87564446564",
":458rr8ddzkka8589addljhjklkhaasajlsarrasr888858are86655&::::3:3:",
"&:66789fydddd9778yfgljkjkknjnBBBlsaaeeee86868536q76e<,%:%$#@$$$&",
"$@:5568d7ygdyy5599ynlkkjgkjgnBBmsseear8664544:::,---$#$%=#@@$$$$",
"$@#$%:,,%,75777yfdggggjffyfdjVBfare6<-:::%$$$$@@$:%:-,,<<,::56:&",
"5:<%$@#@####@@##%-,555<:-::--;:-:$OOoO+OoO$$$$:--;<,57ygffggnngr",
"655-:%%$-%%$$@@OO@$$%$###$$#$$=--$O$-%O$O$6:6m5::<57rgnVVSGHSSVf",
"6,,5865:65::&$$$Oo$&%%,%$$##$$=--$$;<:%&=-66<<56:67rfVZZGHGHGSzh",
"-668998366645&&$O$::677&&%%$$=:3<6r77<85::::;:55668rfgjhgbngnng9",
"6Bara9a64644:,%$#$,57y7,,,%%=&:34353:4&&556556588adffgjlkkgffd66",
"nnhddaaaere6<;-=#$668ff6565:::565555&85&899999aaaaajlhjjjkjd857r",
"kkljaha8rrssgfr--;8raar88685:355585888aaaraaaaa9aahajkjjjdhe5raa",
"dddahaaastsaxCmtt0rffee8er8566655898858aaaa99aaadadjajhjshr:rr98",
"aaaaa99ararssvDFnrudar98r9a8988898888889aa9aaaaaaaasaaaasa:6Vdr8",
"9aa9r6errarrrqwwq<<7r8aaahsr9999a585aa8aaddaddaraaaaaaas84;cbrrr",
"aaarreee006e0ewq1<-0edhadABfd9a98a88888a9rrra9ra8e8aa866>:rreeea",
"aaarrreee0ttrrrru-*0uMFVkkhghdddaa88y88aradra889a8993@>>66068trr",
"aaeersxwrfVftrrt1##qdCKHABBlgkkhaha88889aa9r9arda884::<<60ee6etr",
"u00etutxNDDttes0-#*0yCJJHHSSSCVBVkdddhhdarahfre88a83-qt07qt060t7",
"<><61;1tvmv10ww<<;1qtfMNZDFAngfuVkkklzChfdhnfdreaase=;;<<670<66<",
"#**-;-;2wtw221q11;<1<12wqq60qq00q<;<;<5<<67<666>>::---***=***###",
"##=*****---;;1-*****#$*--<,;;<0tetu1<1qyqqttqq0066;>>;;;---;**##"
};
