/* XPM */
static char *bricks[] = {
/* columns rows colors chars-per-pixel */
"64 64 222 2 ",
"   c #34190F",
".  c #3A180D",
"X  c #3B1C11",
"o  c #371B12",
"O  c #3F2316",
"+  c #431F0E",
"@  c #431F13",
"#  c #442314",
"$  c #4B2414",
"%  c #452619",
"&  c #4B2719",
"*  c #4D2A1C",
"=  c #4A2816",
"-  c #532C1D",
";  c #5B2E1D",
":  c #532A16",
">  c #54321E",
",  c #5B321C",
"<  c #553016",
"1  c #612E17",
"2  c #64351E",
"3  c #643016",
"4  c #753B1E",
"5  c #542F20",
"6  c #443628",
"7  c #553121",
"8  c #5C3322",
"9  c #5D3B24",
"0  c #583C2B",
"q  c #633624",
"w  c #683724",
"e  c #653926",
"r  c #6A3A26",
"t  c #663E2A",
"y  c #6D3C29",
"u  c #723E2A",
"i  c #753D27",
"p  c #584E3A",
"a  c #584333",
"s  c #4E4735",
"d  c #654126",
"f  c #64422B",
"g  c #6B452E",
"h  c #6E492D",
"j  c #75412C",
"k  c #7B442D",
"l  c #784A2C",
"z  c #6A4934",
"x  c #7D4630",
"c  c #724D34",
"v  c #7D4932",
"b  c #754430",
"n  c #795036",
"m  c #72523C",
"M  c #7B553D",
"N  c #7D593E",
"B  c #60543E",
"V  c #665B43",
"C  c #7D5A43",
"Z  c #6D6249",
"A  c #6C6047",
"S  c #73664C",
"D  c #76684D",
"F  c #7A684E",
"G  c #7C6D51",
"H  c #7F7154",
"J  c #82462E",
"K  c #84492F",
"L  c #8A4A2E",
"P  c #89472D",
"I  c #824730",
"U  c #854A32",
"Y  c #8B4D34",
"T  c #814F39",
"R  c #914F35",
"E  c #8E5036",
"W  c #84533A",
"Q  c #8D523A",
"!  c #8B5B3D",
"~  c #835A3C",
"^  c #935236",
"/  c #985437",
"(  c #94553A",
")  c #99563A",
"_  c #95593D",
"`  c #9B5A3D",
"'  c #A05C3D",
"]  c #9A613D",
"[  c #8A5B42",
"{  c #845D44",
"}  c #955B42",
"|  c #9C5D42",
" . c #935F49",
".. c #A15E41",
"X. c #8B6449",
"o. c #946344",
"O. c #9D6144",
"+. c #93664A",
"@. c #9B644A",
"#. c #93684B",
"$. c #9B6D4C",
"%. c #976945",
"&. c #9C714C",
"*. c #8E6D5B",
"=. c #976B50",
"-. c #9A6A51",
";. c #837355",
":. c #867758",
">. c #8C7C5B",
",. c #87795B",
"<. c #9C7253",
"1. c #927F5E",
"2. c #99765A",
"3. c #A36244",
"4. c #A96545",
"5. c #A36549",
"6. c #A3694C",
"7. c #AC6B4B",
"8. c #AA6D45",
"9. c #B06E4E",
"0. c #A9724C",
"q. c #B1744B",
"w. c #A56D52",
"e. c #AA6E53",
"r. c #B16F50",
"t. c #A27554",
"y. c #AC7455",
"u. c #A87956",
"i. c #A2755A",
"p. c #AB755B",
"a. c #A47B5B",
"s. c #AC7B5C",
"d. c #B37354",
"f. c #B17759",
"g. c #B47B5D",
"h. c #B57955",
"j. c #9C7D63",
"k. c #A17F62",
"l. c #AD7B63",
"z. c #B37D63",
"x. c #B97E60",
"c. c #93825F",
"v. c #8F805F",
"b. c #AC815C",
"n. c #A7825F",
"m. c #B8815C",
"M. c #948462",
"N. c #988764",
"B. c #978865",
"V. c #998966",
"C. c #9C8D6B",
"Z. c #90856A",
"A. c #9F906E",
"S. c #9F9170",
"D. c #8F8160",
"F. c #AC8463",
"G. c #AD846A",
"H. c #A28B6C",
"J. c #AE8B6C",
"K. c #A48467",
"L. c #B38365",
"P. c #BC8366",
"I. c #B3846A",
"U. c #BD8669",
"Y. c #B28B6B",
"T. c #BC8B6D",
"R. c #B08865",
"E. c #A0916F",
"W. c #B6936D",
"Q. c #AD8D72",
"!. c #B68E72",
"~. c #BA8D74",
"^. c #B58D7A",
"/. c #A39474",
"(. c #A6997A",
"). c #A99C7D",
"_. c #A69878",
"`. c #B69175",
"'. c #B4957C",
"]. c #BB9379",
"[. c #BA9779",
"{. c #BFA17F",
"}. c #C39978",
"|. c #C18D6B",
" X c #AB9E82",
".X c #A79C83",
"XX c #BB9B83",
"oX c #B59B85",
"OX c #AEA185",
"+X c #AFA388",
"@X c #B2A68A",
"#X c #BCA38A",
"$X c #B4A98E",
"%X c #B0A387",
"&X c #B6AB92",
"*X c #B9AD95",
"=X c #BBAE99",
"-X c #BBB097",
";X c #BDB29B",
":X c #BFB6A0",
">X c #C39C82",
",X c #C49B85",
"<X c #C4A48B",
"1X c #C7A689",
"2X c #C6AA96",
"3X c #C2B59E",
"4X c #C9B099",
"5X c #D0B69F",
"6X c #C1B7A1",
"7X c #C3B9A5",
"8X c #C6BDA9",
"9X c #CABEAB",
"0X c #CCB5A3",
"qX c #D2BFAB",
"wX c #C9C1AE",
"eX c #D8C3AC",
"rX c #CCC4B2",
"tX c #CFC8B7",
"yX c #D2CBBB",
"uX c #D1C9B7",
"iX c #E0CBB4",
"pX c #D7D0C2",
/* pixels */
"$X;X*X+X;X:X:X:X;X:X-X:X*X&X*X;X8X;X:X=X&X=X+X(.OX@X*X(.C.V.S._.(._.E.A.E.C././.C.N.M.V././._.)._.).(.)./.$X+X).).@X;X7X+X+X(.$X",
"$X;X@XOX&X=X&X&X;X=X&X:X;X.X(.;.N.N.G M.C.&X;XOXc.@X$X>._.&X(.OX@X$X&X&X@X+X-X*XOX)./.M.OX/.>.C.V.c.>.c.S._.OX&X-X;X;X$XC.C.(.$X",
"#.X.=.[  .@. .( +.} k x o.J.!.'.).N././.;.C X.W 2.G.#.[ v W ! ! [ o.L.}.<X@X(.(._.@X@X;X XH._.C./.M.).).$X&X&XOX-X&XC.E.2.a.X.+.",
"E Y Y Y ^ _ ` ( 5.5.O.| 3.p.y.f.$X).H.7.7.7.` ) / L L ( | / Y ^ _ } 6.P.U.U.t.o.p.w.f.].~.z.J.#XyXwXwX3X8X8X0X2X#X~.z.l.p.| U Y ",
"U I U U U Y / / ) / ) ` ` | 5.d.*X=X$Xd.' ) ( / / L Y R Y L J I Y ( _ | O.} _ Y _ 3.5.0.5.0.h.t.).&XXX~.U.g.w.O.} Q E E U K x Y ",
"I k x u u x I I ^ E E E ( | ) 4. X8X).9./ Y R J I u y u w 8 w k U U I U U x Y e I ^ ` ` 5.5.q.o.-X$XG.O.O.| ( ^ Y l U U x k x K ",
"q y y q y r u x j j k x U ^ ` 7.@XrX X7.^ Y Y I q & u u y 8 q b x I Y J J Y b q r K ^ Q ` O.7.R.&XB.#.O.| ( / Y k j j j y j r q ",
"8 r q q q r r r j j y j k L ` d./.;XE.4.Y i i k 8 5 i r w , & % 5 u I k L I I y / ) ` ( _ O.q.<.+X$X2.4._ _ ^ Y v y 8 r w r e 8 ",
"q y 8 8 8 q u u i j q J y / 3.7.N.A.:.] K l r Y u q r e 8 7 5 8 r q k I I J k R ^ ) ....| 3.q.J..X_.#.3.| | E U k e j q 8 q r e ",
"r q q 5 q y r q 8 , u u k y ..9.>.V G ) U k k P y q u w y 8 q r r x U I k k I ^ / ) ) ' ) ' 8.M C.&X#.|  .( U v i g y 8 7 7 r r ",
"i 8 q e y u y u e 8 J r u u ..7.;.V G ^ k w w w y i j y b b b j b I Y ( R / ^ ^ | ........4.q.k.=X XC ` 4.} E l k r e q 8 q y i ",
"u y y k k I j j u j P j ` R _ ) S D p 8 # X $ - q w u x I U U T T R ( |  .5.} Q ..5.7...' ' 4.L.*X Xi.J / | ] ) x k j y e q r u ",
"u x U U L K l k k Y ^ U Y ) Y L V Z 6 # @ $ ; w r i i i Y Y ^ ^ ) | _ | | ..( U } ..) L P i 4 N C./.=.U P P R ] ^ U E U U x b b ",
"( Y Q E Y K k I I P k U I k j k p S V 8 - ; 1 ; 2 ; : @ $ - ; ; - - : * $ & : * 5 & @ @ @ @ $ p S C.$.J k K P / ` E ( ^ Y Y Y E ",
"- & $ @ $ $ + $ # X + + # # > c N.@X).+.~ { C C M C { [ C c c g t f g f , < = > 5 t z C M #.2./._.H.@.[ _ @.6.E r w q 8 8 8 5 - ",
"c g p F Z G >.:.c.:.>.D.M.E.).$X;X:X;X&X3X8XrXrXrXpXyXrXrXrXrXyXtXyX9X;X$X*X-X;X6X6X*X X&X*X;X*X&X&X$X_.B.c.;.B 0 9 e d d d e c ",
"*X7X;X*X@X;X7X;X*X*X:X:X:X;X;X8X8X=X3X3X8X8X6X8XtX8X8X=X@X&X;X$X9X7X7X@XoX8X9X@XM.M.M.(.OX X+X$X$X;X;X;X:X=X@X.X(.(././..X@X@X*X",
"_./.N.).*X8X8X7X;X6X;X*X*X;X=X&XOX/.(.1.&X&X X@X X/. X(./.M.V.C.B..XM.$X;X.X:.;.E.N.:.N.C.V.M.M.j.C.S./.H.C./.(.E.E.C.1.Z././.(.",
" X XOX6X6X@X#X'.!.].s.%.s.f.z.l.l. .p.~.I.l.6.y.f.z.z.y.g.g.,X0X7X:XoXI.I.d.7.d.r.7.d.P.g.g.x.U.U.P.s.g.l.f.I.G.^.Q.oX,XXXl. X X",
"*X@X~.,X,X>X~.L.O.O. . .w.$.Q W Y Q }  .| ( Q E Q ^ ( ) | ) 5.2X8X:XV.d...} E } _ | 3...5.5.5.w.y.i.w.p.l.z.z.l.i.l.^.oX2XXX$X=X",
"k.,.@.-.@.j b Q Q Y ( Q E Q Y I x x U x I L u j R / R / ` ` _ `.&X:XM.r.) E U U x Y Y ^ ( ( Y ) ^ E Y ( ( } } ( U Q ( }  .e.s.k.",
"6XrX@.| } ) } ( ^ ` ( ^ Y Y I k u k x u I k 8 x Y Y U ( ` ` | <X6X&XE.d.R Y U u I u x ( k U I U Y x P R Y P Y I K ^ Y E Y ) ] 6X",
"8X=X} ) / ( U U I k k J k J y u u u x r 8 8 5 u U I Y ^ L ` O.2.+X:XH.r.R I k Y k y J w q k k j x u u x u u r w y k j U U Y 4.8X",
"V.$X( ( Y Y x u q 8 u 7 * y y e y u u u q & % 5 q r k Y ^ ^ | [.8X;Xj.7.^ Y I k i y I I k u u i y J r I u u u y k k j k U U U C.",
"V. X( ( Y K k k 8 * q , w u q u u u u x k q - 5 q y u x E ^ O.&.6X7X1.4.Y k k Y q u I Y Y k u u y i u q i u q y i j j k Y / ] V.",
"oX&XY ) U x k k u 8 y u 8 q y i u u u u J q 8 I Y k U Y ` ] 3.n ;XrX;.5.K j j k I i j U Y P k u k y k 8 i y q q j k k J Y Y ] #X",
"j.S.T ( I j i y u w 5 u 8 r 2 i u I Y Y Y u d k I b x v ) ` ) g (.>.G 7.Y y j P x k r Y Y Y L u k Y j e q u u j P P U Y L ^ ` j.",
"*.@Xx } Y j j y u y u i y j i j i U Y Y Q Y ^ Q U x x Q _ ) U z Z Z H ( ( U U Y Y Y I ^ Y R U x k Y x I k I U Q Y Y E Y Y ^ J *.",
"*.oXx  .( I j k k k P U U E ' R ( ( k k U ( ) ) Y l k J E Y x '.#X.Xj.U x U ( ( E Y E ^ Y U U ( Y Y Y U Y Y ^ ^ / ( ) ) ^ Y K *.",
"j.=XW | _ E E I k k k k i d d r w ; . + . # 2 ; , 8 q c ~ n X.oX9XqX=Xi.l.W W T v 8 5 e - * > q 8 - - - < w t n ~ t.t.u.0.5.] N.",
"Z.M.j l I U 2 2 q 2 , < , e h l v #.a.Y.F.c.C.:.D G D.C.OX*X;X$X$X=X8X;X$X@X*X&X$XOX@X+XOX X).@X@X XA.E.(. X/./.(.).(._./.C.N.V.",
"C.C.;.H H :.:.N.V.V.V.A.). X).@XOX XOXOX_.@X)./.S.(.&X=X(. X(.@X=X=X_.+X&X$X&X*X7X;X8X;X;X:X6XrX7X8X3X;X3X&X X@X&X;X).E.C.A.C.V.",
"/._.(./././.&X&X@X+X(.A.@XOXV.).S.C.D.V././.). X@X@X*X XM.B.(.@X3X$X/.OX@X%X@X-X;X-X7X3X$X+Xc.A./.>.S.).;X7X$XS.&X*XM. X$XE./.E.",
"H.V.C.C./.).(._._.OX@X;X XC./.V./.M.(.).@X$X{.W.}.[.a.s.t.R.F.R.G.J.n.F.b.u.t.b.t.! ! <.K.!.'.).M.J.H.X.m o.o.!.<XG.a.o.&.K.K.H.",
"x.g.U.U.U.g.i.+.a.i.b.].`.R.J.#XyXeX5X<X1X1XXX].].R.s.t.u.%.] O.3.` ] O.] ] ] 6.8.8.8.%.u.t.b.$X).g.3.` 3.) ) ( L L ^ ` ^ o.$.f.",
"} | w.e.5.o.| } ' 5.7.w.5.e.r.D..X$X[.i.-.O.| O.3._ ` ( ( ` ) _ ( _ ( ( ] _ E E / ` ` ` O.3.d.&X*X~.3./ ) / ^ / R R ^ ^ ^ P Y ( ",
"I Y E U Y Y E l ` ` ` ` | 4.7.H &X$Xs.} ! ( ( R E I E E Y ^ E ( Y Y ( ^ ( E U Y ( E ^ _ O.) 7. XwXl.` R L k U P R k k j i i k K ",
"J I I x k k Y y k Y / E ( 3.7./.&XN.$._ U b k k j y j v x U I I Y Q U Y Y U U E ) U U E / ` 7.@XwXz.^ J k K Y j k y j u w y j k ",
"y u y q 8 j k q q j K l U | 7.N.+X@X<._ Y l Y I q 8 q e t j j j v k I I U x l U K k j J K ( d./.*X6.R L k i k k q , i y y e q y ",
"* 8 q 8 - r y 8 J Y I j l ( 7./.(.(.#.| Q U U I j q - 8 8 r j k k j k j k x y l Y k k k Y ( 7.V.C. .Y j j w q i q r i q w > - * ",
"8 7 8 5 q 8 w u J J U U Y ) 7.F C.@X#.| Q U x u e 8 e 5 5 8 y j j y g i j j Y k j Y u Y k | g.c.Z X.x 8 8 - q L y q y 8 - * * 8 ",
"8 q 7 q q q y i I U I k I ` 3.S.&X).{ | | I g y y 8 q 7 q q j k y y j y k x k u q i / K ^ E d.:.V X.x r 8 - 8 i q q y 5 8 - 5 8 ",
"7 8 q y u y u I l I Y U R ) ..(.OX(.K.E ^ _ Y x y y u r 8 r u j j j k I U K U L Y u / J Y ` O.D G V 8 # @ & * , ; q w * 7 8 8 7 ",
"y y u u x I u I I U ^ Y P J k ;.M.).t.Y L P ) | ( U U J l x b j j x x I U K x ^ R ( ) Y ' ^ _ Z G 0 & & : - 2 w w w w q e y y y ",
"Y E ( Y Q ( R Y j Y Y l j i d s B D.&.K i J J R ( ( ) R E E U Y U v P U K x l j k P Y P k T m s V a 0 0 e y x W T x I x I x E Y ",
", ; ; > 5 @ & 5 = % X     % e Z A.M.2.Q k U K i ; ; ; - * : # # @ @ X X X X o           . 6 a v.oX$XS.M.D.D.:.F ;.D j 3 1 1 2 8 ",
"f f f g d , - $ > 7 c X.2.b.}.$X-X&X$XY.2.2.X.M f 9 t f e t 9 h f f M m N #.%.&.o.%.$.&.u.W.@X:XrX8X&X/.C.C.N.>.>.>.:.:.F m c t ",
"iXeXuXwX3X=X=X=X7XwXwX3X@X*X$X&X$X&X-X3XwX3X$XOX).(.(.(.OX+X+X&X6X;X*X+X-X7X-X$X&X;X;X;X;X;XwXrX7X@X+X&X;X8XrXyXyXpXyXrXtXyXeXiX",
"$XwX7X7X$XOX8X8X$XM.c.c./.).@X@X.X.X X). X/.(.OX/./.C.N.M././._./.M. X*X8X7X:X;X3X;X*X=X8X7X=X&X(.S.S.:XwXtX3XwXrX7X6X*XOX&X;X&X",
"C.C.).M.$X;X@X:.;.C.c.:.C./.C.A./.(. X)././. X).@X+X$X;X+X/. X X).OX3X6X@X&X X X@X/.M.E.(./._.(.:./.$X.XOX)./.).(.C.OX_./.B.B.C.",
"8X8X4X`.L.z.y.9.d.q.h.m.|.m.|.U.|.|.U.~.}.}.,X>XT.].<X1X1XT.[.&X@X$X2X<XXX`.Y.p.s.b.s.Y.Y.l.a.K.a.I.I.!.].Y.t.a.b.I.R.s.R.).*X;X",
";X8X<X-...( ^ U E ( ` O.' O.3.` ..) | ^ ) | O._ ( ^ | O.| @.e.a.,./.l. .l k Q _ ^ `  .} | ` ] 3.3.| | | ..O.` | ..` ) ` 4.L.%X*X",
" X*X#Xo.Y P I x j U ^ ) / / ( ` ` ( / R Y R ( U I Y E ( ^ ( ` 2XrX(.d.| | } Q ) ....) ( ( ( ` ` ) ( _ ( ) / I U ` ) ( ) | 6.H.$X",
";X6X`.6.^ k x k k q j Y k Y I Y U I L Y L I x i k I k E ^ Y 5.4X*XC.7.| | ( E _ ) / ( ^ / Y Y ^ E Y E Y ( Y j ^ | R Y U Y ( 3.=X",
"M.+XXX+.Y j j I j 8 j q - k k j I u I i u u y e y k k k Y P U a.$XV.r.( Y ^ l I ^ Y Y K Y Y I P Y ^ ( P y y q I ^ L x k i ( | M.",
"$XrX#X[ I k k k k e U Y k u k j r Y r I y y r r u i r 8 w k U =./.M.3.U j I k y 8 r j q r k k k Y Y R R u * % * * 7 r y x Y 3.$X",
".X:X4X} Y b u Y i k U R ( k r y w u u 5 r i 8 q w w r w y u T l.).;.5.I u I R R q 8 k y j k y Y P R R ) R 8 - - q q 8 q x _ y. X",
"OX:XeX[ ( Y k x R U i I / i u r y e u q w r q q r i y r i k u =.j.;.| k u u Y ^ Y y i J y q k U i R Y R Y q 7 J I r y u Y | I. X",
".X&XM.! 3.} U ^ ^ ( u R Y J u q y i i e e r q r y w w r u u q { /.F 5.I u w J Y / k d k y u y i P } ^ Y L q q e y q e x ^ 5.s..X",
".XZ.Z o.^ 5.O.o.o.` ) ) R R I k u k x x i u u I I i u k k i y { C.D 5.I I r J I k K U K k j J y i J I u k u j k y r b Q O.O.a..X",
"&X;XOXC.( Y } 4.4.` ' ` ) Y Y Y Y I Y U I U U U I I I Y K k l X.OX;.4.^ I x I U L E L U I J U P P P r w j l J U k j k ^ ] ) k.&X",
"&X:XrX8XG.!.@.@.[ T ; * 7 % # % 7 * % O O % * 7 t b  . .$.#.+.=.v.S j w r w x U k l j r 8 8 - ; 5 & o o   # , > 8 9 e Q o.! J.&X",
"$X&X&XrXwX:X:X:X;X*XOX X.X(././. X).Q.t.a.F.G.a.j.C.Q.H.N.M.c.N.N.:.~ ~ ~ E - $ = = + = * , 9 f g [ i.l.c.t.n.&.%.&.K.'.#X4X4X&X",
"$X;X;X+X:X:X:X:X;X7X;X6X&X&X*X;X8X;X:X=X&X*X@X(. X@X=X/.A.A.S._.)._.E.E.C.C._./.A.V.c.C./._._.)._.(.(. X/.@XOX).).@X6X7X@X@X(.&X"
};
