/* XPM */
static char *dark_oak_planks[] = {
/* columns rows colors chars-per-pixel */
"64 64 44 1 ",
"  c #1F150C",
". c #22170D",
"X c #25190E",
"o c #2A1B0F",
"O c #271A10",
"+ c #2C1D11",
"@ c #301F11",
"# c #2F2013",
"$ c #342314",
"% c #3A2616",
"& c #3D2817",
"* c #362618",
"= c #3A2718",
"- c #372819",
"; c #3E2919",
": c #412713",
"> c #412A17",
", c #482B15",
"< c #432C1A",
"1 c #482F1B",
"2 c #46301C",
"3 c #4C321D",
"4 c #52351E",
"5 c #59371F",
"6 c #55381F",
"7 c #59381F",
"8 c #4D3520",
"9 c #4F3821",
"0 c #533620",
"q c #583721",
"w c #553922",
"e c #5B3B22",
"r c #623E24",
"t c #683E23",
"y c #5E4026",
"u c #644125",
"i c #6A4426",
"p c #634328",
"a c #6D4629",
"s c #6E4829",
"d c #724628",
"f c #734A2A",
"g c #7A4E2D",
"h c #7D502C",
/* pixels */
"e3647y66475775544:7r55777667eeer57575457331134,6,42337466uie337u",
"3<3666r467irti555,6576347666rrr5ttreer7r5654576666yuu6667677eu66",
"30e0<<;;,23133:23$33,4334,,3034003re441111,<1<<1&<<<633634u77542",
"e4e632326e6653311$1>;;2;&<<<>,<,>><1>>1&%$&;,;&%&&&&%;;;<<26r5iu",
"4444332,3131,3244>re73467urterrrrr00763033114q1132326433344634,1",
"4e63442<;3,1,366r$tdftidfsdrrrerq400443331431140467647664q6e7764",
"1<<,<1311232,2211o>&1446rrrirrrree0qetr7trdiirttreeyr6674433,1><",
",;;<331311<2<<,>,@1433366335<1<<<>;>&11;<>,<<&;;$$&%&<341>;1;%&&",
"4514404411313,;;,.%%%&;<3141111<1333311<<<<31>>13<&<>&&>;>>>1111",
"131<<>;;1>21,4334$11<&>;>;>111141<<<<3<<11=<13113,&;&%%$;==13143",
"tre4<>>,1>,1,&%&>O>,>,<<16043,<<<>>><@<@>=1@@>1<3;><&%>;;,;>4qii",
",>>&%<,444254344>$31,;%%$>1&>%&&>>=@>>=<<<13<=>>%&;<&@$&<<11<<1<",
"@oo+o$@@@@o@@@@@@@$@o$$o@oXo+oo+o+Oooo@++@@+@@+@@+o#@@@o+oo@@@@$",
"13111243444423353e77553111>,<>><<><><<<<1>3<<131<,2,133,<,1o<1>,",
"%%12457776,&&&:13353:343q006111<03131330301388qr666uuuii577>1>1&",
",&>1542,343<<1,1,,334642<>1>;;;;<<>=@<@<=<<@@<@<34334r76524@1<<<",
"11>,;;,<224262434493,&3211321<<00032<>>=;;=;;;<;<;3<&;22;;&+2221",
"<1232211,&%&;<;;;-&222;;>;;1>=;<1383033<<23<<<<21<34#$;943& &;1;",
"336432;222,><&&<;;;;,222>11131113302<2;<33334223646w622;444*<<13",
"%=%<2,>>2632433343932366q433838300e00221223<;<2232;;&&=;243#<1<%",
"<;2,333r66664764y6346332431343e482<>;;<;%=;>=&&&*2=&=**$;2<O<<&&",
"o+oo@@@@$####oo@$&$$$#@@OO+o@+O+++....o$+++.XX  .o+oX.   O+#++$+",
"4333346434323<>2<3343,2>111<;11$%=$+X$$%#*;<%#$%%$2=&$-;*;232224",
"<;2232;2;;&34$234;3422&&;<<8<;&%$%#OX$-;=$%=*%*$==;;2;2&;;;22222",
"=;2211<32;;;>&$$$%&<3331%&&1222;;=;;$>;;$;;&;&*;;%;=;;<<322;1;;<",
";;=><32<2%@&&2>&--%%;&<&&&;<231><281%<>>2&222;&2==%<;<;1;;;3>===",
"<8<21<<<<<;%$&<$--&,11<1<1332,22112w$w8126&&3w6we31<;82>11<;;;=;",
"=<8<;<1<&<23>&&&<;&&<2<2332r;1340e83%0012&33643ww200323312212;2;",
"8=32;>11113341363e942;;<<2223yue6e41@338464433<2<02333wwq0042111",
"=3<34334<22224<<36442y22333342244244>eeeeyppyyyw04p0wewuqeew22;;",
"<120eu46364232466w46424y;<236e71wuer%ee03u4yy4yw63puwppeisre0321",
"32333332<29226eyy999y394i663346e6463$3636326494wyeyysarepasee423",
"0e<eqq3qeeq411qqqqqq043qqqqrqqqqe64e%7u7rq88030qeraaeaapafdpiee0",
"1100433q,14ere1<3qrq400011;;33qq6267%7rrqrqrrr01<0gggtrfpfgsee08",
"@$@+oooooo@@ooooOO+++++@@@@@@:@@@o$@$@o$@@@$@@@@++*=<<<@<-<->;>&",
"188q,:>3>>@<,@+><1<;,31,qq4:111:;>&&;>;,<4881<81<=<<20rrwrqeeee3",
"004143:@%%%%==+1<31133<;;,1<=<;=,==<%;&;<811111<@;=*=<<34340tyar",
"eeq4q3::>@%=>@+<<<<<@<;;%%<qq31=<<$@>>>&=<<<1181<<;;===<<;34earu",
"1,1414q@1<@>1>O><<=1@<@<@<<qt<@138;3<>181<===8<=8<<;;<;@;;24ewy4",
"04443,341<<>@1+<<1@<;11@;@@<q==10r8<111>118q1<1<=2;<2188<;<4ee6e",
"311<1131<1<<<:+>@<<>><@<<@=,1=:qq43rq31<18183<30<<<;<11321<;>334",
"<,<<><31<1111:+>@<@>@>=@@===,==3q00qtrtq88q1<<<<11<<<1011;<;;;>;",
"<<<1<<><13<3<1+1<<=@<@>@:===<@<;0311;;;33<<1<;;;==;<-;;,;%>1>;>;",
"o@@+o++O++++++@@@++OOXO+..o+o+++@@@+@+++++O++ooooo+++OXoXXXo+@OO",
"<<><1334<@1<;,143<1;@@<@=:@=1==<=<<@<<<=;=;=<<@;;;=>;%===;;><11<",
"<<1<134331>1<<<43<<<1=<<=:1=;;==<@<<;<<<=@;;@;@;=><<;=%%%>;>811>",
"<<,><@13<1010431,<3<=<<<==:%@=*=;1<<@;@@@@@@;@+@;=;<;==@=@%%&<;=",
"@=%@<<@<,1444qqq3311<111<<<==@$$@@@@@@@@@=@=@<o;%<@%;<,<=>>%&&==",
"<>=@$-;=>1<23134qq1q0<<<<<<@<*$$=<@@<@@@=<====O=;<<;<><==;<>=;;=",
"==11=1<;;=;%;%11<q111qq31<<<<==@+@@=>=<<=;11q1=<10013<<1<1<1>==>",
"==@>>>><<1%%%<;;===<<<10311<<8<=180<13q0111qq1*<1<<;=><8<11<<@=@",
",@<<>1<>=;<%=>>;<@<<@=@@=@=<<<880rr083<8111181+8<1>1;>==<><11<>>",
"+++@@%$$@$o@o$%o@@@@*@#@@@++@+##@===<*#@$@+@**+OO+O+O++O+@++@oOo",
"1131rte0t4e337e7q3qqqeqeqretqte800<0wq=888888888388<28899we011<1",
"333q1qtert665r6eqtqq8reqeee88qqw88e888$<;=1;;;2=;----<2-<2<2<3<1",
"<300040430wer4e5rqtrq4e0qteqqrerwe0eqq=q8811=88808088;;2=81<==<>",
"<1122247eeeiahussafddtteweew9wweew9898=08888888y9989w9828288--<8",
"yy387w6eeeeeeeu7rrw8reereww99wrprere9w=wywq88888w9ew9ppye9w98999",
"<23225wraiairhsftrdttrwqewe99ewerewwe8+29888w28y9pyyy9y9ppy92<<2",
"2;<<23344eeauufadeerwwwertrer9wwwep882.**2-822--289e8999yew882-8",
"28;8<<2233333y6itre11<=3888828892<2=** O#-----*-*--282889998888-",
"ww;83<=;we66646rrt08<11=;22;2--2-=--=+.@O*--2-*-**----**2--8wwyw",
"yy983<<<33342<36r31q<0q18=282<=-2;;<==O***--*-8222-2*-#*---29wpp",
";--#+#X.$$@@+X#@*@=@+OOOOOOO.OOOOO@@OO .OOOOOOOOOO#O*OOOOOO*----"
};
