/* XPM */
static char *quartz_block_top[] = {
/* columns rows colors chars-per-pixel */
"64 64 36 1 ",
"  c #A19F99",
". c #ADACA5",
"X c #AFAEA9",
"o c #B1AEA4",
"O c #B1AFA9",
"+ c #B4B3AD",
"@ c #B7B6B1",
"# c #B8B7B2",
"$ c #BBBAB5",
"% c #BEBEB9",
"& c #C1BFB7",
"* c #C1BFB9",
"= c #C3C2BD",
"- c #C9C6BE",
"; c #C5C5C1",
": c #C8C7C2",
"> c #CDCBC5",
", c #CECDC8",
"< c #D0CEC7",
"1 c #D1CFC9",
"2 c #D5D3CD",
"3 c #D8D6CE",
"4 c #D7D6D1",
"5 c #D9D7D1",
"6 c #DCDAD5",
"7 c #DFDDD8",
"8 c #E0DED7",
"9 c #E0DFDA",
"0 c #E3E2DD",
"q c #E6E5E1",
"w c #E8E7E3",
"e c #EAE9E5",
"r c #EDEDE9",
"t c #F0EFEC",
"y c #F1F1ED",
"u c #F4F4F1",
/* pixels */
"werrtyyyytwquyteweeqwqqrqreerur9eetewrrrrrwrrrrwwetteeeuttrwrww-",
"96880yw0r069r088858254585777907$q4e447qq00qqqq7576qq9989e998886=",
"026800wee9090866868459999976905#r64477000qwweq77767qwq909998669*",
"<$26800000000636686959589999522#e444490qq7777757667qew008989869=",
"5<6588887777696569869499q7999::#q6666qw9667576667607760qrr09969*",
"0588838876776996969908087949624#w776774767q7766750qq556q9r90009=",
"0<22335566995076646860826467479%w774467777q9659q00weqqqw9r69762&",
"8<25268565679777595411,12676999#r44447q7,77777907565660q9qq9995&",
"6118888866790065441,,,,14657446#e4,,2704,577767w54285,8959999q6=",
"931888886890006222,111,47906667$q74:>40979909754481>-*259999e09;",
"9>55633352226336664121299099499%q6,,11167769t9545531,*,890q9999:",
"611&><<<3<<-=260609111190701:66+62,44146555799778982>>,89qe9r09:",
"055>**$11221-90w64541,,,:,16764 7,2454755079677799521>2579q6r85*",
"w5111-1166660e004464,21,164699,O95244776799767794521t:5999q6459#",
"w422122577979708669546646609044+q74497965995579751,2:4900774455&",
"e755654676676996699669747797664+q5659997997725w721555w099996996=",
"e6466667899q9997994888985095666#w777779909677476559q6r655855589;",
"w666767799000q64668965665665666%w974q77900777474999q644941<,486*",
"w6677774899wq096499998695167779%q677770900667764569944552:*<459*",
"0564466458,86946609685905246556#q77q0770w0776776689549551,>2185#",
"q555656485316659988889087456576$w0000qq790707777669754142221554*",
"w59866659821,666852890956,16767#w0qqqqw7e0707697699969665859565;",
"e979586658331958982886896,7647q%e0qqqqq6r666667769979996589w985:",
"q76990968553598896485598,:67700;eqwqqqq624744767996999969909949=",
"e9999qw94654588899985998799977e%twwewq9444664770697990098909599=",
"r779699546555588998685956999977%r767707677777777979090086999294=",
"t799997435888889588889507079779$q67697667707407700899w099896040;",
"e969665655588588582800897795767#q7q7977774777709000w99999690060=",
"w477477688288588822398984657757$q70qq4575777007600we9e990569999#",
"w997q79538898859823388585599777$7770q77577000q769q0w6r809646999=",
"q976447938998888838888886494777X7697945777q0q00qqwwq689w9897090=",
"6@%X+@#%&&*####&##O+#++&#$#=$$##4$$#%#%;%%%%$%;:;;;%@$;=#*;*%=#;",
"rreeeeeeeeerrrrewwwwereeeeererq4errtreerqerrrreqeeree0yeyyruyyr,",
"0676999065560006666990867771,29$w707777e76qq076767776646wwrr008=",
"96779566063665676999q0866776427$q04770775776667q7777886w000e608=",
"9,46669680566677000900906777746@q477777722697770qq646980r006058%",
"e$-10600008667969we9e0907707757@q070474724907,770q766q900846967%",
">o=8666000965677q0e6u880q777774=e44,474762702,7777640q0q6866662+",
"5>65667099766600qqe96669q%67775@q44747777>4097996677qqeqyy06796$",
"w69866767676600weqee95097446675X7770777071,,679907779uuyrr07777*",
"r5839888666590606eqe9q990656664X44qq0qq7042,70797770094ee0e0909-",
"r9839098665666569ee0eq066326669@470qqqw7794466969799e0945yee997=",
"r9988888636303539ey006867,7659q$q6qqqqq56777465677990r089e0tq00,",
"e0898888303306226qq686486,67990;e7qwqqq6477q66979498er800e0eyq01",
"w98985886666663350589946777967e;e47qq74677q0q756440q0e00ee96rq0>",
"w8894888600668336=6568665697977%q,,7797777qr06667470864296667q0;",
"w8124665800036332=2698866777776@04;247779q4976699779632><255600*",
"0311268130063363<26690866674762$0647q7q7q7q666666967635<2244600%",
"q815823&2865456838803888803067q%q6rrr0007q08777447774424322228q:",
"q822283*=,28889906806338003<qq9=e6ur0req09069847746222442242266>",
"w322323,>>389090036633-832227e0$e0uryrq979747448744441,44323477>",
"e3131222,2996990006003333<>20qq=e0ee0e7077877449q99064246443446>",
"e422328,47000q90086064742>20qqq;eeq644049779964q0900q7646664467%",
"e555223569q0we9e0836442,,>5qqqq;qr64699797769489000eq9679766646%",
"w4452322490w0w6r632,,4,,,>6qqqq=q34666662,29797qq00000999677774@",
"e,222592,0ww0q644644,4,,>27weqq$q446767962277794070709099997744@",
"e233800366qe99654666762,:66496q$q669968774474647979985009699624%",
"e866600888w9q8666697096,4646697@q779097077496699949663809976222$",
"e4630000980r988667969q024667799@e7699q6979648946227486809766222@",
"e3360000089984856479qq924666796$e74079>7787>4q746;499830966642,X",
"e6446yeew0w69568740qqq924677779@e9979999098<>1661&290960986664,.",
"e803<<000ewtyq86690eeq242464476@e900799q09q42>89>>49800e3657764X",
"e00<>330uyttt0e64049792,2464747$e0qq0q900979646646073-080072427%",
"6%@*%X-%&@;**;;#@@@@%$X@%@@%@$$$2%%%==%=%@$$$$@@+@=%$$@$=&@XX.+%"
};
