/* XPM */
static char *quartz_pillar_top[] = {
/* columns rows colors chars-per-pixel */
"64 64 41 1 ",
"  c #979590",
". c #9F9F9B",
"X c #A3A29E",
"o c #A6A5A1",
"O c #A8A7A2",
"+ c #ABAAA5",
"@ c #AEADA9",
"# c #B0AFAA",
"$ c #B3B2AE",
"% c #B8B6AF",
"& c #B6B5B1",
"* c #B8B7B3",
"= c #BAB9B5",
"- c #BEBDB9",
"; c #C0BDB6",
": c #C0BFBA",
"> c #C3C1BD",
", c #C9C7BF",
"< c #C6C6C2",
"1 c #C8C7C2",
"2 c #CDCBC5",
"3 c #CECDC9",
"4 c #D0CEC6",
"5 c #D0CEC9",
"6 c #D5D3CD",
"7 c #D8D6CE",
"8 c #D7D5D0",
"9 c #D9D7D1",
"0 c #DCDAD5",
"q c #DFDDD8",
"w c #E0DED7",
"e c #E0DFDA",
"r c #E3E2DD",
"t c #E6E5E1",
"y c #E8E7E2",
"u c #EAE9E5",
"i c #EEEDEA",
"p c #F0EFED",
"a c #F1F1EE",
"s c #F4F3F1",
"d c #F8F8F7",
/* pixels */
"ippipssssaiisssippppiiipppppasapppsaipaassissssiipssipissspppiu9",
"u0000tqrurqqir0q0006070e80eeere0q9u98qttrerttre89etrqt0rurrwqq01",
"u600qtrttqtqr0w0w0007eeeeee0qr90r088q0rrttuutreqr9ertterrqqw0qq1",
"u6900qqwreerr09000w07e80eeee9669q9890qttte9eqe8q90etutre0qewq00<",
"p790000eqqqq00q00ee0e8eereeqq310090q0ttrq9e9q9q9eeere9eqyiree0q:",
"u66000q0q00qrrr000eerere0e9q96890qq0qq009qtqqq9q9etrq9qrrurtrr0:",
"i2000qeqeqerqr0009000r0608eq9qqqq0q880q0qqrq99qrrettqqet0yqee09$",
"y20w0we$&*&**&$$##@@#$#$*-;&$@@@$@@+@->-$-><>>--$XXO+@&-0ttttrq$",
"iqqr0qt&0rttttq988652535808e9980e8336qe820q0q0qu99qee0qtptrtet0*",
"iqqwr0q@qq0qqt0688555558eer009e00q9128teqqeteq999qqqqe0qpqeeyre*",
"ieqqqeq&00q90990e065656eereq9eee00615560000epeq8eet0eqqqp0eeere*",
"i9q6q00@90r0660r0re65550t0r529e5665866690000eeeqrq0r9q90i0yeiee*",
"u999989&00rq000q089835331350qe6:656898q98eqq9e0eq808qq8qpqt0i00$",
"i960000&5qqtrw0q980856633080qq3558689qq00eeq0eeq088qe0qqp8r068e$",
"i666000O30q0q0iiiipiiiiuiuappuuuupuupppppppiipppi08e9qqep6q9999;",
"i099009*qqqq0ei09eee9eq9q0re0e880800eqqeeeqq69tq0@q8ereqpqqqq00;",
"i090000-weeteeiqqe00w0ew8rw80000qqqqqqeerq0qq9q00Orqqrq9pq000qq-",
"i00000q-eretrti9000e00e09000000qqrq8tqqertqqq0080Oqq8660iq609eq=",
"i000qqq=0wwuttiq9eeee00e95900eee80qqqqrerr00qq800Oqq9868i33600q*",
"u908909*w94w0eu90re0w0we088099000qqtrqeetrq00qq00Oqeq99qu660900@",
"u990009$w97509uwewwwwetwq8900q0qqetttttqrrqq0qqq0Oerqq9ei9qqq98+",
"i9ew000&ew6440p0w97ww=;++.X++O@@@&&>363>=+-rqqrq0$eeeeq9s080890#",
"pee0000&90966wpww080w$0w93q09qteetttttu0q0u009qq0*qeere9i090q00$",
"uqqe0re$w0960wpwqw900*e0330qqerrttttttt889p96qqqq*0eeeq9u50qq9q$",
"peq0qtt&808677iweeew0*e0weeeqquttuuutrr888i08eqe9-qqe0e9y19q0ee$",
"peerqee@80w96wpwwew00#e90eeer0qrtq0qqt00qqiqqeqee*ee000eu3qe8e9#",
"seeeee0+797wwwpwwwwww$0eqtqeqqq000q0qq00qeae8tqqt-qq00rrp0e0r9r$",
"ie9e9q9#96www7pw908we#weq0r9q0q88etqrqqqe8iqeqqer=rteerrs0errqr$",
"i8qq9qq#ww6ww7pw9667w#ew609qpipiipp8t88q00ierr00r*tueueea09eqrq@",
"ieeqrqq@9wwwwwpew767w#w798eepqqq3ee&tqq8eqarrtq0e*rt0iwep09qqqq&",
"uqqq89e#6wewwwue967ww#ww08q9pq033qe$e80q0esrtrrtt*tt0wetp0eqtqr&",
"s9e9890@weeww7pew07ww#ww0r0epr0qqqe@qqqtqqatrttut*rr9eutptutrrq=",
"ar0000q@w0wwqrs000000#qqrq0qiq90qee&qqet00stttq9e@e002y0ayrirrr=",
"i080ttr&0070wti0000qe&00q005u600tqr=eqeu00stq0000@000070suiirrr%",
"i508qtr@w070q0iq0qqqt&qqq0q0u6900r8&qe0q80i000qtq+eqqw0ysrry0r0$",
"i550qqe@qr9000aqrrrqq&qet0qq0*&+@&*$qqee89i00qqtt$090r0rdrr0r9r@",
"u328wqe&rrwq0qp0rrrqt*0trqrqq0q00qqq8q0068ptq5qqr#qq0tqraw7qw00#",
"t28rtre=rrq090iqqqrqu*qrrrrrrq9r08088q8q06pt930qq#80rtrtpw00006X",
"t50tttq-qqq000aq66rqq=0rt0rrrw90088q80eeq3itqqee0$0ettitdar0qq0+",
"u5qttrq=q0q00qae090r0&t0q0q0qq9360qeeqee05u30qeet&qqesaadirqqq0#",
"i999eww;0000qeiqqq0q0*qqr0000081<8rrtrtqr8i30t0qe=qrrw7uarirwre$",
"pe00ete;0090eqarqq0q0$r0066000q93qrtruuqqep800r9e&ewyrr8pauuweq$",
"peq0ew0:0000qriqqrq9q6ypiuiiiisiiisssssiipp08000q&errarqauratrr-",
"pt0ewww:0090rqtqqeq39w0006qqqqttqqttttr000rr00q0e$ewuuerayyratr<",
"iewee00=w0q0qeaqrq060q6000qq0qute8qttq90qqttt0006@rtryrrsye0uyr3",
"uwwe0ww&0rrw0qarr0r09q0000rqr0qqq330qeqqr0tie000q@qre087aq00qyr3",
"p04670w+0ryqwrpryw0q00q00qqqq09986<69qqqqr8re00eq@qq0863y789qrr,",
"u955900o0eq0qypye90wwrq000q9q0698000tqtqrrr000000+qq0685y677qer=",
"uw50w69 6w0999e000rrwwww9r9r0qtq00iiitrrqrrqqqq98.qq8769u7665qr>",
"iw857w6 ,26w0e<==-11>=%;%$++==&==$3>&*&&=->**@oX.o067668u7867qq>",
"u968667X220werere00q976706660urqqrduiireqeq0q88qq6886338i6787qq<",
"p658466O25weqeettq0rrwr76426rttteruuttqrqqeq087rteer0868i87678q3",
"p66776wX80rtrtqeqq0qrqtt636etttueut099r8r0qrq07rrrrrtq08i0088qq<",
"p999667#9qtruueutq0r0q0r990ttttt0i088qeqqqq0q0qrrtertqqqiq00080<",
"u969676O8rtttt0p0qetrrqr069rtttt06800qq0636qqe0errqrrrqqiqqqqq8>",
"p56669w#2ttttt09qtttutrq9600rute7800q0qq0660q0q0qqrqrqreiqeqq88>",
"p677wrr,iiassspppaaiipaiiiiiaaaaiiaaiiiapiuiiiiiiipaaaiis0ee068>",
"iw9wwurww0yrrw0w000q0qq8000q0qq80q0ere0rrq0w0qqq0600r0wreee0666-",
"i7w7wrrrewryeww008qtqqqq0q0qqeqqee0qetqeqrww0eqq46r900rreqq8636&",
"p877rrrrteerw900qqqrtt080000qeqqeq0eeeeeer00qqrq0000r00re000863@",
"i0770auuurr0w09003qqrtq08qqqqqe80qeqequ0rq09q0q00qqrr00rr009082O",
"a0q744rrruyaatw000qqqq80q0088q8qqqtreqetyq0r09600r0rrrrr7w0wqq6O",
"arr6299rdaaiiri08r0q0q00r000q0eqrrttrtety0tytq9900r0r,rwrr0707r@",
"y=$*=+>;,,53131=*->>33><>-<<>-&--><1606839q33<>>:=&=%%%%>>=>;$#*"
};
