/* XPM */
static char *quartz_pillar[] = {
/* columns rows colors chars-per-pixel */
"64 64 57 1 ",
"  c #868480",
". c #888782",
"X c #8C8B86",
"o c #8E8D89",
"O c #908F8B",
"+ c #949086",
"@ c #92918D",
"# c #98948A",
"$ c #969591",
"% c #989792",
"& c #9B9A96",
"* c #9D9D99",
"= c #A09F9B",
"- c #A6A197",
"; c #A3A29D",
": c #AAA69E",
"> c #A6A5A1",
", c #A8A7A2",
"< c #ABAAA5",
"1 c #AEADA9",
"2 c #B0ADA3",
"3 c #B0AFAA",
"4 c #B4B3AD",
"5 c #B9B6AE",
"6 c #BBB8AF",
"7 c #B7B5B1",
"8 c #B8B7B1",
"9 c #BCBAB5",
"0 c #BEBDB9",
"q c #C2BEB6",
"w c #C0BFBA",
"e c #C3C0B7",
"r c #C4C2BC",
"t c #C8C6BE",
"y c #CBC8BF",
"u c #C6C5C1",
"i c #C9C7C1",
"p c #CDCBC4",
"a c #CECDC9",
"s c #D0CEC7",
"d c #D1CFC9",
"f c #D2D0C7",
"g c #D4D2CC",
"h c #D8D6CF",
"j c #D7D5D1",
"k c #D8D7D1",
"l c #DCDAD5",
"z c #DFDDD9",
"x c #E0DFDA",
"c c #E3E2DD",
"v c #E6E5E1",
"b c #E8E7E4",
"n c #EAE9E6",
"m c #EDECE9",
"M c #F0EFEC",
"N c #F0F0ED",
"B c #F3F2F0",
/* pixels */
"gl,40dlvvvnmBBclll:19ujccvnmNNlllh<39alvvcnNNBlggg147ragklvbNNgj",
"rp@&<uazxlbnNmffys@#>5ugzzbmmmgppy%%<wjjzznnNNgysg%;3udlzcvnnmaa",
"yqO&,wpkxxbbmmapyf@&,9igzxnmmmyphpX%<7ajzvnmmNaada$;3uazzzbnbNau",
"#-o&,0igzxvbmmyyssO&>0ajxlvmmn0ygiX%>0ajzcvnnNippi$=30gkzlvmnNag",
"25@&,9pdllvbmmftds@&18akclmnmn4ppp@%<uaazxcnnmayga$=>9alzzvmmmfs",
"ty$*,99ijzvnmmfppp$&10dllcMnmnrppp@%<0ialzvnnmidig@=>7akhhnmmNsg",
"eqX#>9rdxcvbnmfpai@@,0alxlbbnmgpap@@;0ajzxcnnmgkgg&>10alllmmNNrr",
"55X#>8plcvvnmmfaiaO$=7alzjvvMmgpjio$=7pkzcvnmmgkgy$*<9gkzznBNNst",
"48o&<8dllzbnMMpttto@=4illhvmmmtagro@=7ilzcnnNnazyyo*17azzxnnnNsy",
"5qX%<9dkllbmmMyqre.@=4akclmnnndppao@*7ikcznNNmpruaX$;4ajzzmmNmff",
"q4O%:4dhllvbnntspso@;4izbcnnnmsgppX@;4ijlxnnNmpyyyo&;7gzcvnNmNgg",
"55oX=4dkhhcccnshph@@;5azcccbbnpqrwX%>9pjccnmNmppfa@&;7klcnNmNNfh",
"qtoO&2pkhlbccmlxpt@%;7ilccvbnmt:q9X&,9jjkznnnmadgg@&;4glcvmmNmpy",
"stO#;3pgllcnNNlfiio%>9dalxvnnm8eqto%<rdgjzvnnmgauyX$34azccbbvbdy",
"prX%,8yhhlcbMnhpia@%>8pdkkvnMntqtgo%,0agkzcbnmgare.@*7flclvvbvpp",
"ppO&<8ighhcbnnsyaa@&,8igklbnnnttyy@&19pjzznnmmzareo$;0alclvvnbas",
"sio%,8iklxcnnbdddho&,9skcccbmmpsaa@&<0ajccmnmnppyp@&;wukcvcvvmaf",
"iso$>8pllxcnnbitppO=:8glcccbbmsdgg@&19gjzcnNNNfrsf@*;7pjlczcvnpp",
"ipX$,8aklccnnndsys@&>5dxxxcvbmfgys@*<9ajzcNmNnpiyso&;7ijlclccndp",
"tto#,0ajlcxcbntpshO%;7jzccvvcmsypa@*19ajzvnmnNgipa@$;7ajzccvvnyr",
"rio&,0dllxccnnyhhp@$>wjzvvcvnnihaj$*1wdllvcvmnfapa@&>7ajzlbbnnrr",
"pi@&<wjzxcxccnppfiX$<rjlzvzbbbfigj$*10azzzvnmmjdyg@*<9ajzzbnnmpp",
"dd@&10azlbccbnpfsaX$,0glzczvbblggj$&<rajlcvbnnfasg@&<0akllnmmmpa",
"isX*1rdlkhcbnnhffso$,0gzzzzvbnjkkz$*<wajzzvvnmafsa@&<0ajljbmmmad",
"dg@%1ugkklcnnnyyggo&;9ajczvnbnxlzz&=10pjjzvvmmddij@&<0ajkzbbnNdf",
"dg$*<0dkllvnMnfhfg@&>9ajzlbmmnfgjgo&>0ajzcvnnNadga$*<0idjlvvnNya",
"kd$%<rdkllvmMmfhff@&>walzzbmmnfpyp@&<7azjznmnmadkj@&<wiakjvbmmja",
"sgO*,0agllbnmNffyyX&<0ajzzmnmbaiyg$*<7ulzzvnnmggjj$*<0ipgjbnnNga",
"pi$*,9agllcMNNsyytX%<9dlzzbmmbaaaa$*17ualzvnmNayjj%;,wppffvbnNfu",
"id$*3ullclccmmyhyt+%,9ijzzmmbnga9f@*19uaccvnNNgsgk$*<rigjgvmNNdf",
"th%=<ulzbllnmmpfyt+%:9pjzzvmbna96s@*,9ajzznmmNgkll$=:6pgclvcNmjg",
"pwOO=<8utriuai6955 X&;<570uiaa90ww@@;10rruaaaa0rrro$$;;><1400i40",
"jg<17wjlllcccvkpaa>140ujjjlzxcpdfg<37ugjljzccvgaaa1179iaagjzzcgg",
"up@*<9jjzxbNNNgpppO&<0alzlccnngdja@=1wgzvkvnmmuguj@*<9akzcmNnNag",
"4u$*39ghzzvmNNpfaa@*10alllvnnngdajo=1ujlzlvvmmglgg@*<9akcznmnNaa",
"90o&<9rpklcnmmgfgj$*1wpjjlcnnnpryy@&>0aljzvnmmajkko&<wajzcmmmNdi",
"y-.%<9rjzlcnmmgpgz&&30aaalnbmmgaag@*>9ajzlvNNnsggl$*<wdkczvbmNsy",
"+# &>9ajxzcbnnsflk$*40aalzbnmntgauo$>0ajkzvnvvpsaao*1udzzccbmmr9",
"<5o%<9ihlzcbnnhhll&&>9ulzlcnnniiiuo&>0agzccvmmggaa@=1wdklznmmNyr",
"yp@&<9igzzcnnmhxzl$*<7alzlzbbni9rao*<0ajzczvNmggjp@*1ijlzlvbmNfp",
"hyo&<9pjllvnnmfgac@=<wpjklzcvnu43y@&10ajlvzvmnfgdd@*10alzznvnNfs",
"fh+%<rpllhvnnmyygz&*10pgklzvbnau9s$=<ugjjjzvmmjuja@&4wdzllzcnnsg",
"hf@%,8iphlvcnnyygx**19pjllccbmlgya$=<ujljgzcvmuafa$*1ualzxxcbmjz",
"gl@%;49allxcvneeal$&14ujlglvbmjkja@=10ajlzvvbngadu@*3ujzzxxvmNhx",
"sho&,70lcxhlxnyrijX$;9ajlpxvvnzlgro;19uglzvbmmypry@=4wkkllzcnNhh",
"ya@&:9glxxcxvvyra1o&;9ajggxvnbffs9X&<0pjzzvmmnyyay@*16ugljNcnNhh",
"pyX%,9ajxlcvvnytq2X$10ajkkcnnmyrut.$>9yjzzvnmmsgfa@*<7ughllvmNhp",
"iyo@;9pjllncnmyyqqo&19akllcvmnryty@&19pjczbnmnspij@*,7pgllxnmmjy",
"yaX&,0akzzvvnmidffO=<6ajlzvnnmlfau&>10ajzzbmmmayud@%>7yjzccmbmjl",
"iao#,9dlklcbnmdgfyO&>8pjlzvvNmhhaa*>1uajzjbbmmrpayo$*3yjlzvcbmyz",
"ytX&>0dlllvnmmgjhyO$>8pkzxvvnNhfgg*>7uajlzbbmmtafro$*2ujzzccnngz",
"arX$=8ikjlcnbmglhf+&>5pjzlxvmNkljj&;10alczbnnmtgkf@%*7ujljcvvnsh",
"aro#;4pglxcnmmdgkdO&>7ajlzvnNmzzgc$*>9alzznmmmtjjg@%<7pgjkcvvnsy",
"ayo%;3rglxbnmMgxgfO%;7ajllvNNNhlpc@&,0fkccbmNmfjjk$=<0akzzvnmnpu",
"yto&;4iklxbnnMscyyXO;7ukzzvnnNhlpr@&<9ajzzbmNmajjj$*1rdkzzvmmnur",
"a9.$;5pjxxbnMMptyaX@=9akzcvnNNhhyyo$<7pzzcbmmngpgd$&10ajzzvnmnuw",
"aeo$>9ahlxmMMmytyp@&<9akvcvnNmjsppo&<9azccmmmnufda@*19izxzvmmmut",
"ifo&;9phxccmmmsypp@&10gkzcvvnnsppf@*<0allccmbmgddi@&<9uklzvmmneu",
"ato%<efjxxcmmmfspf@&<walzzvnnNdaago&<rplzzvbmmuiur@%<7jjxxnmmne9",
"pio%1ealxxcmnnsyip@*10agjlbnnmpagao*<9plzcbvbmaiy7o*<0gkcxvnnne9",
"sfo#>tajlzbnmmysai@*10aflzvvmmauug@*<0glzznvvbpp0:o&,0szczvmmm64",
"fp@&;5pjzcmmNmfspg@=10ajlzvbnmapgg$*<0azzzmvnbff67o&,wfzzxvNnmt4",
"gj@$;9alccbmNMcyrgo&<9pjljvbmmgajj$*1ualzcvnnnysyy$&,7jlcvcnnNfy",
"eu&;,,99990ruuq647&*=<14770ruu900r*>1700uuuruu4447&*;,,<<<<79e47"
};
