/* XPM */
static char *smithing_table_bottom[] = {
/* columns rows colors chars-per-pixel */
"64 64 256 2 ",
"   c #00000F",
".  c #000010",
"X  c #000011",
"o  c #000012",
"O  c #000013",
"+  c #000014",
"@  c #000015",
"#  c #000116",
"$  c #000217",
"%  c #000318",
"&  c #010419",
"*  c #02051A",
"=  c #03061B",
"-  c #04071C",
";  c #05081D",
":  c #06091E",
">  c #070A1F",
",  c #080B20",
"<  c #090C21",
"1  c #0A0D22",
"2  c #0B0E23",
"3  c #0C0F24",
"4  c #0D1025",
"5  c #0E1126",
"6  c #0F1227",
"7  c #101328",
"8  c #111429",
"9  c #12152A",
"0  c #13162B",
"q  c #14172C",
"w  c #15182D",
"e  c #16192E",
"r  c #171A2F",
"t  c #181B30",
"y  c #191C31",
"u  c #1A1D32",
"i  c #1B1E33",
"p  c #1C1F34",
"a  c #1D2035",
"s  c #1E2136",
"d  c #1F2237",
"f  c #202338",
"g  c #212439",
"h  c #22253A",
"j  c #23263B",
"k  c #24273C",
"l  c #25283D",
"z  c #26293E",
"x  c #272A3F",
"c  c #282B40",
"v  c #292C41",
"b  c #2A2D42",
"n  c #2B2E43",
"m  c #2C2F44",
"M  c #2D3045",
"N  c #2E3146",
"B  c #2F3247",
"V  c #303348",
"C  c #313449",
"Z  c #32354A",
"A  c #33364B",
"S  c #34374C",
"D  c #35384D",
"F  c #36394E",
"G  c #373A4F",
"H  c #383B50",
"J  c #393C51",
"K  c #3A3D52",
"L  c #3B3E53",
"P  c #3C3F54",
"I  c #3D4055",
"U  c #3E4156",
"Y  c #3F4257",
"T  c #404358",
"R  c #414459",
"E  c #42455A",
"W  c #43465B",
"Q  c #44475C",
"!  c #45485D",
"~  c #46495E",
"^  c #474A5F",
"/  c #484B60",
"(  c #494C61",
")  c #4A4D62",
"_  c #4B4E63",
"`  c #4C4F64",
"'  c #4D5065",
"]  c #4E5166",
"[  c #4F5267",
"{  c #505368",
"}  c #515469",
"|  c #52556A",
" . c #53566B",
".. c #54576C",
"X. c #55586D",
"o. c #56596E",
"O. c #575A6F",
"+. c #585B70",
"@. c #595C71",
"#. c #5A5D72",
"$. c #5B5E73",
"%. c #5C5F74",
"&. c #5D6075",
"*. c #5E6176",
"=. c #5F6277",
"-. c #606378",
";. c #62657A",
":. c #64677C",
">. c #65687D",
",. c #686B80",
"<. c #696C81",
"1. c #6B6E83",
"2. c #6C6F84",
"3. c #6D7085",
"4. c #73768B",
"5. c black",
"6. c black",
"7. c black",
"8. c black",
"9. c black",
"0. c black",
"q. c black",
"w. c black",
"e. c black",
"r. c black",
"t. c black",
"y. c black",
"u. c black",
"i. c black",
"p. c black",
"a. c black",
"s. c black",
"d. c black",
"f. c black",
"g. c black",
"h. c black",
"j. c black",
"k. c black",
"l. c black",
"z. c black",
"x. c black",
"c. c black",
"v. c black",
"b. c black",
"n. c black",
"m. c black",
"M. c black",
"N. c black",
"B. c black",
"V. c black",
"C. c black",
"Z. c black",
"A. c black",
"S. c black",
"D. c black",
"F. c black",
"G. c black",
"H. c black",
"J. c black",
"K. c black",
"L. c black",
"P. c black",
"I. c black",
"U. c black",
"Y. c black",
"T. c black",
"R. c black",
"E. c black",
"W. c black",
"Q. c black",
"!. c black",
"~. c black",
"^. c black",
"/. c black",
"(. c black",
"). c black",
"_. c black",
"`. c black",
"'. c black",
"]. c black",
"[. c black",
"{. c black",
"}. c black",
"|. c black",
" X c black",
".X c black",
"XX c black",
"oX c black",
"OX c black",
"+X c black",
"@X c black",
"#X c black",
"$X c black",
"%X c black",
"&X c black",
"*X c black",
"=X c black",
"-X c black",
";X c black",
":X c black",
">X c black",
",X c black",
"<X c black",
"1X c black",
"2X c black",
"3X c black",
"4X c black",
"5X c black",
"6X c black",
"7X c black",
"8X c black",
"9X c black",
"0X c black",
"qX c black",
"wX c black",
"eX c black",
"rX c black",
"tX c black",
"yX c black",
"uX c black",
"iX c black",
"pX c black",
"aX c black",
"sX c black",
"dX c black",
"fX c black",
"gX c black",
"hX c black",
"jX c black",
"kX c black",
"lX c black",
"zX c black",
"xX c black",
"cX c black",
"vX c black",
"bX c black",
"nX c black",
"mX c black",
"MX c black",
"NX c black",
"BX c black",
"VX c black",
"CX c black",
"ZX c black",
"AX c black",
"SX c black",
"DX c black",
"FX c black",
"GX c black",
"HX c black",
"JX c black",
"KX c black",
"LX c black",
"PX c black",
"IX c black",
"UX c black",
/* pixels */
"2 5 7 4 7 e 7 , = $ O X X X                             . X # $ $ # + o o .                                         o $ ; & = : ",
"< x F / _ ^ R G F U Q R E R G / ( ! R / T Q T S ! o.@.] [ | _ ! Y T U K V b A G U T J T W I P L S F S D x h M Z V H E ] X.@.=.: ",
", ' O.:.#.[ Y b x b k L ! ^ / ~ Q I R Q R R C m M V O.X.] $. ._ _ ~ K m g F J z G ^ _ ' / U L K U L H M h v a d v C R  .;.<.1.: ",
": ..-.>.&.! S b >.} t g Q ( ^ R R J J L L H J >...r G @.$.@.} U J J S h h 2.{ l f / &.=.{ R S C L L C g / *.v b b n R { *.:.1.; ",
"* ' o.#.O.) K C 4.+.i a ( _ _ ^ E U K R Y G J 2.$.5 C @.;.-...F n B V s k 2.! q u / %.*.] U R W ! ( J g =.*.e d f x I W ! E E ; ",
"$ Z K S S S C x U U 0 J o.G P / ! R I W J C N W M 7 ( o.@.o.) N g x x x v L F e x U Q R K D W _ ) R U n I ! i u j M N A A S N = ",
"@ J U ! ! Y P A j l Z _ ^ S ( | [ R Q U J F U ( U ! ..O. .` / A M n Z B F G K G G U W K F P R R F b v A M x g k N C C n j c F = ",
"X U Y L S U W ~ E _ [ _ Y J L  .{ ( / H Z P R / X.X...@.o.` T J Z n C C C D A A D P U U L E ! E C k k R E S x V S Z x x d g S $ ",
"  F d S ! B K ! / } / Q L N n Q ~ _ _ E Q Q P W ( [ ' ' ' Q G B M B m A S D S H G L G L P W W E Y A C P Q R P J F l L 3.>.l G @ ",
"  u 0 [ ,.J M L _ } ! W G A U ( / L Q [ ] W P L E ( ' ] ) W J D G I P G G U I R U R P L Y P U L Y S G K Q / ( ^ W z P X.[ c U + ",
"  a $ x Z a k G ! / ! I F U ! _ / W _ ..| ' ~ T W E ( { ] / E Y Y Y T W R U P P U R ! R T T R R Q L T U S J Q ~ _ A e u q g ! X ",
"  B * + $ 0 M Z L R U L K Y ! ^ ( / ) ` { [ ' _ ' ^ / { { ! U R W U U U H G L H U E ! R R R U E ) ! T R R ! ^ ! _ ) J i s H R   ",
"  S A C x U Y I U G R R I R ! ' ] / ! _ R ^ ~ } o.X./ _ ` Q F T / / Q I L G L T ^ / ~ / ` ( ! / _ R U G F G H L U ~ o./ W Q W   ",
"  L J E U Q U F V S Y I I U E ' [ E ~ _ R / ( @.#.O..._ [ ] ~ R ~ ! R Q Q U U / ] ^ ~ [ { } | / R ! ) ) E L V n H S G _ / ! R   ",
"  D N S Y R E J S J R T B G ! | [ / / ) { X._ ( { [ o.X.X.' { [ _ I G L P L Y E ' _ [ [ [ [ ) _ ^ ^ R ) / E K x K ) P _ ! ! Z   ",
"  V M G R R E K D Q { [ R Y ! ( ` R / ~ ] ] E / ^ ^ } X.o.{ _ ` [ / ! K U L ~ ! [ [ { _ ` ' ^ { _ ~ R W E / / R  . ./ ~ T R !   ",
"  x k v Z S G c M W ^ ~ _ ) ) ) ] ^ _ $.+._ L E ^ Q E _ _ _ [ ^ | ! ! Q ! T _ / [ ' | _ ) _ ' { _ _ ~ R Q ! ~ Q { [ ! R U U W   ",
"  j d a r l n V F K R W ~ ^ { ] { ^ ) | #.{ ! / / W ~ Q _ ! ) _ | ^ R W R L ! ! _ { [ ` _ [ } { [ H Q ~ U I F ) / R R U F G R   ",
"  n b b a x b m H J U E ! ! _ ( E B G ! { _ ! ( ) / ! [ X.' _ [  .{ ( / / D U W _ { ' ' ] X.| [ { W _ ! U Q P ( ~ W I H D I R   ",
"  D S D C M A B S L K T Q / ) R Q b L ( } } _ |  ...| o. .| O.o.{ | } | ] R R / ' ^ ) ' X.O.+...} ( [ ' W ` ( Y F U W T G U Q   ",
"  b k b b C V V P T U U E W Q J ^ L F U _ X.` / @.o.@.@.X.Q / } ] | _ E  .{ [ ` _ / [  .O.+.o.X.[ ) _ ` / ( / Y B H J U G K L   ",
"  B k f g x b A Y T ^ _ / _ X._ ` { ` / O.@.X.Q ` { %.&.%...` | / R _ _ [ ) _ ( ( { | ..X...O.@.' ) ' ~ ^ T H U K D C F D K U   ",
"  m u r Z D h Z Y W / ( _ { | ....#.] _ _ { { _ [ | | [ ` [ | } | ) ! ) ] _ ] ^ R / ] [ { { | | ! E / P P D V F Y I N H F b L   ",
"  g r S =.K t J L Y ! ~ Y / X.#.@.o.| X.X.| } { { U ` ] ! _ } O.+.X.X.] { _ _ / R E W / ) ~ ) [ R U P M A M V U ^ ( W 3.>.k m   ",
"  u - a J l 1 J G S ) | | ' _ | O.o.{ _ { +.@.o. ...{ | ' K U } X.{ [ [ o.} | ] W ~ ^ _ { _ ] [ ~ Y R G K V G ! X.I m $.| k R   ",
"  b #   O $ : D H G [ o.O...X.#.o.X.| _ |  .$.X.X.| } X.| / / } ` { o.X.@.X.] / W ' ' ' { ` { } ^ E R U U G E ] X.E - % , k X.  ",
"  N y @   7 a J S E  ._ E _ / [ [ [ R / { ' ) } @.X. .| ^ ^ | ` | o...| O.| } ) !  .' _ ` ^ _ _ W E U U U R ~ _ | { T w g } $.  ",
"  k a m n i u N L [ [ [ R Q T ..o.R J Q Q ) _ [ [  .| } ~ [ %.o.| | ` ) @.O.X.| ` X.} } [ Q / _ W U L Q W ^ ~ _ X._ | K ~ } ]   ",
"  M u x C i h J G W '  . .X._ ' } ( ~ _ ^ Q ) ` } O. .X.%.=.=.@.O.X.X.| [ { } ^ W @.| { ( ! _ [ ] ) T L E E Q ( { ^ | S I ~ {   ",
"  C x x b r x ! ! / ~ _ ( ) ) / ' ^ | } o._ ` W ! %.O./ ^ @.@.X.o.X.+.X.| | | Q W @.| | } ] } ' ) [ R U Q W L L ! ) ( ~ U [ [   ",
"  b p b S C G W ] ( ) _ ( ] ) Y E W _ _ } [ X.[ R | { Q ) O.} | +.{ o. .[ L Q ( _ | [ ' [ [ { ) / { ` E W Y C M G H K U U ~ !   ",
"  M d n F S A P Y ( / | X.] R R ! Y ! _ } ` } } [ ) U I [ | ` T O.@.@...] K Y ! / ) _ E R U / / ! [ | ( W G n v S b k l B U L   ",
"  C v G L J F R E ! A ! [ / U Y L T Q T { [ ..} [ ` / ( ] } ..U U { } _ } } ] ] _ _ _ R ^ R ! E E ` ] W E G M x V b p k V E F   ",
"  J C C P / / } [ R B G R [ U C Y ` / U | { { | +.| [ ..[ { _ T ! W U ^ ` ] } } ^ ! _ R T U W ~ ! / / ! L H G b v v l n S I S   ",
"  C D V Z ~ I W ! Y W Y / [ ^ Q W ^ ..o.[ ' { [ [ U R { .. .} { ( W _ _ | | } ( U T / W U U R R R R I I I H D x N C x M N B C   ",
"  b M S J I J W T U Q _ [ { / H R ^ } | ] [  .[ _ U / { ] } | ` _  .| { { { { / H P W E Y T ! ! Q U L M G U V M V B x p i h B   ",
"  x c S G H L H L R L U ( { ( Y H ~ ] [ ] ` ` ' ) ] | _ _ ] _ _ / [ | | } ) ' ` T W R I Y ~ _ ) ! P K B N U N B N D c j p q k   ",
"  b y h V g m D U R _ ^ ! Q ! ( D W } { { T S U I C ^ U ' } ) / ) ] ) _ ^ ( ^ / R ^ ! Y / _ { ] / T S x m S F B Z F L 3.2.B s   ",
"  j > z %.D p S Z U _ G J I ! _ I W / ` O./ J R Y H / ] ..o.^ W ^ ) ! P ~ / ^ { ! _ ( U / | [ ) ^ ! H c c b S M V H S W ' C j   ",
"  g + 4 M g s b v L ^ A ! [ ) [ ! P ( ) { [ { ( Q Q _ [ { X.} ! ~ ` _ ! ^ } } | Y R Q U T ! U / T L G n b M K A V D 6 < u y b   ",
"  z :   % < i s G E ~ P C / Z J G F ) } ] ( ! U E { | } ` _ | [ ~ _ [ _ / ) ] / J F I E W T ! ! H B C S N F J Z C A p @ * x A   ",
"  M d : @ w B S R ` } ! S L k C C D U ) ' ^ P D T / _ / W U Q Q T ) _ ~ ! / _ W J H K P R Q ! E I D M C C P Y H G S C k d A S   ",
"  n A l g N x C W ! ^ ! R L N P V D U U n V W ^ ] ] ! S J ^ ~ ! U ~ ] [ ` / / [ Q Q Q Q / ) Q E E H B B J E F A K F D S C N x   ",
"  C m x v p u b Z D Y ^ ) J G D c b R ! D G Q ' _ ~ T H U ^ _ ( ^ _ T L R Q ^ / W ! ) _ ( _ ! R E U P Y J J S D K c x C N C A   ",
"  S N 0 u a a k t a N b L G S K b g C V J W ~ / ( ^ W K S T P P G E U A U ! _ ] R J / ! T ~ Y E U H T I C S P K D x h k k N H   ",
"  B H z l k l z q p x g V H Z E A x N Z L H H R R [ | [ ! _ P P J L P U T R / / P L P K C C L I S B U S N F J R U F N b b B F   ",
"  M m j f k g u j M D m V F L ^ F k V A C v J E Y ] } o./ P P I U L Z S I D T ] L F U U C M U P K I Y H S K I E Q T E L v S G   ",
"  k p 0 a B x k p k b z B N B T C a A G F N G G Q [ T H S E ` G Z C J L E C I / U I Q P G H J L ~ W E Y G H G T R T ) R M S S   ",
"  u e 9 f A v f u f j N A N J J A g V V F K U W R _ V V V N S S G K ) W ! ! ) Q L I P V G R U R ^ U J ^ W L L I V D ( ! J K M   ",
"  a 5 1 9 y a d h l M C B M L b b x c V K S K H J Y H U J N M F G K U U / R ' [ P P ~ I G Q Q / ! V K ) R D C V k b R / J D N   ",
"  y 4 , 2 9 6 y c C S n M c n g g v k j H C S / ] G J ) ~ U U A x s k L Y W R R I P / Y D E E ~ Y S ) L R U Z M h x I G M C n   ",
"  7 = @ ; = , 8 g k v g f j H k V V s h V D I R ~ P S Q ^ G K ^ Q G B H I I U R A K / ^ U I U ! Q ! Q N [ ! G L T C b s i x M   ",
"  < $ x W 6 + q a u j f u b P k B Z b x Z D E L s H G _ { R G _ [ ! M G R T ( / L I ' { [ ~ T Q ( } / )  .H ~ Q W n P =.! u u   ",
"  ; * i ` G = d z k j j q 7 a w x k C c x V K U m C R [ { ^ _ ] [ D C Q [ / ` ` P U  .| | { ' [ _ ` ^ U | C ~ U C x ~ =.&.g 8   ",
"  6   * 2 > > q x v g a 9 7 a a x c B S V V U I U H U _ / ! ' ` { ~ R W _ _ / Y G W [ _ ` ( | o.| | ] ) | Q R F j s y 9 k 0 j   ",
"  6 #       : 7 z m j t r r g s a V D J D S L Y L H J ^ ! U Y L Q } U U ! J U F Y ( [ ' ) L S _ } | { _ ' Q L V b g r r g w c   ",
"o 2 8 % O 3 6 s M n j j c x b j a M V F S C S I J H ! / / ! n h C ! L W U D L A M T _ [ | ` ! / { _ ( W J H M x n c a w d p f   ",
"$ a 9 6 9 f c b C d 6 g B x x k u j r c A c k g 0 0 b F ! [ Y ! / ( E S U A k z x U ` { ] [ ^ Y _ ~ J M i t y g C N n q q u k   ",
"= M a z y j B V b H e 5 F c a s r t a l n C H L x 1 f S ' [ R E | [ ) R Y x H x y H [ } [ ] T ( [ U L h y H 9 r N K V m k g b   ",
"< b l A j x M j D ;.b   d z g a t a e c c M F $.K - = G ^ ~ U I | [ _ T L A #.C w S X.o.X.X.[ [ [ ( L f R _ r 7 x S M v b v D   ",
"4 b C b x m b l x W f   v b c j x a u b k k l C a + : m c P I H _ / S S D k x q > V ] { | ) L Q ^ Y V 0 b s 5 6 f B H S N Z U   ",
"7 M C B v x l M a 9 ; > b c d y y y M A C C A g 6 < u h S Z P R E ( L F N l u 7 e V ) W L Y P ^ ~ U K h 8 1 : x G v Z n x k b   ",
"e             = > + O +               X     X   + = * : ,     @ = - : > > 3 < < 3 8 2 % $ % & : < , - < , = 2 r r 8 0 8 & . X   ",
"u k j h u a p r 9 5 6 7 1 - +                                                                                   X O             "
};
