/* XPM */
static char *smoker_bottom[] = {
/* columns rows colors chars-per-pixel */
"64 64 89 1 ",
"  c #030302",
". c #0A0807",
"X c #0C0C0A",
"o c #100F0D",
"O c #12110E",
"+ c #151413",
"@ c #181715",
"# c #1A1917",
"$ c #1D1C1B",
"% c #201F1C",
"& c #22211F",
"* c #252423",
"= c #282725",
"- c #2A2926",
"; c #2D2C2A",
": c #312F26",
"> c #312E2B",
", c #34312E",
"< c #38342F",
"1 c #353432",
"2 c #393633",
"3 c #3C3935",
"4 c #3D3C3A",
"5 c #413C37",
"6 c #413E3A",
"7 c #44413D",
"8 c #49443E",
"9 c #4C483F",
"0 c #454442",
"q c #4A4642",
"w c #4C4945",
"e c #4D4C4A",
"r c #514C46",
"t c #524E4A",
"y c #54514C",
"u c #59544D",
"i c #5C594F",
"p c #555452",
"a c #5A5652",
"s c #5D5954",
"d c #5D5C5A",
"f c #61574B",
"g c #605A4D",
"h c #625C55",
"j c #685E56",
"k c #615E5A",
"l c #646056",
"z c #696154",
"x c #64615C",
"c c #6A645C",
"v c #6D685E",
"b c #656362",
"n c #6A6662",
"m c #6C6964",
"M c #6D6C6A",
"N c #726C64",
"B c #716E6B",
"V c #767166",
"C c #787267",
"Z c #74716D",
"A c #7B746C",
"S c #7E786E",
"D c #757472",
"F c #797673",
"G c #7B7975",
"H c #7D7C7A",
"J c #81756B",
"K c #827A6E",
"L c #807770",
"P c #837C73",
"I c #8A7F75",
"U c #817E7B",
"Y c #858175",
"T c #8A8175",
"R c #84817D",
"E c #8B847B",
"W c #91897E",
"Q c #868583",
"! c #8A8783",
"~ c #8C8A85",
"^ c #8D8C8A",
"/ c #938B82",
"( c #998E84",
") c #948F8B",
"_ c #9A9387",
"` c #93918E",
"' c #949291",
"] c #9B9994",
"[ c #9C9B9A",
/* pixels */
",11<2222*,3666337677qrthtw>@99qqw8wyw7e00t00ewwq706331222;2<;;12",
"122>,22**46003110000wrtuta4*q79wrrwwueq0-qtweept0q6603651-2>>>>1",
"1122263+-00q64407wq0tyyyuu03tywyhsuwype0-tpewedt0q460036322,,>2,",
">>22236#=qr0440q7rqtyuauuyt0uiuwpyuywypy0r8tttdt4767w7162>,>2>>>",
"2223536*#qq6666rwwwyruywtew>auyyttpasuks4@#=124;3,11=;*&*>:252>>",
"12<2335>.*7tq670w5qquyu7ruy2rshsuuraiha-X2ay0>>3e3%#$**&*-,<33<>",
",235665;o.26776q70e0ukuyuy7=sckurrwue4,=6hxase000q6=+X   %<<62<>",
"2<55776;#o@:<08re0420yeu44&&2wyewy6<#;acbksahpddqtyt7=#*@=>5652<",
"2366763=$**%#%>,7;$o X=>=7u07pye-120&4kkkkksdpdyrpuup1=>;&;64622",
"2336601&*;2>;*$%&$&4ypdyamMMZZNmdaw21euhdbNhdddpakhutq-57=1162><",
"6431-%1,40qrqe>++$yxkxkbnMZZMnBANmmxwwahdnnbxdsyadhp05&7q1&;1;,3",
"2,*-20q76qtuuas0$ddnxdbnxBMbchcmjksnhehhbbbs021-2e2-wr867w742,,*",
"%&=7weeptt0tuakd-ldpkMxswxMxmMNZmxnd;2ncjw30yakaru0wypr7q855654=",
"*&6eywwdewepsaap-dadpabxdxnMxASAk3t2&1jhe0dkkxbxah0ryt08r65<22,3",
"--6qwwpdetbbkjkd2dpDMdaMUmmHDARHkedake230mnnlt04>-1tyfruy65-,5<5",
"1,0yetpdttbbhhha0pbdddxvmBBFQQ!DbBNnMmncaw26==32wq>puurr98r665,5",
"1;0weppptddbbdckwpMmddmNnFADZ!`!nZFLHBmMAb044eppft%rwrwrr6868q55",
";;6qepppakdkbcna1tbMFHGFFGDFZ^]EnGJADBMMPFs11hdadr8>awr6686666<5",
">*10q0qewpdbbkdke=0ddAAmDMVGDB'GdPBBHDMDFZb=*djbkhh6hy6568555<<5",
";@,7q6qrtybbnnMbd6>#XO+&==7adnNwpBnbdpde07,==-wNmcjeyy66r86r655<",
"$#qtappaaakbkNkdis2=<237rxhu07tsct62w4e0004403ennccn08q5747222>%",
"*o-0etpakkdjhcks5r;4NcMAC^'GbyedbAA6$-;;;;*;=-kbNncby-56641,;=*%",
";=@%47qtkdnBcknd&5;eMHRG!QDMVYKFNBFAd>$. .  @sjBNcbkc265162652<<",
"6604414wrakcnkke351dVVHRHHFUHH``FJEGDmd444;1ynjccmjkbt5660y8<55<",
"r6ryppry614aspq0z8%yxZGQZ^QQ!H`RLP!UW/N<t0en6jjbjmhhju$#>epe0444",
"8ryyethhxk01eu012,2dxMHQDHHU^Q`~~~RTITAephm62nNchjcnbd*Xqre00056",
"rrrrpdddkbe0ebmNmy0dxAFGHRFQ^~!EQUUPINBp0wr=>6asapppy,1;8teee742",
"r0qrppddjbe0sBBBNm0dlnZF^QQQE^PKNVAAAcAs26hkeeaba-anDt1>eappy725",
"68epddpdn000jbMnAAelaxmxG`~Q!WEEKAmccmN8-B'~QQQ^!ukBDh1wpbdpw665",
"7wepddpdkde0kbBNmx&elxccNSP!PA__NmNvNxc0*Q'''QHQ'bpbka>;4pew7666",
"76epppddajeehcmMd2$0lcsmcvSENA~HNAGcmCm;p)'QGMjNGjpptqre40006676",
"67qwpaddjppwskmd27-0DMNPPYCVSKVMnpbnMs0dBBQDnMBAZn1khyapr6787855",
"06770eupde0whmm5pp0004ynPDpty1&;467encVDvlmZbcDMDc,ebdppp64473<5",
";=-22>42770ypuw<wAFZNFEYBNVlMbbk0EW~)UJZRGxGHmmHHlpdybddspr0,-*&",
"355qw7wuddmmxbv1dSFGH^'RY[]'R~PTp/YU/HZNGRmBQHZRGxpedxipipywq,;&",
"37eeepdpddmxbnc,xUHUHR!YG``QEE(]xE~UBNNAxmFBHHHQRdeeelprwt8q6<,&",
"1750tpssdllckda;lBZDRRQGRQQ^^U/WpK!~EmFPBZDBnnGRGsyyuppsyyq04-2;",
"-356wtysdukllla1snmZGGDURHQQQTTL3kFG~QUZGGGBliGUPts94sxsiqw75=23",
"<232qqwatrcbcar,7mmcxAGCZFQQQI!Ps;tmhanhcZmnxcmRFw0@4nxywq9w6-47",
"*2<,7wquyhhcld5,;xxxcAAZAQQQQ^QFmw2&O++%&=;0ddivr1,17te741;-%#$%",
";6277377t7we0>+=4BMQHDDnZDGGDGDncN7>,4136tyrw430wqw1,,1;1>;1-*=-",
";5-2460444,2;;;=+nnnZDFDGDMMCbBcys,3iVmBvVRUxpw0etae6%#==--*&**&",
"262>2,1300030q2==+etcUDFGHGMNDHp:9,7NQRGSHHBdbpperwptq*o.      #",
"5072535eastehhchsw072dmMZUGBBmZq<33pxMDHFFMdxbnDBdtkxyrq1*@*#+$1",
"177===,ebpeyhysydMbbcde3edxNNNbel7&ecnBDMmZMBbbbmxuxkxxp4$>;*441",
"212=X.0wppydbpyusnMnxbxks00py010u3*ecnnDGmGbbDbMbsbbdchne;1,141;",
"q6<2$$q0eepkbausssdxxxxmcpe>hNx6<<7plsnbZmndMDbbbxbbkhfuq;,30wy0",
"7477,=0weepdpyyapypdbmcbspa0hcvclx4pddsbnZbdbbbbbdddscuqt1=66q06",
"00004&4epppdywtyeypdddsxhp0egahhNN0yusdxbDnMMbbpyqtsdttwt;$q0667",
"74408-0pedpureerpdkdbslkew7iihcukx7eshdlknBMnkpyyrrypyw3w*@76767",
"22404$40eeeyypwysdpdssauyy3hgrusyu+2ulsthhahkattywqypw040=o36q66",
"3336>*4400ew7ee0epwyuslhhp7asiuqe;#1ulhthttakaeeyurye00q4#;06665",
"2333,$>47q0000005qquruyqyuwwhhr7-3=2pdhphhuhhatt00244001&*77r65<",
"231-+$013778r99457wqqit498wwurq2q711414ttat272*O+#$$&-$$=-475:35",
"**%%$o104,-;-&-;-20240274287y023qwr4=*$=;;&#*>>>2q4=;=*=02;;,,-=",
",;,1-&+;3308865732:,>20eyurquyrryry7;#X .  3pdaauuw-1e04071=;*;,",
"341453604>440eee70;:=wrrqrq7hadbyyxst5;;>*qddypppq0;,w*-qr6-==22",
"3141370ee040>;331;5;$7q078ruyppdusssly;41qdyr0ettwe&;*$-766-.$<2",
"1444,340000e71-674,->w75qrrryytppsshfa41rp0wqwqe714#;76&5215+;><",
"241112134e0081-47584-0878rqqyytw0eeyww0*0w0etrte6q4o;3%#>211=>22",
">11;;140047q1=142278q2;8rqr8q31=*=*$===$0qww034341*&%=2>;,-=#=1,",
"2>2;11440461;0q07040yqq83*>&%>>55052,=&#11%+#$&-10w65225<2>>=-=;",
"11>,>>13112247066077qwrwr0;;55377qw070>&4;144t8q80q422>522*>->1>",
">;;1,1>1&>1376747724qw8qyq-%5:,577200044qptwwqr6q66422232>4<>>;>"
};
