/* XPM */
static char *stone_bricks[] = {
/* columns rows colors chars-per-pixel */
"64 64 119 2 ",
"   c #271D17",
".  c #281D16",
"X  c #271F18",
"o  c #291F18",
"O  c #2C231B",
"+  c #2F281E",
"@  c #31271D",
"#  c #31281F",
"$  c #2E2721",
"%  c #342C24",
"&  c #382E26",
"*  c #372F29",
"=  c #382F29",
"-  c #393027",
";  c #37312A",
":  c #3C332B",
">  c #3C3631",
",  c #3F3832",
"<  c #40362E",
"1  c #42392F",
"2  c #423730",
"3  c #443B34",
"4  c #483E35",
"5  c #463E38",
"6  c #493F3A",
"7  c #474137",
"8  c #4B4136",
"9  c #4C433B",
"0  c #50463D",
"q  c #54493F",
"w  c #4F4842",
"e  c #504740",
"r  c #554C44",
"t  c #584E45",
"y  c #574F48",
"u  c #5B5147",
"i  c #57504A",
"p  c #5C544C",
"a  c #5F594F",
"s  c #5F5951",
"d  c #61564C",
"f  c #64594F",
"g  c #685C4F",
"h  c #635751",
"j  c #655B52",
"k  c #6A5E54",
"l  c #675E58",
"z  c #685F58",
"x  c #6C6156",
"c  c #6D635A",
"v  c #6F695C",
"b  c #706257",
"n  c #72665C",
"m  c #75695E",
"M  c #786A5F",
"N  c #716760",
"B  c #766B61",
"V  c #7A6D63",
"C  c #7C6F69",
"Z  c #777065",
"A  c #7D7165",
"S  c #7E7369",
"D  c #817366",
"F  c #82756A",
"G  c #88776D",
"H  c #85796D",
"J  c #897B6E",
"K  c #847770",
"L  c #887770",
"P  c #867B71",
"I  c #8B7D72",
"U  c #877D79",
"Y  c #8A7F78",
"T  c #878071",
"R  c #8D8174",
"E  c #8E847A",
"W  c #928375",
"Q  c #928977",
"!  c #93867A",
"~  c #99877A",
"^  c #95897C",
"/  c #998C7E",
"(  c #9C907F",
")  c #938780",
"_  c #968C81",
"`  c #9B8E82",
"'  c #968E89",
"]  c #9D9184",
"[  c #9E9489",
"{  c #A08F82",
"}  c #A19386",
"|  c #A39887",
" . c #A2968A",
".. c #A5998C",
"X. c #A99B8E",
"o. c #A29690",
"O. c #A59C91",
"+. c #AA9E93",
"@. c #A69F98",
"#. c #A6A091",
"$. c #ADA295",
"%. c #ADA39A",
"&. c #B1A497",
"*. c #B1A69B",
"=. c #B4A99D",
"-. c #B9AD9F",
";. c #B2A6A0",
":. c #B5ACA2",
">. c #B8AEA3",
",. c #BBB1A6",
"<. c #BCB3AA",
"1. c #BFB8AE",
"2. c #C1B8AE",
"3. c #C4BCB3",
"4. c #C7BFB8",
"5. c #C8BFB8",
"6. c #CAC1BA",
"7. c #CEC7C1",
"8. c #D0C7C1",
/* pixels */
"j d 6 : 4 c V m 9 8 9 3 - 6 < 5 : % - : 3 : - : : : , : : : & o O O @ O @ : ; ; - , 7 : ; ; % A 3 , - + : $ = = % = * & : 2 3 p ",
"2.] ` O.O...+.$.:.] ..4.:.6.+. .%...] } ,.<.} ] X...[ $... .@.t } I F c W :. .] #.O.Z P ] %.*.<.&.*.6.<.<. ._  ...+. ./ / ` x & ",
"=. ._ :.:.%.( ]  .X./ 1.3.4.+.` $...} R Q ( ( R ^ [ A x ^ | &.j <...} W W $.*.$.#. .G S [ H ( &.&._ 1.3.1.O.` @.$.` ` } ] ` J z ",
"! ] +.%.%.] I } ` $./ ` X.O.^ +.X.X.} ( ~ R ] $.$.$.^ J Z ~ B k $.=.-.:.1.$.E i c ` %.=...^ ^ ( %.F F ..+.` V R _ +./  .F P S r ",
"l V >.<.<.>.<.@.=.` *.%.` ^  .$...] .. .....^  .^ / R H T %.S F ` +.{ X.+.@.+.I ' .. . .>.$.$.' ~ Q V N | &.E P P F H ` m c c e ",
"_ G  .*.%.%.&./ L J I } +...~ ~ R ] ..( H H F A ^ F Z B M .._ a k D N z N ^ X.$.>. ./ ' ` ` ` o.! ` ' ` Y  . .=.I v c E D k j - ",
" .O.%. . .@.%.,.+.@.`  .>.%.[ @...^ F Q J W J R ^ Z H H A A E a N J Q Y +.@.~ ] %.$.E R _ R ^ [ O.L A E P L ] ` R c Z K Z N d : ",
"@.+. .%.%.>.! _ I V F W '  .O...^ R ~ / R J Z H E H H B S J D a V h V ] }  .A F G `  ._  .` I ! ` ) N R ! E H H I N E S N j x 3 ",
"<.O.] R m ~ +. ...>. .] %.=.I A k J R  .F V A D P H _ H v D I j F C G _ ^ V B F P P Y ~ Q ~ ] %.:.[ P ^ D m F E G V T F p a x 8 ",
":.%...] ` G Y _ &.] ^ ]  .*.] ^ W I J H V n n J J E _ E S W Z j `  ./ ! V A K N G C K !  ._ ] ] ` _  .) c V m P N A B f f c j e ",
"` ] Q } ~ _ ^ ! ../ L R W ~ J ..} I Q H N m R T T E H M Q ^ m j ^ R G ^ `  .[ ..^ J V F J E ~ V ~ s s c j x c n f j r j x x f 3 ",
"I [ ` ~ R R c S F N F J / / { X.] W O.P R ^ ~ F T H M B J / j i F D H R O...Q ..` S P ! ^ ! H ..R Y S k c V S G H ^ x x m B j % ",
"&. .O. .J E F c D F M A ^ ^ ^ ~ ` W ` R n J ] W I Q V I J J j 9 F H / ] A J / W M 3 ; c m _ T Q I Y _ _ R F A R E } x x m F y : ",
"$...V I ..E D C A D A m R ^  .R L ] ` I D J J J B D J J S P j 7 A A  .~ Q D H R Z x u r r x A D S S ) R I A P J A W m R V Q p * ",
"$...[ M A F B m F M x M m j A W ^ ` ] R H ^ J T ..P I J H c q - u b R F H P c T J x A n Z D A Z Z E [ ^ ' Y P H J I W ^ Y A u 1 ",
"( E A Q R m N m j n V F D A A F F W Q _ A D H Q Q ^ P c e e 8 : r d d x m S v Z A n n x v M m v w x E B F K B S c x a j j u 1 O ",
"3 : - 1 7 7 3 9 4 2 a 9 < : 2 2 5 2 , - % % $ : % + - ; + + @ % 0 8 7 0 5 6 3 4 7 : : 2 2 2 6 * : 9 9 5 e e 9 p q 2 % O % & = : ",
"( R [ $.$.( ^ Q Y _  .X.=.F 8 O j *.A S ` ] / B H T a a v R J H R | X.T / $.+.`  .` ~ ^ ] L 2 % > V E [ +.+.+.+.:.<.=.I R ]  . .",
"[ T R T / W H ` ~ Q V ~ I ~ D @ v ( $.%.#. .+.^ | $.( H Q ^ ! / / / ( [  .} R _ ` / n F  .} S % c Y !  . .+./ | :.$.$.:.! ^  .;.",
"T S Z S V A H I W A D W ~ | V * H [ O.R ! ^ [ R #.[ #.[ E J ! T J J E ^ ] W L F N V L V R R %.k n C ^ ]  ./ | $.O.~ W I P E Q L ",
"T D H Z F J V D Y S F D C ^ R 2 *.] ] J _ ..&.[ $.] / .. .^ | / W ^ ^ ! R Y m V J N F H I E O.6 c F W H ~ ] ..] ......] R J I H ",
"m A Z T B F _ ]  .! L N c N I < ^ ^ ] / ^ ^ Q ] ] +.E ^ %.~ ^ ] | .._ R F ^ Q G ~ I V I H A  .9 O.` D H W / } W R W ! W ~ R ~ R ",
"T A H ] _ ! ~ ~ E G D I A j D * ] [ ^ R J ^ D W W Q C F ! J W }  .R S E I ^ R D L F F W G K +.8 &.| ] W ~ J } ..^ W / ] Q D H ^ ",
"Q T T [ ] E H I Q Q I F n p m $ Z D D Z H ( J ]  .L F o.` ^ I M Q E A I H m J W R F F m m ^ ] 7 ` ] ' [ ..X.~ R ! ..$.[ ' ..Q / ",
"Q ( v ^ T T H ^ Q F I R n d F 3 } J Z H ( ^ [ [ | [ [ D ~ +.~ ~ ]  .! / F k m b n m l l c R ..: I W I F } } ` J H ....[ ..+.^ Q ",
"S T H S Z S T ( J J L J b b N % | | ^ E _ / R H ! J H R I &.&.&.` ~ / D N c V L n I H A k V D 1 R I / ` W R ^ [ O./ J T ^ J Q n ",
"A V H Z S S R E T W I / V j a $ ( Q ] ] / V Q L I P N I ` I / | J W J n F c S F V I D J I I D 9 =.] ` =...V x / ..^ E R H } ..W ",
"/ J J V E ^ Q ] ~ / W m c n j + R T [ / ` ' ) _ H P T R /  ./ / H B D B S V F [ ^ D A J J H n 3 ] R H  ...] W W W n M T ~ / Q ..",
"H A x x H S H / E / J n x V r o E n S H B V J ! ' R P P R I S V V S A A B F I ^ H M V J J F V 3 I H / / ^ _ ~ A x A M D D W J ~ ",
"N R A c x A S J M A M N x m q % / n n m S S V W R G A k J F N c E R T V P ' _ Q D D M A J A V 7 ` H I ~ Q / ~ A M H n M R F H M ",
"Z H Q Z s x c l j a i a r , : O f ~ P N P E Y V S P I P n c c m R A N F K ! P L D D M b m Z x 7 A I A A ! Q H ( W x g b m A D A ",
"m D T k i j j w r i r p r 2 = O 8 A A S F F ` %.%.%.' J R ! Y H V R H c !  .] ` R E J D B x 1 : e n D L S x M D D M m m m D H F ",
"3 q p q 6 3 > 3 > > r j d 3 < - # 8 q x b n B j u u i r r y e - 8 j p p p g n c u u 4 2 e 6 2 r r 3 4 t p t r 0 r x D g q 1 O + ",
"M +.:.&./ L ! W _ W  .+.~ >.{ I ~ ( X.2.<.-.7.,.$.>.-./ R x 8 7 j ' 7.3...`  .$.F I ! I X.&.` &.+./ +.,.$.( ~ / $.&.( W } D e @ ",
"I { ' ^ / ! / ] ^  . .&.+.~ } D J ~ X.&.| +.>.=...+.} S H M T q *.<.1.%...] ~ +.| ! | +.D V Y *.X.` ~ ! ] W R R ( X.J I R / R - ",
"G J V L ~ F J J I ^ X.>.@.! W / D J W | | $.../ } ( ] E ! ....m >.,. . .O.| X...&.| ~ W L C G I ^ I V J J J W J / J D T J } Q 1 ",
"&.+.} I W W J F I } =.+.! ~ ~ ~ J D D D _ } ! V M b H Q J | X.M &...` ] ] ] &.W | &.( W W W W J W A T I R W E / W V A G H / Q 7 ",
"$.+.| } W I ~ ~ ~ +.&.~  .` ~ } | X.( ( E ] ^ E J m m T J ^ +.D :.~ ~ J ^ / } ~ J T / W J / ] ] M m A A A J } / ] H S R J R R : ",
"&.I ~ / ..` ` } ] L G ` ` ` / | X.~ } +.! ! I H J n m m n H J n ..I J L Q ~ } / ~ H ^ ^ W J ]  .^ J A  .} $.O...&.] A R D m Q 7 ",
":.:.<.|  .} ~ ` X.:.$.=.&.| / ~ } / ~ } ] I n V T F T B F ] W x / [ F )  .$.} } W } } } ^ W Q ] ^ E n ~ ] _ H J R A A A A N E 7 ",
"=.X.+.X.} ] ` ` X...| $.+.| } / } } ^ ..R D S I T S R A M W } b ^ / E ^ W ^ W Q W ....| / Q ~ ] ] +.^ b m J C _ J n k D d g G 2 ",
"_ +.*.` F ~ / ` X./  . .&.X.*.X. .} ^ J P F A L x M F M A H ^ j ] } / } H R ] E ( ~ I Q [ ! ..X.` } } J b V G E F A D D k f M @ ",
"X.+.5.>...../ { ] / I  .~ { :.+.] ^ W H H N A H B D f x D F J r ~ ^ ] } } ] ] / | I V W W ~ / } ` / I G C V G V M D J J G D z = ",
"&.>.>.>.$.%.] ! ' ] G ] ` } / | ..] ^ M n V R W D H D n M J E r } ` } +.#.[ ` } ` R M J I } ] W ~ R  .I G Y E W ~ F D D b b h % ",
"=.*.2.<.@... .W V E ^ X./ ( T / W F Q A x m R R c J H m V G D 0 H J ] &.,.+...` D m V F A ! Y / F F N m b R  .` I Y D d d b f & ",
"=.=.&...J F W R H D ^ / W T J n M D J M n H J V f A ~ A ~ B f 6 Q D / | $.~ $._ x n A V V P m k V P N H Y S F I G I V b b b u @ ",
"/  ./ ..R ] E F V D J I ~ M M A D T T G H V B S ~ ] ` Y W N c r D A D D L W A ] ` W ` R A B F p x R I F V F C p p b d x g 0 3 @ ",
"V c V W ~ ^ ~ F I ~ J W | I m J V n B J I V n B R ` W Y S V f = 4 g D E F m A J W I E Y P H A m c H ~ J K F L F b d d t t : @ . ",
"6 < % 4 r t g d u g m u 4 2 o $ : - : , : % - 3 1 : : < < 4 4 : q 3 4 9 e 8 r e 7 2 3 7 9 3 - - 9 y h c b z C Y C s 9 4 6 6 % 4 ",
"@.+.` G Y ` / X.=. . . .G z 1 o 9 c B j j N T *.=.&.4.,.,.8.5.+. .&.-.,...+.` } :.<.+.O.` E 9 7 r ! ] ] ~ I ~ ! ) _ L @.,.=.}  .",
"` G F I L D D @.;.+.! { } { G O F A ^ $.! O.$._ } / <.2.+.<.,.+.}  .&.} R @._ =.<.3...:.~ ^ ` 9 :.>...X.{ _ @.&. . .O. .I ~ ! Y ",
") Y n m F C F Q ~ G I Y F G F 1 &...$.] ] / ] H / $.&.,.+.^ ! ]  .` /  .` ~ Q W ] _ ^ ^  .^ %.G +.X...| X.Y G F G S V S c N ! ! ",
"! V m V Y I I G J m Y E F Q Y 2 } ` ^ G X.|  .` ( -.$.-.2.>.+. .X. .V W F E  .O. .^ / [ [ ] $.t 5.<.{ _ ` / [ )  .[ / W F V I { ",
"F V J H D J W ! I G W Y H ! I % N c c A I ~  .| } +.,.$.Q O.o.^  . .Y N D F Y ^ / I F E I V O.e X.} ` _ L G ] Q '  . .W I ^ ! I ",
"L D N Y ~ W ^ J W Y L ] ` Y _ : / } R F ! ! @.} M D ~ =. .[ ` G ! _ G G F F D D / ` I ! E !  .9 +.V C ^ ^ P _ *.+.) ^ I Y V F _ ",
"! F G W ^ R D H J F ! ~ F n G = / J J J G D I } | >.$.=.+.o.+.` ~ L D F N N b J R I I A H _ ..8 +.+.n V ]  .I / Y ] ~ ` V F D Y ",
"k m E ] I R Y [ W D / / b h N = J R W J [ T R ] W $.<.:.Q F O.O.Q ~ ^  .V j m F A V H V C R O.9 2.:._ U R _ R S F  ._ ! z F S V ",
"Q A } J H I I ] Q J / I V C R % &.! F ~ | W F E _ J Q O.1.O.$.O.` _ ] _ Y V m J k Y F N E ! E r +.+. .{ _ ]  .H I F C P  .! P V ",
" .` [ S S P Q ' Q ^ ! J c d p & } E W J ~ I / H J W F ^ %.>.<.,.*.~ G H G m m k c S V I E O._ e  .` _ } Q P / ..+.^ Y ! @.=.Q @.",
"../  .R V H [ _ ! / I m k x j @ ..W J x F / ` .._ ] ' E o.` I $.o.Y F N F N n F P E [ ' [ @.P 9 .. . .X. .} ] #.} ) J R ^ I L W ",
"J D M D L F Y R ! ] V n k m f & @.` ' ! F F R ` ] .. .E R Q Y ] P ) Q S C L ! [ ^ E ! ' ) K b i &.Y } +...^ [ ! H J P ^ Y F c A ",
"D m V F I E ! ) ' E n x k k t &  .I ~ J C N c P %.@.) F _ ) G m G _ P V H ^ E ) _ F N S U U ) s ] P W +.%.[ } W R V A R I D V c ",
"m S A S M m m V T E V m f q 5 : m ` R E E C V F E _ ! ' %.' ' R S F Y I E Q P [ ] G A N c m b r _ Q S E ..] Q ! E S S B V H c h ",
"V A V V V N m V A H J N F R 8 . 9 S A E S F Q ] ` ` E F H E _ F F A J c E ` _ ^ ..~ R H J z q 3 Y I } W _  .T S H H N V V R ) V "
};
