/* XPM */
static char * wall3_xpm[] = {
"20 20 3 1",
" 	c #FFFFFF",
".	c #7B7B7B",
"+	c #232323",
"              ...   ",
". ++++  . +++     ++",
"+++++++  +++++++++++",
"+++++++ ++++++++++ +",
"+++++++ ++++++++++++",
".+..+++++.++..+.....",
"+++++++ ++++++++++++",
"++++++++++++++++++++",
"+++...++.....++.+...",
"++++++++++++++++++++",
"++++++++++++++++++++",
"++++++++++++++++++++",
"++++++++++++++++++++",
"++++++++++++++++++++",
"++++++++++++++++++++",
"++++++++++++++++++++",
"++++++++++++++++++++",
"++++++++++++++++++++",
"++++++++  +++++++++ ",
" ++++++ .   ++++++ ."};
