/* XPM */
static char *red_sandstone[] = {
/* columns rows colors chars-per-pixel */
"64 64 133 2 ",
"   c #3C0400",
".  c #430500",
"X  c #430B00",
"o  c #4A0D00",
"O  c #560E00",
"+  c #5D0C00",
"@  c #4D1301",
"#  c #4E1C03",
"$  c #541401",
"%  c #5B1501",
"&  c #551A04",
"*  c #5B1B05",
"=  c #5B1E0A",
"-  c #621601",
";  c #6B1600",
":  c #631C05",
">  c #6B1B03",
",  c #631E09",
"<  c #751500",
"1  c #711E04",
"2  c #7D1F02",
"3  c #5D2007",
"4  c #5D210B",
"5  c #652007",
"6  c #6B2106",
"7  c #64230C",
"8  c #6B240C",
"9  c #672A0F",
"0  c #6D280E",
"q  c #752306",
"w  c #7C2305",
"e  c #72250C",
"r  c #7B260A",
"t  c #73290E",
"y  c #782A0E",
"u  c #642710",
"i  c #6B2610",
"p  c #652A12",
"a  c #6C2B12",
"s  c #722710",
"d  c #742C13",
"f  c #7A2D14",
"g  c #772F18",
"h  c #6E3015",
"j  c #6E3018",
"k  c #743116",
"l  c #7B3115",
"z  c #74351A",
"x  c #7C3419",
"c  c #76391C",
"v  c #7C3B1D",
"b  c #7D3E21",
"n  c #7E4122",
"m  c #832704",
"M  c #832C0F",
"N  c #822F13",
"B  c #823316",
"V  c #8A3317",
"C  c #8E3917",
"Z  c #83361A",
"A  c #89371B",
"S  c #853A1D",
"D  c #8B3A1D",
"F  c #963614",
"G  c #913D1E",
"H  c #843E20",
"J  c #8C3D21",
"K  c #923E21",
"L  c #8E401F",
"P  c #90411F",
"I  c #9F431E",
"U  c #A1421C",
"Y  c #854123",
"T  c #8C4324",
"R  c #874826",
"E  c #8C4927",
"W  c #8C4328",
"Q  c #8C4A29",
"!  c #944224",
"~  c #9A4526",
"^  c #944926",
"/  c #9C4826",
"(  c #954728",
")  c #9C4628",
"_  c #954A2A",
"`  c #9D4A2A",
"'  c #95512E",
"]  c #9A502D",
"[  c #9E4E30",
"{  c #9E5431",
"}  c #A24423",
"|  c #A14A27",
" . c #AC4A26",
".. c #A14729",
"X. c #A34C2C",
"o. c #A94E2E",
"O. c #A5502E",
"+. c #AB512F",
"@. c #B2522E",
"#. c #A54F30",
"$. c #A94F30",
"%. c #A55331",
"&. c #AC5332",
"*. c #A65936",
"=. c #AC5A36",
"-. c #AD5D39",
";. c #B35634",
":. c #B85735",
">. c #B55936",
",. c #BA5A36",
"<. c #B45738",
"1. c #B55B39",
"2. c #BB5C3A",
"3. c #B4603B",
"4. c #BE613D",
"5. c #B9683F",
"6. c #C05A37",
"7. c #C15F3C",
"8. c #C3613E",
"9. c #C9633F",
"0. c #BC6741",
"q. c #BF6840",
"w. c #C56341",
"e. c #CA6642",
"r. c #C66943",
"t. c #CC6945",
"y. c #CC6C4A",
"u. c #D16B45",
"i. c #D26D4A",
"p. c #D6724D",
"a. c #DB724D",
"s. c #D37250",
"d. c #E2764E",
/* pixels */
"l y B L t x ^ D L ^ +.^ L ^ L S T _ S S ^ D v H J J D J D T ~ _ ~ P ! | X.A ! ! B l t 8 B D g Z f t g f ^ D S x t x S S e f t y ",
"U  .2.7.8.w.:.@.8.8.@.,.t.8.w.e.t.t.i.7.y.p.t.t.t.y.y.t.i.e.,.6.9.@.U  .u.t. .U  .8.9.7.i.y.i.s.y.w.4.t.p.y.r.t.s.y.w.y.w.>.+.:.",
"0.2.,.8.2.2.o./ +.&.~ ~ e.:.o.>.;.X.2.8.w.w.w.7.;.>.$.X.o.X.G P ~ f r ~ :.o.B B P ~ / &.2.>.8.1.2.9.>.=.2.&.1.;.1.i.8.e.i.p.8.:.",
"B X.&.;.o.D G ~ ~ | | A ~ 9.~ ~ ~ ~ ~ ;.;.w.2.2.&...X.! X.+.~ B M e t G ! G A D s l X.~ _ ~ =.+.X.&.&.` _ l B X.! O.` 4.2.2.;.X.",
"V &.>.` +.~ P  .~ +.;.;.e :.2.~ D ! ! +.X.&.,.:.o.o.;./ &.:.X.G B A 6 8 ~ X.~ ~ A A O.1.! +.&.J ~ &.>.X.X.X.G S ! X.O.! A &.;.+.",
"m X.X.B A A : l B x ! A $ 8 ! A 5 6 : % , % * 8 f 8 D S f 0 t 5 $ : : o : B D B t Z 6 S , a D l 5 & l s t 8 l e $ 8 _ ( l t B D ",
"2 , 0 0 0 l v k 5 * 5 0 0 8 0 0 s f x Z d d t l t f & @ % , d 8 * % 5 d 8 = 0 l z t t = $ & k l d 0 0 8 , 8 5 0 8 , a 0 % $ 3 5 ",
"X.X.+.>.2.+.>.Z ^ +.| @.;.! X.+.O.+.2.>.+.+.+.;.>.;.%.t ! X.&.~ ~ X.~ &.&.! X.>.4.8.2.=.O.k X.X.! &.1.;.! O.&.O.! ! ;.3.&./ &.=.",
"w.2.O.>.8.7.e.x D :.~ ~ +.| G | +.o.,.2.+.+...X.:.+.7 A 8.X.G G +.+.X.~ _ ~ | X.&.2.+.:.&.8 &.e.) ` >.&.A S 2.2.>.D X.t.w.w.w.2.",
">.;.&.;.&.>.! % S 2.X.! G ` X.~ K ( :.2.8.6.~ X.&.X.@ l 9.+.A ~ >.;.&.| ~ X.X.| @.4.O.+.2., d ;.9.2.w.2.;.~ ~ 2.>.X.&.w.;.>.2.>.",
"2.%.O.;.X.X.s $ D 8.&.` o.+.X.! ! o.2.2.9.4.+.o./ :.4 0 +.O.! +...X.&.+.X.X.&.X.&.4.;.+.X.& % A K S &.8.2.2.2.&.X.e $ g &.=.;.&.",
"! ! D ( ! ! A $ 0 D ! x S x t 5 * , d 7 * 5 0 5 5 D 7 D | G X.;.+.X.` >.&.X.X.&.;.4.4.;.X.* o i x > $ D S d ( &.X.^ A A ~ ;.%.%.",
"* * $ : 8 8 f 0 a 8 , , , $ = * % , i 8 v 7 $ i T -.7 S ..D &.=.;.>.&.$.<.&.~ X.O.+.2.o.&.= & 7 4 = * & $ @ o @ $ 8 a , & & : * ",
"_ X.! X.$.<.;.<.2.t.;.2.i.w.2.2.X.K ;.&.X.X.#.;.8.r.d s o...o.X.X.%.) J ;.2.;.$.` O.=.&.:.l ( =.X.` X.` ~ J J S ~ X.$.K ) ) #.! ",
"Z #.X.X.$.#.#.%.&.1.&.#.<.<.w.w.&.J x f A ~ &.$.X.6.8 Z &.=.` 1.2.&.1.0.w.#.&.0.>.&.4.>.>.* S ;.#.$.1.<.&.<.<.;.=.X.X.$.$.#.;.S ",
"g <.$.) ..#.J K X.&.#.&.%.Z J &.$.K B D X.;.;.,.<...= ( X.o.~ X.&.2.! X.2.1.X.` e.2.X.4.&.& Z $.&.=.1.<.#.&.$.$.#.&.<.&.&.<.&.x ",
"% l g : > q r ; 6 q - q q 1 ; w w - % q M q > q I l X * : : % - o 7 i * 8 g d $ 8 z % * ^ @ o $ $ $ * i , , 5 * 5 8 l 7 $ $ $ @ ",
"k d l S S _ T L B l t t J J A G A G X.] _ / O.+.>.>.^ L B y ^ T Z x S l l z x g T Y d H r.S z f i u , * = & % 5 * & o , a a d k ",
"w.7.2.9.7.9.8.9.8.:.7.G X.+.D ..@.t.d.8.^ 9.p.9.o.e.e.7.o.~ :.e.t.7.u.7.7.8.e.,.X.e.a.t.8.>.t.>.~ <.w.&.;.1.8.8.8.2.2.t.a.=.&.t.",
"2.;.>.+.~ ~ _ ;.:.,.7.o.P } ~ C ~ &.t.^ O X.:.+.X.X.2.;.@.G V ! 8.8.7.9.:._ w.,.K G ;.7.X.&.w.:.$.,.7.;.;.2.2.;.@.:.2.e.p.a f 2.",
"| X.+.;.>.X.~ ~ P ~ X.+.&.:.+.X.&.! ;.S > K K D =.#.&.<.;.$.o.X.;.=.o.2.w.K o.w.2.&.o.;.>.&.8.2.o.;.1.X.) ;.X.| X.` X.O.2.$ : ~ ",
"D 2.1.:.2.2.>.&.;.2.` D X.o.! ` >.2.2.` 1 X.K X.7.w.7.e.7.#.! K 4.e.$.&.i.w.! X.J &.w.;.;.8.8.<.J #.w.2.X.&.&.X.` X.~ +.8.9 f X.",
"! / +.O.&.X.O.;.| +.u.! : e X.+.&.>.7.( % y Z A A s A J K ! B 8 ~ ! ! ~ K $.C ..G B S x A ` ;.+.D S 7.2.~ K g B A A X.;.9.h : A ",
";.+.| / :.&.| X.8._ X.8.+.T 6 ~ +.;.t.! : ` A A } J f N G ! ;.! o.X.f K X.;.,.o.,.o...o.2.:.~ ..} B A ..K X.:.A  .t D 8.9.* t D ",
"8 f f 5 , d 8 * * * X $ 7 7 % > > < G y   : o $ - : 8 6 q + > > ; r > 8 e 8 5 : 0 Z r ; 1 f g * & O . $ a 7 i $ * & $ d J @ = g ",
"d 0 x ^ ! S d = J T S Z D ( ` %.X.S A +.( ~ ~ l ^ ~ X...<.2.<.&.%.X.#.` O.1.%._ _ X.` ` [ ` = 5 0 H T J d 8 i i z S x v Z T z d ",
"..o.e.w.2.i A l X.e.2.2.;.;.t.e.8.+.C 8.8.8.t.;.&.e.:.D ,.7.w.r.w.w.7.e.+.w.t.+.X.2.t.i.p.w.d ! V A t.u.7.o.;.;.&.;.7.7.;.;.o.;.",
"6 f f t %   : * J e.e.9.$.;.2.8.:./ X.4.;.X.:.;.@.2.,.+.<.;.<.7.,.2.:.7.7.9.u.,.X.X.&.<.8.t.a 9 q o : i d 8 7 i 8 7 i a 7 5 , 7 ",
"^ ( ( ` [ [ #.H D ` X.&.&.K <.2.9.1.&.$.&.&.&...` ` X.2.w.2.<.7.2.` #.$.,.,.<.2.2.2.2.2.#.7.J J ( _ ^ T T J ( H Z J [ ` ` J J ( ",
"X.X.#.<.&.&.&.Z S X.$.=.;.X.X.&.>.7.:.;.X.K ! K ! ~ ` X.&.4.2.&.7.&.X.X.&.;.! ~ X.#.$.2.7.;.u ` $.;.;.<.$.&.<.` ~ $.&.&.X.! K X.",
"B J ` K K ! ;.d D >.X.&.;.$.X.` ! X.! X.X.) K ) X...$.&.&.&.7.<.2.w.X.) ) <.=.! ) &.$.<.e.e.o ` $.` ) X.$.) ) J J X.) ` ) A A K ",
"~ &.$.) #.=.2.d J 9.;.1.&.;.;.#.K X.=.$.;.$.#.) ! X.&.1.;.&.7.<.#.<.1.<.&.#.;.) Z #.&.&.1.>.& J ~ J J J ( K J ! S g D ! J H ! J ",
"% * > - % . % v o $ & $ X @ & $ X $ $ = , u 8 7 % u H d u $ % 7 d $ i & * p o @ & O & o o d S o - : % % o X $ c | $ . o % : $ $ ",
"A * 9 z S H ` r.' Y ^ H Y Y ` J b W H l b J J g g x s a z g g H H H x x %.[ u Y W W H b ( *.{ ( ` { S c c R ` -.q.T c v T Q S x ",
"y.%.<.e.8.2.7.:.;.&.;.;.<.2.7.&.>.X.$.$...$.:.<.2.w.2.;.w.7.8.7.;.2.8.2.t.w.1.r.7.K #.:.0.;.&.2.w.8.&.;.y.w.w.;.w.y.r.9.8.u.9.+.",
"u.Y =.w.2.w.2.;.:.;.( X.&.;.:.;.o.X.K #.) $.@.:.;.7.2.,.;.8.7.2.;.;.<.;.$.2.<.#.K B f J ) ) X.$.>.6.~ _ ;.;.:.;.>.2.:.;.2.,.2.+.",
";.e O.&.&.;.2.<.2.:.( X.;.&.X.$.! ) K K V ..$.;.$.$.<.:.$.$.;.$.$.$...$.K o.&...J s s s A J K ) X.;.o.A K o...K o.$.o.) +.$.;.X.",
"+.q %.&.X.X.<.#.~ X.! ` &.#.$.#.D K ..K J ..$.$.$.K X.;.;.X.$...) K K ..D J ;.o.K A f f Z K J A ! ;.6.~ A o.) N K ....K D ~ ;.X.",
">.B #.2.X.X.X.X.J J J ! X.` &.&.G K ..! K $.$.....J ....K } K ) ..K ....J f <.,...K K J J B A f D X.&...A o.X.A f A X.K f A X._ ",
"8.D K 7.2.<.:.:.=.%.X.#.;.X.:.;.} X.o.;.K ;.@.@.:.K } &.K $.....@.K ..@.X.A ) 6.@...$...X.V S Z D K $...) &.$.o.! B X.:.K B X.o.",
"_ = : D ! G ~ D K ! D Z D f Z A f N Z H f g f Z Z , 8 x Z x g s f 8 s H g 0 : d x d i s l 8 * $ 8 0 x l 0 f g l f : 8 S g : 0 f ",
"Y 7 7 l l f l l k l k 8 i 7 8 t i = 7 = & * & * , = = = 4 , u u i & = 7 4 * 7 = = = 4 = i 5 u 7 = 4 z a 9 a 9 4 , 7 7 8 8 7 @ 8 ",
"5.1.1.4.1.4.-.4.3.3.4.3.=.=.%.o.1.R H ` _ J ( [ #.*.[ _ _ ( [ #.%.J ( %.W z >.[ ( ( #.( %.%.%.4.c j 4.=.=.2.2.*.-.&.&.=.>.1.` 1.",
"u.u.e.9.9.t.e.4.9.e.e.9.2.,.;.&.i.R ) ,.<.$.$.:.<.:.<.#.<.$.#.;.<.$.$.2.( g :.$...) #.X.o.o.&.,.i 7 :.;.X.;.2.&.w.$.&.,.2.9.t.t.",
";.:.;.X.` &.;.X.~ o.&.o.X.X...X.2.= X.O...` K ..~ ! ) ! ( J J ! K K K K b i ` K ( Z J J J J ^ ` & h ! D J D A k =.X.X.>.&.X.&.;.",
"X.o.&.&.( ! X.;.~ K X...| ~ / / >.= 0 f d i 7 i 8 = , * @ @ $ & = & @ u j & = 4 4 = * & = 4 7 b * @ & o @ & o 4 &.;.X.+.;.` ..X.",
"O.X.~ &.~ B ~ ! ~ X.K ~ | X.I X.3.b Y b S S K A G ^ E L a c c c b b b %.0.*.-.0.1.-.{ ' _ Y %.t.*.! ' *.{ -.{ Y =.2.2.` &./ X.~ ",
"X./ ! D G f ~ ! G ! D X.X.X.O.O.9.E O.;.+.;.2.&.O.&.3._ = &.;.;.7.;.) [ K #.*.&.#.&.>.%.X.v T ;.` D T 4.&.X.&.E 2.) &.K X...X.~ ",
"| G ~ ~ | / P X.X.P P +.| :.2.+.r.7 X.+.+.O.;.+.~ G 1.] * A &.&.2.8.:.;.K K &.<.4.;.;.&.;.) $.:...S g ;.:.~ ( = 1.+.&.@./ O./ C ",
"G D B D S C l G ~ G A | ..X.+./ =.$ D X.X.| o.@.~ P 1.' d A X.~ X.| &.;.&.&.2.2.w.8.,.&.;.o.! ! X.o.$.9.7.,.! $ ` C / ] D / A P ",
" .O.:.:.3.@.| | |  .3.@.8.,.8.:.;.4 J &.O.+.O.,.;.| 4.n $ D X.` | ~ :.+.o.X.:.<.w.2.2.&.X.$.~ S ! +.~ 9.t.t.H & &.;.2.@.+.+.@.@.",
"L D Z D L D D Z C t A P  .O.O.U &.p 8 X.| ..~ X.o.P O.n 8 ) #.X.+.! X.+.X.| ;.$.:.8.:.o.o.:.#.A ! +.~ ( 2.8.[ R *.| O./ L L L t ",
"h k z a a h j p p 4 7 @ X & 4 z 1.R 4 z a k i u 7 i -.Y 5 ;.<.$.@.+.X.X...K A A B A D ! A ! X.g ! X.( K ;.,.d b _ 7 @ h k 5 a 9 ",
"L L ! P ^ H ` ` _ T ] _ # 3 ^ _ -.=._ %.[ _ W H ^ T 3.n . d K K g f g 9 u s x J ( ) / | S i A f d ~ x J #.6.@ z &.J n =.^ D ! ( ",
"P P / X.&.` X.;.7.o.+.d.b 8 8.:.X.#.~ &.2.&.&.+.$.$.X.Q @ , s Z i d D ! J J X.K J $.o.:.| S k v l J , g J X.X d @.X.3.u.X.@.+.~ ",
"! P ~ X.X.+.X.~ :.:.| y.z @ J S x x d s x g g d g Z H _ u = & u i u d Z g d d & X * 7 f f g * 7 u 7 $ u d ~ $ @ l a O.8.O.2./ T ",
"K T O.2.X.` &.o.X.>.+.9.h   p p a p p = a u , 7 p 7 Y =.' L c z z a 7 4 3 * 7 4 & 4 & 7 j v h a z c v T E %.H z Y z ' 8.;.&.( ! ",
"T ! +.>.` G ! ;.~ &.+.9.n 4 Y Y _ T H b _ _ ( ( ( Y O.;.4.8.>.&.%.{ &.` ( _ O.] / X.O.*.1.5.1.%.*.1.4.;.+.` &.%.2.=.4.8.&.` / ` ",
"X.` _ ~ J ~ ! X.X.:.;.9.` a ;.@.2.8.:.&.&.2.&.;.2.;.X.X._ +.;.:.&.o.:.6.9.7.:.7.:.:.2.8.8.2.2.2.;.@.o.| ! S K D ! X.u.8.;.X.X.O.",
"X.~ ~ ! e S ! _ +.o.:.e._ 5 ~ X.o.&.&.&.&.1.&.=.2.1.+.X.| O.X.;.X._ ~ ! o.:.o.X.+.+.O.&.` O.+.O.8.;.o.o.&.) A A A J e.2.+.| ~ _ ",
"D J D d 0 8 f J #.~ ! w.W , X.` :.X.&.~ ) =.X.X.=.;.&.X... .X.&.$.X.J e B +._ A K ` ` ~ B A ( K O.+.>.;.;.=.X.Z ! ~ 2.=.! ! S D ",
"T D J ! ( K Z D 1.#.J 6.b $ ) ~ ;.o.` S Z J ~ A D ! K K ~ ~ Z ! :.X.! 0 t ` +.X.^ ! ! ~ X.K B D / ;.&.:.;.&.;.J J ~ =.&._ X.T D ",
"q l A B ! V V f &.7.;.w.b X G N N K ~ G x Z S Z D A J ` ..K i f K ..X.K A ;.:.;.X.A t q Z B f > f ! e B J K A J f Z %.;.<.;.G G ",
"& l l q C V > N e r A w.T $ , : $ * > t D l 0 e 6 > - r V G r r 1 N M t > t e e 6 B V f f f 8 0 d B T D ` &.^ _ ` #.y.&.V m F F "
};
