/* XPM */
static char *sandstone[] = {
/* columns rows colors chars-per-pixel */
"64 64 126 2 ",
"   c #5B411E",
".  c #604621",
"X  c #644A25",
"o  c #694E28",
"O  c #6C5129",
"+  c #74562C",
"@  c #75592D",
"#  c #7B5E2E",
"$  c #735731",
"%  c #745C33",
"&  c #7C5E32",
"*  c #776037",
"=  c #7E6134",
"-  c #7D6339",
";  c #805F36",
":  c #86662E",
">  c #836536",
",  c #856936",
"<  c #8A6A36",
"1  c #83663A",
"2  c #88673A",
"3  c #866A3B",
"4  c #8A6B3C",
"5  c #916E3C",
"6  c #8D713D",
"7  c #92723E",
"8  c #9B763F",
"9  c #97783E",
"0  c #9A783F",
"q  c #856B45",
"w  c #8A6D42",
"e  c #906E41",
"r  c #8D7243",
"t  c #8E754B",
"y  c #947443",
"u  c #997644",
"i  c #967945",
"p  c #9B7B45",
"a  c #957649",
"s  c #997648",
"d  c #967A4B",
"f  c #9C7D4B",
"g  c #907550",
"h  c #957C53",
"j  c #9C7E51",
"k  c #977F5B",
"l  c #A27F43",
"z  c #A17F4B",
"x  c #A07F50",
"c  c #9E814D",
"v  c #978157",
"b  c #9E8153",
"n  c #97805B",
"m  c #9D845B",
"M  c #A58347",
"N  c #A2824C",
"B  c #A8864D",
"V  c #A7884B",
"C  c #A9894C",
"Z  c #A38453",
"A  c #A88754",
"S  c #A68956",
"D  c #AA8A55",
"F  c #A3865A",
"G  c #A58A5B",
"H  c #AA8C5C",
"J  c #B08E55",
"K  c #B08D5B",
"L  c #AF9054",
"P  c #AD915E",
"I  c #B19054",
"U  c #B1925D",
"Y  c #9E8660",
"T  c #9E8861",
"R  c #A38761",
"E  c #A58C62",
"W  c #AA8D61",
"Q  c #B08E61",
"!  c #A79067",
"~  c #AD9263",
"^  c #A7906A",
"/  c #AD936A",
"(  c #AF986E",
")  c #B29464",
"_  c #B49966",
"`  c #B99A65",
"'  c #B2966A",
"]  c #B59A6B",
"[  c #BA9D6C",
"{  c #B19770",
"}  c #B59D72",
"|  c #B99E72",
" . c #B7A06D",
".. c #BAA16D",
"X. c #B7A074",
"o. c #BBA274",
"O. c #BFA977",
"+. c #B7A179",
"@. c #BDA57B",
"#. c #BFA97D",
"$. c #C1A677",
"%. c #C1A77C",
"&. c #C2AA7D",
"*. c #BFA981",
"=. c #C0A780",
"-. c #C3AC82",
";. c #C9AE83",
":. c #C4AE89",
">. c #C6B084",
",. c #C9B285",
"<. c #C6B189",
"1. c #CAB48B",
"2. c #CDB88D",
"3. c #D0BB8E",
"4. c #CBB691",
"5. c #CDBA94",
"6. c #CEBD99",
"7. c #D1BD94",
"8. c #D1BE9A",
"9. c #D3C096",
"0. c #D4C29D",
"q. c #D5C6A4",
"w. c #D9C9A6",
"e. c #D6C5A9",
"r. c #D6C8AB",
"t. c #D8C9A8",
/* pixels */
"a d f f j f W | ' %.H Z j > w ] ;.6.@.G h @ r 3 d d m X.*.*.*.:.*.( +.-.~ F G b Q Z x W / ' W -.%.@.%.%.W $ F @.r G } o.} b f w ",
"= 4 2 y x x W j Z F W H ) G H i S G j W G f 3 4 t i 3 t E 0.} m t c > @ > t q 2 2 s x Z F Z j Z f f Z x Z ~ H ~ _ P P H f c b c ",
"& ; e w 2 1 ; & 4 2 > y s f y 7 y , i 4 a - 3 3 y c c ( 5.5.s a y b r 4 2 4 5 y y 2 4 y 2 5 4 f w b & u y 3 Z A y i ) P b ~ y > ",
"e > + ; 4 e y a y y y y f s 7 < 7 i f 3 > r 3 w c c d d #.<.c f > s y u u s z u u a e y 7 5 5 2 y y a y 4 y j j 4 b H Z G s a 4 ",
"a ; w w s e w 4 s f x Z x y f Z f d c y b i c y r f b Z :.<.4 y w a x H H x Z z a f F b b f s f y b c b b f j j x h j A s c f 4 ",
"x W x e e x x W R j Z Z f s s y Z G c Z c Z Z r i S Z H 7.1.> y f Z H H x H x z c b F W / ' v S m H b m c b x f W j x j H Z x S ",
"x G s s z 8 s s y y w f h x Z d b S f A Z 7 A S Z b P } t.;.u u Z Z H ) H A F A S m G G H d v v R E E G Z Z y f A j F H H A e e ",
"x G G u ; ; 4 w w f s j x f j h b ! ~ N D y f 7 A _ _ %.q.%.f z Z f Q R Q R H H H L S m F S m G T G E H S S j j Z / ) ' x A F x ",
"a f b u f 6 y s a s y y y j Z f H b f S G Z u c 8 A ) ,.9.@., p 5 p S ~ H / W A F f G c b b ! ! E W Z W W F k Z x / R W H F f e ",
"H H c u 7 y 4 4 y s a y a s f f H A b S U J l 0 u f H 1.5.O.+ 6 u f Z j W W W H ~ W H b b d c b F m ! j R W F x { ' ' / F F R F ",
"v H Z u N N p 9 f S f y y y f A Z K p l U B f < f N P &.7.@.- 6 , u Z x Z Z W G E / ! / ! E / m Z E / ' ' F R F F R ^ R W E K x ",
"m s f p 6 c f p c Z Z Z f z y Z B D 8 8 C B Z f A N / 9.0.>.i 6 y z x H ' S H H b H S b m F v S H G W Z Z f E F a R R Q W Z Z ~ ",
"h t u y f Z c 6 N f l H S B A B U C C C M l 0 N Z P @.q.0.9.* c 4 4 Z ' W G D U P ~ P H E m m E S H f 7 y c G w a F j G x y b W ",
"3 y f Z d Z A D U J D H H S U D M 8 : 7 c P P A N , ! 0.9.2.c m y y A H S B Z ) _ P S G b G c H ' H A N l 7 y u x H b u y u 4 r ",
"e a G F Z S J C C C C D K J S D C J D 4 # 9 U ..P _ o.9.q.9.c S f f H N f J D H P N N A ' D A U B A N f 8 0 u u s z f 7 7 < 7 r ",
"r y Z G P H D J C B D H K J D D $.U D ` P I ) D P ~ *.5.t.*.c ! Z W G Z N p p M V V D L C I M C B B M 7 5 < 5 Z p z u 7 < 7 < 7 ",
"a f u N Z b D D V D S G S S D B N D N D N p P G P N O.9.9.( ~ _ H H H ~ ) L S D C M 0 V L C V D Z V p , # , 4 a 4 7 < p 7 < 7 p ",
"y 7 < 4 y y f S U N c c N f u f P l 6 y 9 c c c S ) ..5.t./ S  .H F W P ) U K U V C 0 f Z U D p f 4 y b 7 4 y 7 5 M 7 < < > y 8 ",
"N s 7 4 < p B S D ] S S f y p H Z N N S b ~ b c S _ o.4.t.X.P  .' S Z Z Z K S f C N M f B f A N N N p N P b p u 0 y = < y f y N ",
"_ [ _ H Z H P ) [ %._ H ) ) H Z ] ]  .] _ P D S ] _ X.q.t.#.S _ G H U S N N P M N D D ) D _ ` ` U P X.[ _ _ _ H _ _ H P ..$.o.` ",
"-.&.-.1.,.-.&.%.1.:.} &.1.2.7.7.8.:.} o.] &.&.O.| 1.4.r.5.,.S s S u = u H D D y S L S S H [ &.&.@.>.2.7.7.8.1.>.&.,.X.o.%.>.&.%.",
"6.2.4.o.o.| / G | &.%.8.0.0.0.w.2.9.8.7.9.0.5.9.w.r.q.0.0.0.7.4.1.,.7.7.0.9.0.0.0.0.q.9.5.8.,.<.0.9.5.<.5.7.0.7.0.&.@.@.&.1.9.5.",
"+.o.+.| | ~ | %.%.&.o.$.$.&.-.o.X.) ) | | _ X.] | | W ' ] H ~ U A S G G c H H ' ) ' } | | | Q ] ] { ] ] ' >.&.| 2.~ / ' X.*.*.@.",
"} ' ] ] ) ) H G S a F W W _ X.H H ) ' S H U G S x H H H H x A x B S z U S d f b f G H H S S F ) H ~ / P _ ] X.8.7.#.~ ~ ~ ~ ] ( ",
"W ' ' ' Q ] A A H A z x Z b _ ) H ) L i Z u u H A x H ' | H H ` S H H G G H ) H c b N G P y x F G ) ~ P _ ) U :.5.;./ H H / W W ",
") [ $.H K H K K H ) ) ) ~ ] _ ) H H H G F A Z H H x A A K Q Q ] U G H S H A S S ~ ' / G G S F H Z _ ) P P  .$.5.<.@.' W @.' R F ",
"' Q x K S H S S S c W ~ ~ ] _ Q U G G c Z S a z ' Q ' Q W H ] ) / F G m Z ! ~ / ~ ~ S S Z G W H H ) / _ H ) o.&.5.=.) j W W ' F ",
"G K u x Z N D L H G H ~ ] ' ) W H ~ S Z Z f Z z x A ' ' ) ] W ' _ ~ ~ G H H G ~ ! G H S H E b W Q G H P ' ] o.X.0.-.W A x ' ' ) ",
"A D A A S Z H ) ~ _ / ~ _ ~ _ H H Z Q Q W F x Z x s S ) ) ) H G S P Z W ~ ~ ( ! ~ o.~ ] ) ) ` ' ) W ] W W W o.,.<.;.K H H ] ] H ",
"B B c c Z S ) S G S P / ~  .] W Q ) ) R F j f W W H A ) %.) W H ~ ' G Z b S P S ~ _ / ' ) H H _ ) [ / ' / X.@.2.:.4.) H ) W W x ",
"Z s d c N Z H H ~ S S S L H b Z W W H H F W z u x F H H ) H G U ~ G ) ) H c G S ~ ~ ' P Z G G H z A A ^ m X.&.&.:.7.] f H F S b ",
"P E v S S S y H P S P A b ~ H ' ' W ] ] Q H x f Q H A G A W A Z ) [ _ Z Z ] H S ~ H _ ] _ K ) H ) ) ' / ^ ( o.&.2.7.o.S h H S F ",
"b H P X.K ' W ) y A K ) Q H ' ] | _ U ~ P P D f A c S D G U ) [ N H U D D D P W ' Z f P P G D G ] ' W ' { E ' | ;.2.1.S S A Z b ",
"Z N Z H H W H A K ) ) H W ] ) ' ] W ~ ' ' H A f S c c G P U G B B D D z ) K P ~ ' ~ ] P S S S W H E R ' / / ! { &.0.<.] f ) ~ f ",
"c S y y s Z u N Z A A N ~ Z ) W W H H H ~ ' H S S f ~ H c u Z z z B C D N P N S H S G Z ) [ ) W ' R E / ! E F ' @.5.&.| W W W H ",
"b i 4 y r f Z Z x N ) K W Z Z H H W ~ ' H ~ ( F S ~ ' / m Z H Z y D N A U Z U ' ] ~ ~ P S H H W ) / E / E k h h ' 5.-.G W ~ Z H ",
"S A y f z x f H H H U S G Z H W F Z h h v ! W R m ^ m h x s Z y y f S 4 f G N Z b b b b Z S G F g j F F ^ E R ! | :.:.a W W W G ",
"Z Z Z y z j j ' H H N c c i y i x j k / { ~ E R ( ! q b ' G W e 4 4 5 z c Z b f d c ! _ E / W E E k h v m w r y *.:.8.e 1 a S G ",
"s 4 s f f b E G E ~ H P S b Z P H H W E / / ~ ~ } 4 y 4 y f y 5 4 7 u z D U X.&. .] / ] ] ' _ ~ F F F ^ } b Z F 4.4.6.g j a u y ",
"] / E X.{ +.&.#.>.1.I ` P P G c H ' s W } / o.| | Z N y z s z u z p z 7 z _ U ) H U ) ..`  ._ %.| W ] ~ b | -.<.:.8.8.-.j a f H ",
"E E h F W W E ' #.O.>.,.#.-.] *.X.| @.] #.X.@.*.] S Z x H H H A A Z A W N ) [ ] _ ' ) ' #.o.%.X.X.#.X. .1.1.0.r.e.:.k ; q r x x ",
"r s f H a w b H ! L S #.:.*.*.<.6.q.6.t.9.9.<.*.4.:.=.8.4.1.-.<.;.;.<.:.1.1.0.7.q.5.0.8.0.5.5.6.q.9.0.<.^ @.+.( q q k { { ^ F k ",
"y G W k Z G S H P S , c H c < y b } 6.3 @ . X X $ o > f Z y | } | ' | @.%./ m H d % * r d 3 a H #.q.#.c r t d m q q k g h m h j ",
"' ' W ' / U U N c v i 9 c Z , f Z o.5.q , = - q > 4 w @ o + X o @ 1 1 &   + @ O 4 b i y b r i i <.0._ c b m T t k R k R k a R H ",
"W ~ ^ F ' U U J 6 r c i N c P c S <.1.3 6 r 6 6 s 4 X X 3 y i c y r y f N Z ~ P s 3 s y y a 3 y >.6.o.y G G v v h h h k j F ^ _ ",
"W R G E E A K J 9 b c c b c m G f :.*.@ d i i b S S f f Z b d y c H U ) U H L D f y y S f i y y ] 5.H f m t T h k m ^ E m E W W ",
"~ W ~ E ~ K A U b c 9 c 9 b c y ' q.<.O i b H ~ ] A G H S c P P S P S U P P D D A f p , y Z f y ] 0.#.f t n h g k g h h h F [ ' ",
"R F R / W D B Z m c c b c c G c X.0.5.X y S ' [ ` H _ _ H ( H S Z S S U I P ) ) D H c S m b 4 3 ~ 9.-.d d T n h Y Y F k m F F F ",
"E ^ F F H H S c G S S b P b c G <.0.9.$ c c ~ _ ` ' H ) P P P _ H A ! P [ ) P K S S S P P ~ ! >.~ 9.<.S c t T m v n m m F E W / ",
"W / E G K S S u d i S _ ) ] ~ S 5.q.#.- r 6 Z S b ~ ' ) H ) ~ G S v c G A ~ H H ) F b Z ] @.<.&.o.6.4.h G ! ( ( ( d d v ^ H ' W ",
"W ' f F D H G j c i N P G c b b 5.9.#.* i b S b P / X.' ~ ~ ! G m ~ b b S S G ) G H S Z @.+.>.&.o.5.*.d i v b G ! / ' / F W ( / ",
"~ ( { W G H H G i 9 N S P c c P *.0. ., S v t f f H ' o.( m G m ~ G / S G G F W H A H G o.@.5.O...2.5.b d v b ! ~ v F Z h a H ~ ",
"E F W F G Q U x i 6 N S G G S G G 0.! = i i 7 f c ~ ' X.} ~ m H G G / ~ H W W f H E F A o.#.<.....9.#.c d i m b W H Z K ) ) S H ",
"H W F G S Z Z S b c P b S P S t  .0.P = c c c c c F F +.( E H v m ! ! X./ W R a w a A )  .,.>.S P 9.1.d i G P S u W Q W H Q ) ) ",
") ' Q W H F Z f c c P P P ~ ] #.o.5.G c c S 6 6 r r p W ( / G H ! v O.G x R F W Z f F ' o. .&. . .>.#.o.O._ G S ) ` ` ) K Q _ A ",
"A _ H A S A z H P V c b S ~ b i  .9.S 6 c S c 6 7 i i b E ~ ~ ! v c H ~ | E F Z F Z x ) ( L O.c c 2.1.i q m m b W H z A A Q H A ",
"D U B f f Z b b _ ' ) ) Z S ' ] ;.0.S c c c c 7 7 y r f ~ b m H c c m v m ~ ! P G c b c c b c P u 2.1.` [ _ Z A ) U U U H z G A ",
"f H S _ ) G c H H H ) ~ X.b G G } 7.~ c c N c M y 7 f Z G v b v G G / ( _ ! G c r c P c i c p c 4 $.,.S W H E [ [ [ U ) S y Z f ",
"Z _ ) H G G b Z S L ~ ( } W h G W 4.#.d V B f 0 p u N S H S c d / v ! _ ( P ~ b G c 4 - - 6 c 9 A &...B x z $.[ ` H ) W ] F f x ",
"A H H f N Z ' Z b S ~ } } } Z x ' 5.' r p 9 7 N z 7 f b 3 - r d ! m S m v b v 6 i r H ) c 9 , 6 N $.,.G u U [ [ | H b a w s s K ",
"p A A D ` ) ) ' S D ..X.' ~ H S -.4.~ i y l p N B A D N > c r c b m ~ S d m b S x k f 7 y 4 4 w c ..,.N A A K ) _ ' o.' ~ b f y ",
"p l D D G W H U A H ' ' W ~ ) S 5.8.' A Z S S S B P S j d h t r r r 3 b r * r r s s e w , 2 > ; Z %.&.N A K _ [ ) ) ) ' W f f A ",
"Q } | -.;.*.@.] ] @.-.#.-.] / -.0.1.-.Z G e 4 P Z S P } ( E S h a b b t d G ~ #.=.1.=.=.} x e x x <.<.| W ' ` $.<.&.;.1.| H | ~ ",
"-.-.=.1.-.<.<.-._ ' ] ( X.1.>.7.q.8.1.8.*.:.5.>.5.4.:.5.4.9.0.0.6.5.5.6.4.5.0.5.:.4.1.4.4.8.5.4.} j 1.0.;.%.,.2.3.2.7.8.0.7.6.:."
};
