/* XPM */
static char *warped_roots[] = {
/* columns rows colors chars-per-pixel */
"64 64 246 2 ",
"   c #0A1816",
".  c #0E1011",
"X  c #09231D",
"o  c #15231F",
"O  c #111E25",
"+  c #0B2927",
"@  c #142B23",
"#  c #132D2B",
"$  c #172826",
"%  c #08362D",
"&  c #15332C",
"*  c #1C352B",
"=  c #1C3A2D",
"-  c #163426",
";  c #0C3433",
":  c #0D3B3A",
">  c #0C3A34",
",  c #123432",
"<  c #1B3432",
"1  c #143B35",
"2  c #1B3C34",
"3  c #143D3B",
"4  c #1B3D3B",
"5  c #163638",
"6  c #162F31",
"7  c #223A2C",
"8  c #21332D",
"9  c #233D32",
"0  c #253938",
"q  c #35373D",
"w  c #262A30",
"e  c #09473A",
"r  c #1D4235",
"t  c #14423D",
"y  c #1C453B",
"u  c #1D493C",
"i  c #174636",
"p  c #1C543D",
"a  c #0E4A33",
"s  c #234435",
"d  c #2A4935",
"f  c #234539",
"g  c #244B3C",
"h  c #2B4C3B",
"j  c #2A4536",
"k  c #2C523D",
"l  c #22543C",
"z  c #34543C",
"x  c #2D4734",
"c  c #14623C",
"v  c #373C45",
"b  c #1F3E40",
"n  c #0D4945",
"m  c #134442",
"M  c #1B4543",
"N  c #134A45",
"B  c #1C4C44",
"V  c #134D4B",
"C  c #1C4D4C",
"Z  c #1E4648",
"A  c #075A47",
"S  c #14534C",
"D  c #1B544C",
"F  c #1A5746",
"G  c #135452",
"H  c #1B5553",
"J  c #145A54",
"K  c #1B5B53",
"L  c #135C5A",
"P  c #1B5D58",
"I  c #1B5558",
"U  c #0D5151",
"Y  c #214441",
"T  c #2B4343",
"R  c #234D43",
"E  c #234C4C",
"W  c #2B4B47",
"Q  c #354A49",
"!  c #255344",
"~  c #2C5443",
"^  c #2B5A45",
"/  c #22544C",
"(  c #245B4D",
")  c #2D5C4B",
"_  c #285747",
"`  c #325A44",
"'  c #335D49",
"]  c #345546",
"[  c #225453",
"{  c #235C52",
"}  c #2C5C54",
"|  c #275A59",
" . c #355A56",
".. c #304A53",
"X. c #05654C",
"o. c #176949",
"O. c #1A734C",
"+. c #086B57",
"@. c #15645C",
"#. c #1B635C",
"$. c #1C6656",
"%. c #05765A",
"&. c #1D7958",
"*. c #2C634C",
"=. c #276648",
"-. c #34624B",
";. c #3B644C",
":. c #3C6A4A",
">. c #386343",
",. c #367349",
"<. c #256354",
"1. c #2C6353",
"2. c #24645A",
"3. c #2B6B5C",
"4. c #296A58",
"5. c #346552",
"6. c #346B54",
"7. c #3B6B53",
"8. c #346B5B",
"9. c #3B6757",
"0. c #287658",
"q. c #377559",
"w. c #28704E",
"e. c #156C63",
"r. c #1C6B63",
"t. c #196866",
"y. c #1A736B",
"u. c #167568",
"i. c #197975",
"p. c #047C60",
"a. c #246B62",
"s. c #266A65",
"d. c #2C7364",
"f. c #2C7A6C",
"g. c #257769",
"h. c #3C7C63",
"j. c #357866",
"k. c #257C76",
"l. c #366C67",
"z. c #225F61",
"x. c #484A58",
"c. c #53565E",
"v. c #4A4F56",
"b. c #416C4B",
"n. c #456B5B",
"m. c #437552",
"M. c #45775A",
"N. c #43714B",
"B. c #5B5365",
"V. c #4E5568",
"C. c #635A6B",
"Z. c #496A62",
"A. c #467566",
"S. c #596B6F",
"D. c #666977",
"F. c #6B7077",
"G. c #15845B",
"H. c #3D815B",
"J. c #268156",
"K. c #068665",
"L. c #129071",
"P. c #298869",
"I. c #388568",
"U. c #37926B",
"Y. c #298878",
"T. c #368774",
"R. c #29967A",
"E. c #2B966E",
"W. c #08A874",
"Q. c #4A865C",
"!. c #4E9855",
"~. c #488565",
"^. c #4D8B6F",
"/. c #619E6C",
"(. c #41A775",
"). c #10C17E",
"_. c #686D83",
"`. c #787587",
"'. c #797690",
"]. c #755F90",
"[. c #837A97",
"{. c #83788D",
"}. c #1B8883",
"|. c #1B9790",
" X c #278A83",
".X c #2B9588",
"XX c #10A783",
"oX c #28A689",
"OX c #53B38E",
"+X c #76949A",
"@X c #31C18D",
"#X c #88879A",
"$X c #968497",
"%X c #8B939A",
"&X c #91959D",
"*X c #8A8285",
"=X c #8989A4",
"-X c #9A8BA5",
";X c #8D93AA",
":X c #8A93A4",
">X c #9195AC",
",X c #9497AA",
"<X c #959BB2",
"1X c #9A9DB3",
"2X c #9395B0",
"3X c #838EB2",
"4X c #A895AA",
"5X c #A89DB2",
"6X c #B59FB5",
"7X c #B096AC",
"8X c #9CA2B6",
"9X c #9EA5BB",
"0X c #91A9A6",
"qX c #A4AAAE",
"wX c #A2A5BB",
"eX c #A5A9BD",
"rX c #A9A7B9",
"tX c #B5A9BD",
"yX c #AFB5BD",
"uX c #A3879B",
"iX c #89C6AD",
"pX c #A9ADC2",
"aX c #B7ACC1",
"sX c #ACB1C4",
"dX c #B5BBCC",
"fX c #B6B6C7",
"gX c #BABED0",
"hX c #C3BBCD",
"jX c #C1B5C9",
"kX c #C2BDD0",
"lX c #BBC1CB",
"zX c #BDC1D2",
"xX c #C2C4D5",
"cX c #C6CADA",
"vX c #CBCDDD",
"bX c #C7C6D6",
"nX c #CDD1DF",
"mX c #D3D1DE",
"MX c #D1CEDD",
"NX c #CFD3E1",
"BX c #D1D5E2",
"VX c #D6DAE5",
"CX c #D8DAE6",
"ZX c #DADEE9",
"AX c #DDE1EB",
"SX c None",
/* pixels */
"SXSXSXSXSXSXSXSXSXSXSXSXSXSXSXSXSXSXSXSXSXSXSXSXSXSXSXSXSXSXSXSXSXSXSXSXSXSXSXSXSXSXSXSXSXSXSXSXSXSXSXSXSXSXSXSXSXSXSXSXSXSXSXSX",
"SXSXSXSXSXSXSXSXSXSXSXSXSXSXSXSXSXSXSXSXSXSXSXSXSXSXSXSXSXSXSX<X1X1X#X%XSXSXSXSXSXSXSXSXSXSXSXSXSXSXSXSXSXSXSXSXSXSXSXSXSXSXSXSX",
"SXSXSXSXSXSXSXSXSXSXSXSXSXSXSXSXSXSXSXSXSXSXSXSXSXSXSXSXSX=X>X1X;X#X{.,XsXfXSXM.] SXSXSXSXSXSXSXSXSXSXSXSXSXSXSXSXSXSXSXSXSXSXSX",
"SXSXSXSXSXSXSXSXSXSXSXSXSXSXSXSXSXSXSXSXSXSXSXSXSXSXSXSX{.'._...v q x.-XgXxXgXh.h.8.SXSXSXSXSXSXSXSXSXSXSXSXSXSXSXSXSXSXSXSXSXSX",
"SXSXSXSXSXSXSXSXSXSXSXSXSXSXSXSXSXSXSXSXSXSXSXSXSXSXSX2X'.x.# e X.n @ v eXvXbXd.j.T.SXSXSXSXSXSXSXSXSXSXSXSXSXSXSXSXSXSXSXSXSXSX",
"SXSXSXSXSXSXSXSXSXSXSXSXSXSXSXSXSXSXSXSXSXSXSXSXSXSXSX#XB.$ +.K.X.%.%.X F.nXhXyX.X| R SXSXSXSXSXSXSXSXSXSXSXSXSXSXSXSXSXSXSXSXSX",
"SXSXSXSXSXSXSXSXSXSXSXSXSXSXSXSXSXSXSXSXSXSXSXSXSXSX>X<X..n p.  .   %.a q jXuX4Xf.d.2.SXSXSXSXSXSXSXSXSXSXSXSXSXSXSXSXSXSXSXSXSX",
"SXSXSXSXSXSXSXSXSXSXSXSXSXSXSXSXSXSXSXSXSXSXSXSXSXSX<X;Xv +.A   n.  X.p q {.jXbXxXT./ SXSXSXSXSXSXSXSXSXSXSXSXSXSXSXSXSXSXSXSXSX",
"SXSXSXSXSXSXSXSXSXSXSXSXSXSXSXSXSXSXSXSXSXSXSXSXSXSX=X;Xv A %.  Q % G.P.F.fXbXmXmX6.l T.SXSXSXSXSXSXSXSXSXSXSXSXSXSXSXSXSXSXSXSX",
"SXSXSXSXSXSXSXSXSXSXSXSXSXSXSXSXSXSXSXSXSXSXSXSXSXSX#X{.x.; K.%.X.%.E.0XbXVXbXmXmX7.6.<.SXSXSX9XsXdXdXzXzXgXSXSXSXSXSXSXSXSXSXSX",
"SXSXSXSXSXSXSXSXSXSXSXSXSXSXSXSXSXSXSXSXSXSXSXSXSXSX#X#X>Xx.% c X.e W wXZXZXVXVXNXq.^ w.SX9X9XpXsXzXzXcXxXxXxXgXSXSXSXSXSXSXSXSX",
"SXSXSXSXSXSXSXSXSXSXSXSXSXSXSXSXSXSXSXSXSXSXSXSXSXSX;X1XsX1XC.V.v.D.#X7XxXVXVXVXvX' ~ ! 1XeXpXdXxXvXNXNXBXNXvXcXbX-.h.SXSXSXSXSX",
"SXSXSXSXSXSXSXSXSXSXSXSXSXSXSXSXSXSXSXSXSXSXSXSXSXSX>X1XwX$XqXgXlXcXjX7XbXmXBXNXlXh.) ,X8XeXfXbXNXBXCXCXCXCXBXmXvX4.<.( SXSXSXSX",
"SXSXSXSXSXSXSXSXSXSX8X8XyXsXfXlXSXg.g.SXSXSXSXSXSXSXSX;X:X-X4XbXnXnXfX5XbXmXNXcXq.) =.8XrXrX5XhXkXvXZXZXMXMXbXCXmXlXD F K SXSXSX",
"SXSXSXSXSXSXSXSX1X1XpXsXdXzXdXlXS oXY.R.#.SXSXSXSXSXSX;X;X9XeXgXzXzXzXcXvXnXvX^.q._ w.8XeXqXuXrXhXMXVXAXhXjXhXbXVXnXi.#.y.SXSXSX",
"SXSXSXSXSXSXSXwX8XsXzXxXcXcXnXnXvXzXY.Y.u.y.SXSXSXSXSXSX;X>X8XsXlXzXzXcXxXzXqX~.~.w.! 9XsXxXbX$XB.Q q c.$XmXCXVXVXVXxXG L SXSXSX",
"SXSXSXSXSXSX8X8XpXgXxXnXNXbXbXvXBXBXvXY.}.i.U SXSXSXSXSXSX2X;X8XeXsXsXdXyX>.-.I.w.w.O.wXdXbX=Xw O n A t S.&XAXAXAXZXNXe.G G SXSX",
"SXSXSXSXSXSX1XeXrXaXbXBXVXjXtXjXCXBXBXvXyXi.y.H SXSXSXSXSXSXSX;X<X&XA.z k z l l F G.G.9XdXwXv + L.W.W.@XiXn.&XAXAXCXnXJ ; ; SXSX",
"SXSXSXSXSX2X8XpX-XaXnXVXCXjX6XvXCXCXBXMXvX|.}.s.SXSXSXSXSXSX+ & * 5.` ' g - l SXO.L.o.1XeX'.O %.K.X . X OX&.q VXCXmXNXr.t ; SXSX",
"SXSXSXSXSX2XwXeX$XfXlX<X#X`.tXAXCXbXjXbXvXcX Xs.[ SXSXSXSX+ , + < 9.s ' q.SXSXSXo.XXG.,X-XB.+ p.e . S.o %.L.$ tXtXhXvXK t SXSXSX",
"SXSXSXSXSX2XeXsX5X'.x.9 9 * ^.mXvX6XtXhXnXvXk.| I SXSXSX; ; m 3 < $  .R ( SXSXSXF &.|.#X[.C.# %.c   0   p.p.w rXfXxX.X2.t SXSXSX",
"SXSXSXSXSX2XeXdX8X0 e L.W.E.OX+XC.jXMXjXgXcX# [ 3 SXSX3 m S t [ f | 0 E SXSXSXSXSXe.u.@.1X:Xv e K.e % A K.> v.mXBXvXT.d.R SXSXSX",
"SXSXSXSXSX2X>XpX_.% %.e X X.).&.o qXVXvXcXxXW E SXSX: n G @.e a.Y M + SXSXSXSXSXSXSXt L t.1X_.8 e X.+.o.1 w %XxXcX3.T.[ SXSXSXSX",
"SXSXSXSXSX>X2X=Xx.e A $ j   K.XX. F.VXBXcX9.~ y SX; : U n @.@.N K 4 SXSXSXSXSXSXSXSX, B <.k.2X_.Q # 4 T c.#XrX4XqXj.3.2.SXSXSXSX",
"SXSXSXSXSXSX=X[.V.> e + 7 . %.W.  C.jXkXgX~.d r + ; S N V @.e S F SXSXSXSXSXSXSXSX! _ 5.5.1.h.#X'.D.F.%XrXyXrX{.l.8./ SXSXSXSXSX",
"SXSXSXSXSXSX[.].].; X.e X e W.+.. {.kXxX~.;.d g i t N P H 2.$.> SXSXSXSXSXSXSXSX< 2 f * s ` q.^ [.-X-XaX0Xn.m.9. .} SXSXSXSXSXSX",
"SXSXSXSXSXSXSX=X3XV.a A +.%.X.X B.-X5X5 I.,.SX_ 2.C H Z | 5 e.SXSXSXSXSXSXSXSXD < ~ ` ` d 7 >.^ T.^.+X.X9.b.A.~ _ SXSXSXSXSXSXSX",
"SXSXSXSXSXSXSXSX2X+XS.b 5 Y Q _.2X5XC 2.4._ 2 y #.t.I Y b 5 SXSXSXSXSXSXSXSXSXt f j ;.` s u l p T.j.s.8.9.Q Z.SXSXSXSXSXSXSXSXSX",
"SXSXSXSXSXSXSXSXSX<X;X_.C._.%XsXpXh.y 2 T.i H r.e.m Z W T SXSXSXSXSXSXSXSXSXSXF u ' 6.U.=.- SXSX3.~.f 5. .8 0 0 SXSXSXSXSXSXSXSX",
"SXSXSXSXSXSXSXSXSXSXSXSX'.=X%X+XF.' d - SXN |.e.@.@.3 | SXSXSXSXSXSXSXSXSXSXSXi r l -.=.J.c SXSXSX=.' Z. .v.j W E SXSXSXSXSXSXSX",
"SXSXSXSXSXSXSXSXSXSXSX* $ 7 9 j 6.,.- SXSXP }.|.e.U #./ SXSXSXSXSXSXSXSXSXSXSXO.= r ,.p p O.SXSXSXSX;.n.n. .v < Y SXSXSXSXSXSXSX",
"SXSXSXSXSXSXSXSXSXSXSX0 s f ~ f = s SXSXD i.t.|.@.n L SXSXSXSXSXSXQ././.SXSXSXO.= ) M.l p a SXSXSXSX>.M.9.Z.Q  .Y [ SXSXSXSXSXSX",
"SXSXSXSXSXSXSXSXSXSXSX7 _ 1.P 3 1 , SXSXm V }.|.}.e.V SXSXSXSXSXM.Q.Q.N.m.SXSXF ! 9.A.7.q.o SXSXSXSXSXz ] v.A.Z.9. .SXSXSXSXSXSX",
"SXSXSXSXSXSXSXSXSXSX9 ) y a.G : + SXSXSXV ; L }.i.G SXSXSXSXSX<.M.Q.m.~.q.=.SXr _ h.M.7 -.s SXSXSXSXSXSXx ] ^.n. .E 6 SXSXSXSXSX",
"SXSXSXSXSXSXSXSXSXSX$ 1.2.P u.; : SXSXSXm L t.J y.U SXSXSXSXSX0.U.U.6.q.i 1 SXy ) 9.~.` ` j SXSXSXSXSXSXh 9.9.}  .E 5 SXSXSXSXSX",
"SXSXSXSXSXSXSXSXSXSX# 2.k.N L ; ; SXSXSX3 2.f.s.Z V SXSXSXSXB $.g.P.Y.E.& SXSX2 y 8.~ W d z SXSXSXSXSXSXSX! ! u  X| C SXSXSXSXSX",
"SXSXSXSXSXSXSXSXSXSX2 m G e.L U SXSXSX; { ( 8._ / r SXSXSXSXs 2. X Xr.r.& SXSX5 # B 2 ! 5.SXSXSXSXSXSXSXSXB <.d. Xg.G J SXSXSXSX",
"SXSXSXSXSXSXSXSXSX( [ g.e.L n : SXSXSX1 5 ) ~ 5.< 9 SXSXSXSXk q.Y.k.y.G + SXSX6 3 1 , * 5.SXSXSXSXSXSXSXSXB C g.k.L.}.S SXSXSXSX",
"SXSXSXSXSXSXSXSXSX/ K P Y.L n m SXSXSX1 2 5.5.M.] >.SXSXSXd ,.g g.m m I SXSXSXb C P B ( g SXSXSXSXSXSXSXSXB 2.g.k.i.}.m SXSXSXSX",
"SXSXSXSXSXSXSXSXSX& / f.@.@.U SXSXSXSXSX9 5.' m.7.>.j SXSX7 * s f.y.G 6 SXSXSX$ b V a./ < SXSXSXSXSXSXSXSXy u 4.R.y.k.J SXSXSXSX",
"SXSXSXSXSXSXSXSXSXs 6.{ g.@.t SXSXSXSXSX- j M.M.:.N.7 SXSXb.j 5.y  Xk.C SXSXSX6 E m g.[ < SXSXSXSXSXSXSXSX& f } j.2.a.D SXSXSXSX",
"SXSXSXSXSXSXSXSXSXf ! 0.o.o.e SXSXSXSXSX$ ` k ~ k Q.:.SXSXz 9 5.D s.H 3 SXSX6 $ [ C H [ < SXSXSXSXSXSXSXSXj = h.8.j.R SXSXSXSXSX",
"SXSXSXSXSXSXSXSXy f I.6.F i a SXSXSXSXSXSX' h k M.k d s SX7 j } j. XC b SXSX< E Z s.m M * SXSXSXSXSXSXSX# s ~ ^ } j.! SXSXSXSXSX",
"SXSXSXSXSXSXSXSXf ^ 7.h.u - + SXSXSXSXSXSX~ 5.l -.~ l @ SX@ # ( | s.Z Z SXSX5 [ P t.3 m M SXSXSXSXSXSXSX1 = ! 6.5.4.f SXSXSXSXSX",
"SXSXSXSXSXSXSXSXSX6.q.) *.=.u SXSXSXSXSXSX9 g 6._ ( y = SXSXB Y ..} | E SXSX, z.g.z.m 5 ; SXSXSXSXSXSXSXi B t <.T.2.u SXSXSXSXSX",
"SXSXSXSXSXSXSXSXSXs f I.-.d s SXSXSXSXSXSXSX2 4.2.<.3 ; SXSXt E l. . .4 + 5 V z.s.V 3 > SXSXSXSXSXSXSXF D D D D <.B SXSXSXSXSXSX",
"SXSXSXSXSXSXSXSXSX~ ! q.k ^ j SXSXSXSXSXSXSX< ! Y.N r.V SXSX; 3 | ..l.b 6 5 H s.z.C H , SXSXSXSXSXSXSXu.S #.N K B 3 SXSXSXSXSXSX",
"SXSXSXSXSXSXSXSXSXF w.0.=.Q.@ r SXSXSXSXSXSX# K r.K S : > SXSX, ..A.Z.} Y Y [ 2.| 3 4 , SXSXSXSXSXSXt o.#.e.y.m t SXSXSXSXSXSXSX",
"SXSXSXSXSXSXSXSXSX&.O.J.U.I.q.g SXSXSXSXSXSXm t m #.#.S ; SXSX5 } ' n.b.j _ 5.8.g < y SXSXSXSXSXSXSXe S i.i.U G + SXSXSXSXSXSXSX",
"SXSXSXSXSXSXSXSXSXo.L.&.U.I.=.w.SXSXSXSXSXSX3 K J P N : + SXSXSX4.j b.b.7 >.b.~.^ @ < SXSXSXSXSXSXn n n i.}.L ; , SXSXSXSXSXSXSX",
"SXSXSXSXSXSXSXSXSXSXO.&.0.w.w.w.SXSXSXSXSXSX; S D k.N S ; SXSXSXSX9 z b.z z >.m.` f SXSXSXSXSXSXSXu.S u.i.|.y.t SXSXSXSXSXSXSXSX",
"SXSXSXSXSXSXSXSXSXSXA $.$.K <._ y SXSXSXSXSX& y D 3.K N SXSXSXSXSX7 x >.>.x :.m.` h SXSXSXSXSXSXSXS J }.k.i.k.| SXSXSXSXSXSXSXSX",
"SXSXSXSXSXSXSXSXSXSXe S S o.a.4.*.SXSXSXSXSX< _ d.d.R.C SXSXSXSXSXx x N.m.N.b.z * g SXSXSXSXSXSXC ; 4 k.z.E g.SXSXSXSXSXSXSXSXSX",
"SXSXSXSXSXSXSXSXSXSX% n N V g.f.6.SXSXSXSXSXj ' I.3.f.0.SXSXSXSXSX,.!.N.Q.:.:.z d g _ SXSXSXSXSXC # [ [ } Y o SXSXSXSXSXSXSXSXSX",
"SXSXSXSXSXSXSXSXSXSXSXK S P P R ^ SXSXSXSXj h 5.! / Y.1 SXSXSXSX7 ,.!./.!.q.d =.! ! - 4.SXSXSXSX[ E | 5  .W - SXSXSXSXSXSXSXSXSX",
"SXSXSXSXSXSXSXSXSXSXSXt D [ d.3.*.SXSXSXSXo b.' R j.R ( SXSXSXSXl =.,.q.-.,.= l f q.2 <.SXSXSXSXC C s...R j SXSXSXSXSXSXSXSXSXSX",
"SXSXSXSXSXSXSXSXSXSXSX~ ) r *.1.! u SXSXSXh ;.~.! } M 2 SXSXSXu.E.E.(.0.^ f r J.! T.T.f.T.SXSXM 3 m z.3.h.Q.SXSXSXSXSXSXSXSXSXSX",
"SXSXSXSXSXSXSXSXSXSXSX7 h ` ' 6.<.1 SXSXSX] M.9.] } # 3 SXSXSXL.L.oXR.0.w.c r g 3.d.2.I.{ SXSXD H z.a.( h.;.SXSXSXSXSXSXSXSXSXSX",
"SXSXSXSXSXSXSXSXSXSXSX7 d k ^ q.<.( SXSXSXh ] T } E , SXSXSXU }.G.oXoXP.J.i u { d.a.f.T.j.8.SXy C r.t 1 ^.q.SXSXSXSXSXSXSXSXSXSX",
"SXSXSXSXSXSXSXSXSXSXSXSXs =.=.I.I.B SXSXs 0 T ] W 5 & SXSXSXu.e.R.R.E.P.<.r u D | j.j.I._ 8.SX5.3.d.D K I.! SXSXSXSXSXSXSXSXSXSX",
"SXSXSXSXSXSXSXSXSXSXSXSXp p J.w.H.( SXSX9 8 b f 4   # SXSXm G D R.3.0.6.l 2 ( <.[ } T.h.' j SX) 5.I.*.( R.} SXSXSXSXSXSXSXSXSXSX",
"SXSXSXSXSXSXSXSXSXSXSXSXc c E.O.0.*.9 SX< * v ..4 , ; SXSXU L Y.I.) 5.) r SXB <.j.5.A.q.s ~ SXd ' ` 7.f { ; SXSXSXSXSXSXSXSXSXSX",
"SXSXSXSXSXSXSXSXSXSXSXSXa O.G.J.(.Q.] SXw 8 0 0 M 5 SXSXSXL V D 5.5.h *.SXSXSX*.g ' A.h ^ j SX7 f Q.^ 4.t 5 SXSXSXSXSXSXSXSXSXSX",
"SXSXSXSXSXSXSXSXSXSXSXSXr i J.U.H.m.N.SX0 j 0 } 0 b SXSXm L i.d.5.1.R R SXSXSX_ ' ;.b.' ] _ SXr r *.= B P e.SXSXSXSXSXSXSXSXSXSX"
};
