/* XPM */
static char *wall4[] = {
/* columns rows colors chars-per-pixel */
"64 64 256 2 ",
"   c black",
".  c #010101",
"X  c #020202",
"o  c gray1",
"O  c #040404",
"+  c gray2",
"@  c #060606",
"#  c #070707",
"$  c gray3",
"%  c #090909",
"&  c gray4",
"*  c #0B0B0B",
"=  c #0C0C0C",
"-  c gray5",
";  c #0E0E0E",
":  c gray6",
">  c #101010",
",  c #111111",
"<  c gray7",
"1  c #131313",
"2  c gray8",
"3  c #151515",
"4  c #161616",
"5  c gray9",
"6  c #181818",
"7  c #191919",
"8  c gray10",
"9  c #1B1B1B",
"0  c gray11",
"q  c #1D1D1D",
"w  c #1E1E1E",
"e  c gray12",
"r  c #202020",
"t  c gray13",
"y  c #222222",
"u  c #232323",
"i  c gray14",
"p  c #252525",
"a  c gray15",
"s  c #272727",
"d  c #282828",
"f  c gray16",
"g  c #2A2A2A",
"h  c gray17",
"j  c #2C2C2C",
"k  c #2D2D2D",
"l  c gray18",
"z  c #2F2F2F",
"x  c gray19",
"c  c #313131",
"v  c #323232",
"b  c gray20",
"n  c #343434",
"m  c #353535",
"M  c gray21",
"N  c #373737",
"B  c gray22",
"V  c #393939",
"C  c #3A3A3A",
"Z  c gray23",
"A  c #3C3C3C",
"S  c gray24",
"D  c #3E3E3E",
"F  c #3F3F3F",
"G  c gray25",
"H  c #414141",
"J  c gray26",
"K  c #434343",
"L  c #444444",
"P  c gray27",
"I  c #464646",
"U  c gray28",
"Y  c #484848",
"T  c #494949",
"R  c gray29",
"E  c #4B4B4B",
"W  c #4C4C4C",
"Q  c gray30",
"!  c #4E4E4E",
"~  c gray31",
"^  c #505050",
"/  c #515151",
"(  c gray32",
")  c #535353",
"_  c gray33",
"`  c #555555",
"'  c #565656",
"]  c gray34",
"[  c #585858",
"{  c gray35",
"}  c #5A5A5A",
"|  c #5B5B5B",
" . c gray36",
".. c #5D5D5D",
"X. c gray37",
"o. c #5F5F5F",
"O. c #606060",
"+. c gray38",
"@. c #626262",
"#. c gray39",
"$. c #646464",
"%. c #656565",
"&. c gray40",
"*. c #676767",
"=. c #686868",
"-. c DimGray",
";. c #6A6A6A",
":. c gray42",
">. c #6C6C6C",
",. c #6D6D6D",
"<. c gray43",
"1. c #6F6F6F",
"2. c gray44",
"3. c #717171",
"4. c #727272",
"5. c gray45",
"6. c #747474",
"7. c gray46",
"8. c #767676",
"9. c #777777",
"0. c gray47",
"q. c #797979",
"w. c gray48",
"e. c #7B7B7B",
"r. c #7C7C7C",
"t. c gray49",
"y. c #7E7E7E",
"u. c gray50",
"i. c #808080",
"p. c #818181",
"a. c gray51",
"s. c #838383",
"d. c #848484",
"f. c gray52",
"g. c #868686",
"h. c gray53",
"j. c #888888",
"k. c #898989",
"l. c gray54",
"z. c #8B8B8B",
"x. c gray55",
"c. c #8D8D8D",
"v. c #8E8E8E",
"b. c gray56",
"n. c #909090",
"m. c gray57",
"M. c #929292",
"N. c #939393",
"B. c gray58",
"V. c #959595",
"C. c gray59",
"Z. c #979797",
"A. c #989898",
"S. c gray60",
"D. c #9A9A9A",
"F. c #9B9B9B",
"G. c gray61",
"H. c #9D9D9D",
"J. c gray62",
"K. c #9F9F9F",
"L. c #A0A0A0",
"P. c gray63",
"I. c #A2A2A2",
"U. c gray64",
"Y. c #A4A4A4",
"T. c #A5A5A5",
"R. c gray65",
"E. c #A7A7A7",
"W. c gray66",
"Q. c #A9A9A9",
"!. c #AAAAAA",
"~. c gray67",
"^. c #ACACAC",
"/. c gray68",
"(. c #AEAEAE",
"). c #AFAFAF",
"_. c gray69",
"`. c #B1B1B1",
"'. c #B2B2B2",
"]. c gray70",
"[. c #B4B4B4",
"{. c gray71",
"}. c #B6B6B6",
"|. c #B7B7B7",
" X c gray72",
".X c #B9B9B9",
"XX c gray73",
"oX c #BBBBBB",
"OX c #BCBCBC",
"+X c gray74",
"@X c gray",
"#X c gray75",
"$X c #C0C0C0",
"%X c #C1C1C1",
"&X c gray76",
"*X c #C3C3C3",
"=X c gray77",
"-X c #C5C5C5",
";X c #C6C6C6",
":X c gray78",
">X c #C8C8C8",
",X c gray79",
"<X c #CACACA",
"1X c #CBCBCB",
"2X c gray80",
"3X c #CDCDCD",
"4X c #CECECE",
"5X c gray81",
"6X c #D0D0D0",
"7X c gray82",
"8X c #D2D2D2",
"9X c LightGray",
"0X c gray83",
"qX c #D5D5D5",
"wX c gray84",
"eX c #D7D7D7",
"rX c #D8D8D8",
"tX c gray85",
"yX c #DADADA",
"uX c gray86",
"iX c gainsboro",
"pX c #DDDDDD",
"aX c gray87",
"sX c #DFDFDF",
"dX c gray88",
"fX c #E1E1E1",
"gX c #E2E2E2",
"hX c gray89",
"jX c #E4E4E4",
"kX c gray90",
"lX c #E6E6E6",
"zX c #E7E7E7",
"xX c gray91",
"cX c #E9E9E9",
"vX c #EAEAEA",
"bX c gray92",
"nX c #ECECEC",
"mX c gray93",
"MX c #EEEEEE",
"NX c #EFEFEF",
"BX c gray94",
"VX c #F1F1F1",
"CX c gray95",
"ZX c #F3F3F3",
"AX c #F4F4F4",
"SX c gray96",
"DX c #F6F6F6",
"FX c gray97",
"GX c #F8F8F8",
"HX c #F9F9F9",
"JX c gray98",
"KX c #FBFBFB",
"LX c gray99",
"PX c #FDFDFD",
"IX c #FEFEFE",
"UX c white",
/* pixels */
"| | | | | | | | | | L Z Z A _ | | | | | | | | | | | o.#.[ Z J | | | | | | | | | | | | | ~ D Z Z Z J _ | | | | | | | | | | | | | ",
"| | | | | | | | | L Z Z G Z S ` | | | | | | | |  .$.;.;.*.A Z [ | | | | | | | | | | | | | E Z Z Z Z Z ) | | | | | | | | | | | | ",
"| | | | | | | | K Z Z ! [ G Z D ] | | | | | | ..&.;.;.-.%.K Z / | | | | | | | | | | | | | | ) ) ^ D Z D ` | | | | | | | | | | | ",
"| | | | | | | L Z Z R ` | ' S Z H { | | | | | %.;.;.#.' ` Y Z Y | | | | | | | | | | | | ` [ | | | ) Z Z G ` { | | | | | X...| | ",
"| | | | | { L Z Z T ` ` | | _ A Z K | { ) { | O.*.X.` ` ` ! Z H | | | | | | | | | | | ! U Y | | | | ~ Z Z K ` [ | | | o.;.*.| | ",
"| | | | { K Z Z T ` ` ` | | | ( Z Z I ^ E ! { [ ` ` ` ` ` _ A Z ] | | | | | | | | | W U U E | | | | | Y Z Z I W ! ^ / { ;.;.O.| ",
"| | | | J Z Z E ] ` ` ` ` ' | | ~ Z Z K E E ! _ ` ` ` ` ` ` K Z ~ | | | | | | | | W U U R { | | | | | [ Z Z Z Z Z Z Z Z ' ;.;.$.",
"| [ | ] Z Z E | | ` ` ` ` ` ( R D Z Z Z Y E E ! ` ' ` ` ` ` P Z G [ | | | | | { E U U E | ..| | | | { J Z Z A A A A Z Z Z  .;.$.",
"~ U ) | _ ) | | { ` ` ` ` R Z Z Z S U K R E E E { | ' _ ' ) R A Z H [ | | | { R U U U o.;.;.-.O.| { J Z D ) ` ` ` ` _ G Z A o. .",
"R U E { | | | | ` ` ` ` ~ A Z Z Z Z W | E E E ( ] ~ E E ! ~ E R D Z H [ | [ R U U U Y *.;.;.;.;.{ J Z D ' | | | | { ] ) G Z S ) ",
"R U T ' | | | [ ` ` ' / S Z A ^ W Z Z E E E W _ E E E E E E E ! ( D Z H ] T U U U U ( X.*.;.;.*.K Z D ' | +.-.+.| | | { _ D Z D ",
"D U U ! | | | { ` ` ( D Z A ) | O.` Z Z L E ) / E E ( ^ W E W ) ` ( D Z P U U Y Y / { |  .$.*.I Z G '  .%.;.;.%.| | { ' ] ' G Z ",
"E T U U ) | | | ` / D Z S _ O.-.;.;.] A Z L ] { _ [ | | ` _ ` ` ` ^ T L U U ! ` ` ] | | | { L Z H #.&.-.;.;.&...| [ ' ` ` | ] L ",
"| ] U U ~ | | | _ D Z A ` %.;.;.;.;.;.[ Z Z R | | | | | | ` ` ` ` T U U U ! ` ` ' | | | { J Z D +.;.;.;.;.-.| { ] ` ` ` ' | | | ",
"| | T U ~ | | ) A Z Z ) %.;.;.&. .o.;.;.{ Z Z R | | | | | { ` ` ( U U U ~ ` ` ] | | | | K Z D ' $.;.;.;.;.;.;.O.` ` ` ` ] | | | ",
"| | Y U ^ | _ Z Z Z ! $.;.;.$.| [ ' #.;.-.R Z J | | | | | | ' ` E U U ! ` ] | | | | | { S D [ *.;.;.*.O.%.;.;.-.` ` ` ` ' | | | ",
"| | ! U ` | P Z Z Y %.;.;.%.| | | | ` _ ^ E R _ #.#.+. .| | | ` / R D Z E { | | | ' ' ' ] X.-.;.;.$. .| |  .+...[ ] ] ] { | | | ",
"| | | | | [ Z Z S $.;.;.%. .| | | [ ` ( E E E [ ;.;.;.;.$.o.| { _ H Z A I R ) ! U U U U { ;.;.;.+.| | | | | | | | | | | | | | | ",
"| | | | | ! Z Z / ;.;.#.| | | | | ] ` ( E E E ' O.;.;.;.;.;.-.#.K Z D T U U U U U U U U %.;.*.X.| | | | | | | | | | | | | | | | ",
"| | | | | J Z A #.-.o.| | | | | | [ ` ) E E E ) | o.*.-.%.*.*.I Z D ' | ~ U U Y W / ( ' ' +. .| | | | | | | | | | | [ _ | | | | ",
"| | | | ` Z Z U  . .| | | | | | | | ] ` E E E / | | | | ] Y G Z D ' | | ] _ ) _ ` ` ` ! Z L ) E ( ' ] | | | | | | { T U ) | | | ",
"| | | | T Z A ' | | | | | | | | | | | | ^ E E ^ | | | / D Z Z D ' | { ] ` ` ` _ ` ` { ' S Z D R E _ ` [ | | | ` T U U U _ | | | ",
"K T | | S Z U | | | | | | | | | | | | | _ E E ~ | | I Z Z J Z S { [ ` ` ` ` ` ` ` ] | | ` D Z D E ~ ( ( { | [ U U U U T { |  .] ",
"Z K | ^ Z Z ' | | | | | | | X...| | | | { E E ~ { L Z A ! | J Z R ` ` ` ` ' ` ` ` | | | | ` D Z P R E E ^ | { T Y ^ / [  .%.$.G ",
"H [ | K Z I | | | | | | | O.;.*.| | | | | W E / ^ Z G ` | | ( Z S _ ` _ ` ` ` ` [ | | | W U E P U U R E E ] | { { | |  .%...S Z ",
"] | _ Z Z ` | | | | | |  .*.;.&.| | | | | E E ) J Z ! | | | | J Z T ` ` ` ` ` ` | | | | T U U U U U U Y Y T / [ | |  .&.o.A Z G ",
"| | P Z J | | | | | | X.&.;.;.o.| | | | ] E E ~ Z S { | | | | / Z S _ ` ` ` ` [ | | | | ' T U U T U U U U U U U /  .&.O.S Z G ] ",
"| ] Z Z A _ | | | ..%.;.;.;.$.| | | | | ` E I D Z T | | | | [ ~ D Z T ` ` ` [ | | ] ' [ | | ! U ` ' ^ E E R U U R $.O.D Z G ] | ",
"| { G Z Z S _ |  .-.;.;.-.+._ ( _ | | { R S Z Z S W ` { | | ~ E U Z S ` [ | | | { ` ` ` ] | | | | | | | | | ` ! $.+.D Z G ] | | ",
"| | { L Z Z A ' o.;.;.#. ./ E E E ' T S Z Z D P E E E E ! ~ E E ( J Z W | | | | [ ` ` ` ` | | | | | | | | |  .*.+.G Z S ' | | | ",
"| | | | I Z Z S [ ;.;.#.' ! E E J A Z Z J ^ { _ ~ W E E E E E ! { ( Z S ` | | | [ ` ` ` ` [ | | | | | | |  .*.@.G Z S ) | | | | ",
"| { | | ) L Z Z D O.;.&.E E E R Z Z P _ | | | { ` ` ( ^ ! ! / { | | H Z Z U ] | | ` ` ` ` ` | | | | | |  .*.#.H Z S / { | | | | ",
"( E / { ) E P Z Z H X.) E E ^ ] ` ] | | | | | ] ` ` ! R ( ` | | | | [ Y Z Z S ! [ [ ` ` ` ] | | | | | ..*.#.H Z S / ' ( ! ] | | ",
"^ E E W W E E U Z Z D _ ` { | | | | | | | { | [ ` ~ U U ^ | | | | | | | ' L Z Z D ! ` ` ` { | | | | ..*.$.J Z S / ' { E E ~ ( { ",
"{ ~ E E E E E ! _ S Z G { | | | | | | | ' ` ] | ` R U Y _ [ | | | | | | | | ( G Z Z J / ` ' [ | | ..*.%.J Z Z ^ ` { | W E E E ^ ",
"| | ` ^ ! ! / { | ) S Z ^ ] [ ' ' ] { [ ` ` ` ] ^ U U Y E W | | | | | | | _ [ [ R S Z A I ) ` '  .-.%.K Z A P ^ [ | | ) E E E W ",
"| | | | | | | | [ W R Y E W ` ` ` ` ` ` ` ` ` ~ Z D U ~ E E { | | | | | _ E W [ ' ) I Z Z A E ` &.*.L Z A I U E | | | | | | _ ' ",
"| | | | | | | | _ E E E E W ` _ ` ` ` ` ` ` ` ~ Z S ' ` E E [ | | | | | ' E E ) { ` ` / G Z Z D / P Z S ^ ! U U { | | | | | | | ",
"| | | | | | | { E E E ~ ) ` ` ` ` ` ` ` ` ` ` ( Z S | ' E E ] | | | | | | W E / | [ ` ! P Z Z Z C Z D ' ] / U U ' | | | | | | | ",
"| | { { | | { _ ! W / ` _ ` ` ` _ ` ' ` ` ` ` _ Z Z | ' E E ' | | | | | [ E E ) | | _ Z Z Z Z U Y D ` | | E U U [ | | | | | | | ",
"| ] ` ` | { J Z / ` ` _ _ ` ` ` ' | | | [ ] ] ] A Z _ [ E E [ | | | | | ' E E ` | | I Z L ) X.;.*.| | | _ U U T [ | | | | | | | ",
"| ` ` ` ] L Z S ) ` ` _ ` ` ` ` ] | | | | | | | K Z D ' [ [ | | | | | | { E E ^ | ] A Z ` | &.;.O.| | | ! U U E ' | | | | | | | ",
"| ` ` ` L Z S / ` ' ' ' ] ] ] [ | | | | | | | | { K Z D ' | | | | | | | | / E E ' E Z L | X.;.-.| | | | E U Y E _ | | | | | | | ",
"{ ` ` P Z D _ { | | | | | | | | | | | | | | | | | { J Z D ] | | | | | | | { W E W D Z ( | $.;.+.| | | | E U Y E ) | | | | | | | ",
"] ` I Z S X.o.X.+.+. .| | | | | | | | | | | | | | | [ H Z G ] | | | ] ' { | _ _ _ Z G |  .;.;. .| | | | Y G Y ) { | | | | | | | ",
"[ U Z A | ;.;.;.;.;.*...| | | | | | | | | | | | | | | [ S Z G ' ' ' ` ` ] | #.;.P Z ~ | @.;.#.| | | | | I Z G [ | | | | | | | | ",
"E Z Z / X.;.;.;.;.;.;.*.| | | | | | | | | | | | | | | / Z Z Z G _ ` ` `  .*.;.X.Z S {  .-.;...| | | | | ] G Z G ] | | | | | | | ",
"Z Z ^ | | X.@.o.E [ ;.;. .| | | _ [ | | | | | | | | ' S Z R G Z / ` ( _ *.;.%.K A R | %.;.%.| | [ _ { | | ] G Z G ' | [ | | | W ",
"Z ! | | | | ' H Z Z _ X.| | | _ U Y [ ] ! R ] | | | H Z P | [ _ ] ! E W %.+.H Z D [ %.;.-.X.| ] W E ( | | | ] H Z D J Z ` | ! Z ",
"! | | | | ( S Z Z Z Z ( | | | ' U U Y U U U E ) | ) Z A [ | | { ! E E ~ ) A Z J [ %.;.-...| | ! E E ! ) | | | [ H Z Z D [ ^ Z Z ",
"| | | | E Z Z L ` H Z A ) | | ] T U U U U U U U ) ' Z Z W | | ) E E ^ ] A Z K ' %.;.-...| | { E E E E E ' | | [ J Z D ' / Z Z E ",
"| | | | Z Z E | o.&.L Z A _ ` U U U U ! W T U U ` { G Z Z ) ` E E ! | | P Y ) _ ;.-...| | | | ' ( / W E ) | [ H Z G |  .K Z R | ",
"| | | | ) _ | | @.;.&.L Z Z S A A A H P [ | | | | | [ J Z A Y E W ] | | { ` Y U `  .| | | | | | | | ] ) | ] H Z G O.;.-.` / | | ",
"| | | | | | | |  .&.;.+.Z Z Z Z Z Z Z Z ^ | | | | | | [ D Z Z U ] | | | [ / U U _ | | | | | | | | | | | ] G Z G O.;.;.%.| | | | ",
"| | | | | | | | ' / -.;.o./ ~ ~ ~ J Z Z ) | | | | | | | / Z Z J | | | | ] R U Y { | | | | | | | | | | ] G Z H +.;.;.%. .| | | | ",
"| | | | | | | | ( E ` ;.;.&. .| | _ Z Z ( | | | | | | | | I Z J ' _ _ _ ~ U U / | | | | | | | | | | ' D Z H #.;.;.%. .| | | | | ",
"| | | | | | | | ! E ^ @.;.;.$.| | [ Z Z ! | | [ ! ! ` | | R Z G U U U U U U Y [ _ ^ R R ' | | | | ' D Z H #.;.;.%. .| | | | | | ",
"| | | | | | | | / E ' | %.;.;.+.{ H Z Z _ | | ' E E E ~ ] I Z K U U U U U U Y Y U U U U ( | | | ' D Z K #.;.;.%.| | | | | | | | ",
"| | | | | | | | | | | |  .*.;.*.J Z Z ! | | | | _ W E E W J Z I ^ E R R R U U U U Y E ^ { | | ' D Z J #.;.;.$.| | | | | | | | | ",
"| | | | | | | | | | | | | ..&.I Z Z ! | | | | | | { ( E ~ D Z T ` / E / { ' ~ ~ _ | | | | | ' D Z K { %.;.#.| | | | | | | | | | ",
"| | | | | | | | | | | | | { K Z Z ! | | | | | | | | | | { Z A E ] | | | | | | | | | | | | _ S Z L { | | ..| | | | | | | | | | | ",
"| | | | | | | | | | | | | K Z Z ^ | | | | | | | | | | | _ Z D E { | | | | | | | | | | | ) S Z L { | | | | | | | | | | | | | | | ",
"| | | | | | | | | | | | L Z Z ~ | | | | | | | | | | | | T Z K ` | | | | | | | | | | | [ S Z P | | | | | | | | | | | | | | | | | ",
"| | | | | | | | | | | L Z Z ~ | | | | | | | | | | | | | Y Z T | | | | | | | | | | | | { Z Z G ! [ | | | | | | | | | | | | | | | "
};
