/* XPM */
static char *wall2[] = {
/* columns rows colors chars-per-pixel */
"64 64 256 2 ",
"   c black",
".  c #010101",
"X  c #020202",
"o  c gray1",
"O  c #040404",
"+  c gray2",
"@  c #060606",
"#  c #070707",
"$  c gray3",
"%  c #090909",
"&  c gray4",
"*  c #0B0B0B",
"=  c #0C0C0C",
"-  c gray5",
";  c #0E0E0E",
":  c gray6",
">  c #101010",
",  c #111111",
"<  c gray7",
"1  c #131313",
"2  c gray8",
"3  c #151515",
"4  c #161616",
"5  c gray9",
"6  c #181818",
"7  c #191919",
"8  c gray10",
"9  c #1B1B1B",
"0  c gray11",
"q  c #1D1D1D",
"w  c #1E1E1E",
"e  c gray12",
"r  c #202020",
"t  c gray13",
"y  c #222222",
"u  c #232323",
"i  c gray14",
"p  c #252525",
"a  c gray15",
"s  c #272727",
"d  c #282828",
"f  c gray16",
"g  c #2A2A2A",
"h  c gray17",
"j  c #2C2C2C",
"k  c #2D2D2D",
"l  c gray18",
"z  c #2F2F2F",
"x  c gray19",
"c  c #313131",
"v  c #323232",
"b  c gray20",
"n  c #343434",
"m  c #353535",
"M  c gray21",
"N  c #373737",
"B  c gray22",
"V  c #393939",
"C  c #3A3A3A",
"Z  c gray23",
"A  c #3C3C3C",
"S  c gray24",
"D  c #3E3E3E",
"F  c #3F3F3F",
"G  c gray25",
"H  c #414141",
"J  c gray26",
"K  c #434343",
"L  c #444444",
"P  c gray27",
"I  c #464646",
"U  c gray28",
"Y  c #484848",
"T  c #494949",
"R  c gray29",
"E  c #4B4B4B",
"W  c #4C4C4C",
"Q  c gray30",
"!  c #4E4E4E",
"~  c gray31",
"^  c #505050",
"/  c #515151",
"(  c gray32",
")  c #535353",
"_  c gray33",
"`  c #555555",
"'  c #565656",
"]  c gray34",
"[  c #585858",
"{  c gray35",
"}  c #5A5A5A",
"|  c #5B5B5B",
" . c gray36",
".. c #5D5D5D",
"X. c gray37",
"o. c #5F5F5F",
"O. c #606060",
"+. c gray38",
"@. c #626262",
"#. c gray39",
"$. c #646464",
"%. c #656565",
"&. c gray40",
"*. c #676767",
"=. c #686868",
"-. c DimGray",
";. c #6A6A6A",
":. c gray42",
">. c #6C6C6C",
",. c #6D6D6D",
"<. c gray43",
"1. c #6F6F6F",
"2. c gray44",
"3. c #717171",
"4. c #727272",
"5. c gray45",
"6. c #747474",
"7. c gray46",
"8. c #767676",
"9. c #777777",
"0. c gray47",
"q. c #797979",
"w. c gray48",
"e. c #7B7B7B",
"r. c #7C7C7C",
"t. c gray49",
"y. c #7E7E7E",
"u. c gray50",
"i. c #808080",
"p. c #818181",
"a. c gray51",
"s. c #838383",
"d. c #848484",
"f. c gray52",
"g. c #868686",
"h. c gray53",
"j. c #888888",
"k. c #898989",
"l. c gray54",
"z. c #8B8B8B",
"x. c gray55",
"c. c #8D8D8D",
"v. c #8E8E8E",
"b. c gray56",
"n. c #909090",
"m. c gray57",
"M. c #929292",
"N. c #939393",
"B. c gray58",
"V. c #959595",
"C. c gray59",
"Z. c #979797",
"A. c #989898",
"S. c gray60",
"D. c #9A9A9A",
"F. c #9B9B9B",
"G. c gray61",
"H. c #9D9D9D",
"J. c gray62",
"K. c #9F9F9F",
"L. c #A0A0A0",
"P. c gray63",
"I. c #A2A2A2",
"U. c gray64",
"Y. c #A4A4A4",
"T. c #A5A5A5",
"R. c gray65",
"E. c #A7A7A7",
"W. c gray66",
"Q. c #A9A9A9",
"!. c #AAAAAA",
"~. c gray67",
"^. c #ACACAC",
"/. c gray68",
"(. c #AEAEAE",
"). c #AFAFAF",
"_. c gray69",
"`. c #B1B1B1",
"'. c #B2B2B2",
"]. c gray70",
"[. c #B4B4B4",
"{. c gray71",
"}. c #B6B6B6",
"|. c #B7B7B7",
" X c gray72",
".X c #B9B9B9",
"XX c gray73",
"oX c #BBBBBB",
"OX c #BCBCBC",
"+X c gray74",
"@X c gray",
"#X c gray75",
"$X c #C0C0C0",
"%X c #C1C1C1",
"&X c gray76",
"*X c #C3C3C3",
"=X c gray77",
"-X c #C5C5C5",
";X c #C6C6C6",
":X c gray78",
">X c #C8C8C8",
",X c gray79",
"<X c #CACACA",
"1X c #CBCBCB",
"2X c gray80",
"3X c #CDCDCD",
"4X c #CECECE",
"5X c gray81",
"6X c #D0D0D0",
"7X c gray82",
"8X c #D2D2D2",
"9X c LightGray",
"0X c gray83",
"qX c #D5D5D5",
"wX c gray84",
"eX c #D7D7D7",
"rX c #D8D8D8",
"tX c gray85",
"yX c #DADADA",
"uX c gray86",
"iX c gainsboro",
"pX c #DDDDDD",
"aX c gray87",
"sX c #DFDFDF",
"dX c gray88",
"fX c #E1E1E1",
"gX c #E2E2E2",
"hX c gray89",
"jX c #E4E4E4",
"kX c gray90",
"lX c #E6E6E6",
"zX c #E7E7E7",
"xX c gray91",
"cX c #E9E9E9",
"vX c #EAEAEA",
"bX c gray92",
"nX c #ECECEC",
"mX c gray93",
"MX c #EEEEEE",
"NX c #EFEFEF",
"BX c gray94",
"VX c #F1F1F1",
"CX c gray95",
"ZX c #F3F3F3",
"AX c #F4F4F4",
"SX c gray96",
"DX c #F6F6F6",
"FX c gray97",
"GX c #F8F8F8",
"HX c #F9F9F9",
"JX c gray98",
"KX c #FBFBFB",
"LX c gray99",
"PX c #FDFDFD",
"IX c #FEFEFE",
"UX c white",
/* pixels */
"%.%.%.%.%.+.o. .} U H J K H P I P P I U _ ~ L J H I Y I Q _ |  .o.o.o.o.o.o.o.o.o.@.%.%.%.%.%.%.@.o.o.o.o.| ~ R Y V M V t d a b ",
"E +.+.X.| } } { Q H G F G G G G F H J I Y K F G F G K L I / ] } } } } } } } } } }  .+.O.+.O.O.+.O. .} } } } } I N v h j 9 w w h ",
"I +.{ _ _ _ _ _ ~ K L Q U T S B M F S C G L W P Q Q ~ ( ) _ _ _ _ ) / ) _ _ _ _ _ _ { | | | | | | } ) ) _ ) ~ A l j f j y 4 t j ",
"@.O.` Q Q Q Q Q Q Q Q Q Q P S b C b v K Y Q ! ! ! ! ! ! ! ! ! ! ! U K P W Q Q Q E R E ^ _ _ _ _ _ _ E W Q Y P H j f f h p , 8 y ",
"$.O._ Q Q ~ T Y Y T Q ! ! Q G C J Z b W L I ~ ^ ^ ^ ^ ^ ^ ^ ^ ^ ^ ^ P D J Y Y I K K K K I E ! ~ ^ ^ ~ T Y Y U n j f s s 5 , p V ",
"n _ _ Q Q ^ Q I K U ^ ^ ^ ^ ^ ! K J b I ~ ^ ^ ~ ! ! ! ! ! ! ~ ^ ^ ! H D D H U U L K K K K K K L I E E U U U I m j s t 2 $ > e j ",
"r Q _ Q T ~ R C P ^ Q R I I I L K K C G I Q ^ ^ R Y Y Y Y Y ! ^ ! J D D D D G U Y Y P K K K K K K K F A G K P A h y 7 $ @ # & 7 ",
"u ! _ Q Y T D v Z A B H K K K K K K H K K L Q ^ ~ E R T Y Y E E V A D F D H F I Y Y Y P K K K K L Z v v M G G J j p q $ @ % # , ",
"] } _ W P L M c c c c N K K K K L T ! ~ T K I ^ ^ ^ ^ ^ R Y U A v v N V S I I W Y Y Y Y U I I I U P C m l l x C k d t ; & ; , r ",
" .} / U K D c c c c c c G K L T Q ^ ^ ^ Q K K I Q ! ~ ! T H M c c c v b V J ~ ^ R Y Y Y Y Y Y Y Y Y H V z j j v j g p 2 - 5 p v ",
"[ ] ! U K F c c x x c c V Q ! ^ ^ ^ ^ ^ Q L K K H K G I Z c c c v N V n G E ^ ^ ! ! ! ! Q T Y Y Y I V m S c j j j d i 6 & 1 y c ",
"0 U ! U H G M x c v c c A ^ ^ ^ ^ ^ ^ ~ T I L H v v c v c c c v b G U I Y T ~ ^ ^ ^ ^ ^ ^ E Y Y U N z k V k k B g y e e 4 & 1 k ",
"w ^ ! I D D S x v z c N Q ^ Q E W Q W T D S P V c c v c c N b v K U Y Y Y Y T E E T T T Y L U Y Z c z k c x V S s r w t e , 1 r ",
"~ o.[ T F D D S N x z J Q ! T Y Y Y Y I S D C m v v n v V D n m L I I I I I I I P K K L L P U P m m n v c M Z A d r i i e , 2 9 ",
" .+.| ^ J G D D D m Z Y Y Y Y Y T Q Q P Z C Z V C C V B J G G J K K K K K K K K K K P Y Y Y L v c v m n N A D S c j v k 7 : 8 0 ",
"+.+.| ^ K K G D D C D L P P I P U L m v n P W U I I I I L K K K K K K K K K K L L P Y Y Y Y Y Z j k v b G D Z Z m D Z N 3 : 0 l ",
"%.+.' Y K K K J H H J K K I ! ! E V c n C I L K K P R Q ~ ~ ~ ! Q W T U U U U Y Y Y R R G F D S l j k B P A M M A G A N 2 : 0 b ",
"o.! P F Z K K K K K K K K Y Q C n v v M F K K L W ^ ^ ^ ^ ^ ^ ^ ^ ^ ^ ^ ! W E R R W ^ ~ H D Z b v c v Z Q Y N G P G Z N 2 : q V ",
"$.| ( A m D A J K K K K K K G v v C H K K K K T ^ ^ ^ ^ ^ ^ ^ ^ ^ ^ ^ ^ ^ ^ ^ ^ ^ ^ ^ Q F D B v m m n m V Q J Y I G A N 2 : w C ",
"%.+./ n c c c S G G K K K K K N M K K K H G G G W ^ ^ ^ ^ ^ ^ ^ ^ ^ ^ ^ ^ ^ ^ ^ ~ ~ W G D D V n m m m m m I R Y P G A N 2 : r Z ",
"&.O.Y v c c c v S L I L K K K K K L L G D D D D D I ~ ^ ^ ^ ^ ^ ^ ^ ^ ^ ~ E I F D F D D D F L H G m v v v D L L H F A N 4 : y Z ",
"%.] E G C c c D L L L P I L L L I U H D D D D D D D G I W ^ ^ ^ ^ ! E I K K K F D D D D G I Y Y U v M Z c F K K G Z V m 5 2 p C ",
"$. .( U J M M K K K K K P Y Y Y Y H D D D D D D D D H K I Y T I K K K K K K K J G F F K U I L L L b N J v A K K G Z N v 5 2 u V ",
"o.} / U K J K K K K K K L Y Y I G B n j M S b l N m H J J J J J J J C J J v V K K K L I P K K K K V G K S P U I G Z N v 5 2 u m ",
" .] Q K G J L L H G G G J K G Z M p p p p m V B g p C Z Z Z Z C n b a B B h h z N J K G G G F S G G G G G G L P G Z N v 5 2 u n ",
"' ) K Z Z G G G A Z Z Z Z V N m i t t r r j v a t t n N N M N z d g y d g a p s a x Z C V B N N N V V k C Z S G A Z N v 5 3 u z ",
"_ b b N V A A V N N N N m v v x 8 6 5 6 5 w j u t q 0 d k i x w w e q u p p u s i w j v v v v v v v m h u M V Z V N M v 5 5 r v ",
"P s x b M N N m v v v v c k k 5 o + O O O + : 2 : # + @ $ + % @ @ @ 6 r q c f c v g - r k k k k k k x v * i s 8 n v v l 3 7 p x ",
"u 7 5 5 5 5 5 5 5 5 4 4 3 3 > o o & * * & @ % & = = * * * & * * & # * > & 3 3 3 3 3 < = < , , , , < 3 4 ; & - * , 5 4 1 2 5 w a ",
"u 8 , < 2 3 3 3 3 4 4 5 1 < 2 * @ * , 2 2 & O * 3 1 2 3 3 3 3 3 3 3 3 2 3 3 < 1 , > > , < 2 2 2 2 2 3 4 3 2 4 3 2 1 1 2 1 3 5 0 ",
"t t w q y j u p p m j x b d N v 7 < e v w * @ : d 6 1 e w 7 8 u v v w 5 5 j w w q 0 q 0 0 i i i i s m m p y j h z g 8 h 7 w 0 0 ",
"j j j j v ) G D J _ ) _ _ ) ` _ R A L Y v p p h G j r f j y d M v F V w n L F A j j j k x v v v N K Y Y U L n x P I t F k j j j ",
"] ] ] ` ~ Q ^ ! Q Q ! Q Q / ` / E K L J K K J G B L Q G r a a j | | Y K G G L K Q ' ] ] } | | } Y G G H G L I Y R I H I ] ] ] ] ",
"/ / / ! ^ ] E J L G I J J Q / W L D F G G G A n l P D j 1 6 t x | ' W A C S H S Z ~ ( _ _ L L ` Q V C A C A ! ) _ W Y L ` _ _ ) ",
"Q ! ^ / / _ ] Q D N V N C P S N M c v m m B N v l S v k , > w z | ` ! V B V V C G ! ^ ! Q B S ! L v N C b n F C I ! I R ! ! ! ! ",
"E W W W Q Q Q Q E B c z x c z l j j j j j c B N b m v k , : w c | ` ! H S G S D H Q R G K C M V M c v m C c v C I E W Q E Y U Y ",
"L K K K I Y Y Y Y P M k j j j j j j j j j l n m m b B v 4 , r c | ` ( / P ! Y G D D F S C N m n v v v S K Z F K P Y Y Y U I L L ",
"K K K K I U I P H D D l j j j j j j l c x b m m v N A N 5 < r c | ' { _ Q ^ ~ T G F S B m m m b m G Z J K K K L I Y U L K K K K ",
"K K P I I K K K V z D N k j j j j k V D L V M n x Z A N 5 1 r c | ] { _ ^ ^ ^ ^ W F A N B B m m m V H U U U U U Y I K K K K K K ",
"L U Y U I U U U J V D D N j j k l c A U T I K L D c V N 5 1 e c | } [ _ ^ ^ ^ ~ Q T I S D D Z m m M S D J G G H I K K K K K K K ",
"U Y U Y ~ ^ ^ ^ ! P H F A c l v F H L T ~ ^ ^ ^ Q S j m 5 2 e c | { _ ~ E E R T Y Y P S Z D C m m m A F F F F G K K K K K K K L ",
"T Q ! ^ ^ ^ ^ ^ ^ Q K G D v x C K Y ~ ^ ^ ^ ^ ^ Q U c k 5 2 r c | ] _ Q R W W W E W ! Z m N M m m B D F F F F W Y I P K K K I Y ",
"Q ^ ^ ^ ^ ^ ^ ^ ^ ^ Y J D N m b G ^ ^ ^ ^ ^ ^ ^ Q L C j 4 1 r c | ' _ _ ^ ^ ^ ^ ^ ^ ^ I v v v x b H Z Z V C S Q ^ ^ ~ Y I U Y Y ",
"T ! ~ ^ ^ ^ ^ ^ ^ ^ ^ L D D S b c E ^ ^ ^ ^ ^ ^ Y G V v 3 , t c | ` _ _ ^ ^ ^ ^ ^ ~ Q T Z G V z k I H M m m M N F E ^ ^ ~ Q W Y ",
"Y Y T ! ^ ^ ^ ^ ^ ^ ^ F F F D S Z I W Q Q Q Q R I G B v 3 , t c | ` ) ~ Q ~ ^ ^ Q U K F D D V z j C Y J N b n m m J ! ^ ^ ^ ^ E ",
"I U Y E ~ ^ ~ E E ! E B C A D J E Q Q E T Y Y Y I G N v 3 , t v | ` ( ~ ! ^ ^ ! G D D D D D D M v D U U I N v v n G H ! ~ ~ Q U ",
"K L U Y T R T Y Y Y C b v Z D W ~ T ~ ^ Q U Y Y P S N v 3 , y v | ` ' _ ^ ^ ~ K D D D D D D F L P K K C Z M v V v v m U I P K K ",
"K K L I U U U U I P G m C F F L L F G Q ! L I P G Z N v 3 < y v | ` ` _ ~ W K D D D D D D J U U K K K m c c C N c c M L K K K K ",
"K K K K K K K K K K J n F F F F F D D J G B K K G Z N v 3 1 y c | ` ( Q L G F D D D F J I Y Y Y P K K C V m C H m c N K K K K K ",
"K K K K K K K K K K C b S F F F D V M B v v K K G Z N v 4 - 8 v | ' ) Q Y Y Y U I U Y Y Y Y Y Y U L K K K G v K K G v C J K K K ",
"I I L K K K K K K A n b b M Z G V b A D x c L P G Z N m 5 & 0 n X.} _ Q Y Y Y Y T ~ ^ ~ Q W R Y P K K K K K D J K K Z S K K K L ",
"Y I I P L L L P I L v c v v m K v v N H l j v K G Z N N 5 $ 9 b o.} _ ^ W W E T R ^ ^ ^ ^ ^ ^ ~ R K K K K K I U I I F F H K I Y ",
"K D D F P Y Y Y Y Y H A m c S D v B V G Z V b b D Z B m ; $ w x O.| } _ ^ ^ ^ ~ R R W Q ^ ^ ^ ^ ^ T K K K I ^ ^ ^ W D S G U Y Y ",
"H D D D K Y Y Y Y U L J b D K H B G D D D D S z A Z V z O : e B | | | _ ^ ^ ^ ^ ^ ! W E T Q ^ ^ ^ ! U L K I ~ ^ ^ ^ Q Q R Y Y Y ",
"U L L P Y Y Y U P K K K Z L G F D D D D D D m m Z Z V n $ ; < 7 t R [ ! ^ ^ ^ ^ ^ ^ ^ ^ W T ! ^ ^ ^ ^ ~ I K P Q ^ ^ ! R Y Y Y Y ",
"Y Y Y Y Y Y Y I K K K L I G M D D D D D D D B A Z Z C v > O $ = 7 Q ` I I ^ ^ ^ ^ ^ ^ ^ Q Y T ! ^ ^ ^ ^ Y K K I Q Q T Y Y Y Y Y ",
"I I I I I I I L Z V G G G Z V Z Z Z Z Z Z Z Z Z C Z C k , * o * w K E I S L L I I U T Y I I I I U U U I K L P I I I I I I I I I ",
"F F F D G G G m v z m Z B N N N N N N N N N N N B S C , , & o : v n B n N Z Z Z S G G G G G G G F G G G G G G G F D D D D D D F ",
"v v v v v n V a p j h N v v v v v v v v v v n N Z Z C $ & - O 2 x P Z N N N B Z A A A A A A A N p x c n Z A A V v v v v v v v v ",
"k k k k k k v x e , , x k k k k k k k l x m N N N N c 2 ; : 3 8 f v v v v v v b m M M M N M h > @ & & # = q v y d k k k k k k k ",
"< , , , , , 2 5 : * ; < < , , , < 2 3 4 5 5 5 5 5 5 5 4 5 5 9 0 q 5 3 3 3 3 3 3 3 3 3 4 5 5 : & & * $ O # & & - > 3 2 2 2 2 2 2 ",
"1 , : : : > 5 5 5 5 5 4 2 3 2 3 2 2 2 2 2 2 2 2 2 4 6 0 9 5 8 8 0 q 1 < < < < < < < < < 2 3 5 6 5 < , $ > 2 - 2 5 4 2 3 3 3 3 3 ",
"i p u r e 9 d z c k j w w z q y t a l a f h p l c n c v h t w i e d p t t y y y y y i a a t p y e e e w r r 3 s t < 4 r i i i i ",
"N C Z C V M N M G Y I J K Y S C K U Y Y I T I Y U U Y P l w x v m m m m m m m m m M C C C V C V M n n v b C h Y J p p v f f f g "
};
