/* XPM */
static char *wall1[] = {
/* columns rows colors chars-per-pixel */
"64 64 256 2 ",
"   c black",
".  c #010101",
"X  c #020202",
"o  c gray1",
"O  c #040404",
"+  c gray2",
"@  c #060606",
"#  c #070707",
"$  c gray3",
"%  c #090909",
"&  c gray4",
"*  c #0B0B0B",
"=  c #0C0C0C",
"-  c gray5",
";  c #0E0E0E",
":  c gray6",
">  c #101010",
",  c #111111",
"<  c gray7",
"1  c #131313",
"2  c gray8",
"3  c #151515",
"4  c #161616",
"5  c gray9",
"6  c #181818",
"7  c #191919",
"8  c gray10",
"9  c #1B1B1B",
"0  c gray11",
"q  c #1D1D1D",
"w  c #1E1E1E",
"e  c gray12",
"r  c #202020",
"t  c gray13",
"y  c #222222",
"u  c #232323",
"i  c gray14",
"p  c #252525",
"a  c gray15",
"s  c #272727",
"d  c #282828",
"f  c gray16",
"g  c #2A2A2A",
"h  c gray17",
"j  c #2C2C2C",
"k  c #2D2D2D",
"l  c gray18",
"z  c #2F2F2F",
"x  c gray19",
"c  c #313131",
"v  c #323232",
"b  c gray20",
"n  c #343434",
"m  c #353535",
"M  c gray21",
"N  c #373737",
"B  c gray22",
"V  c #393939",
"C  c #3A3A3A",
"Z  c gray23",
"A  c #3C3C3C",
"S  c gray24",
"D  c #3E3E3E",
"F  c #3F3F3F",
"G  c gray25",
"H  c #414141",
"J  c gray26",
"K  c #434343",
"L  c #444444",
"P  c gray27",
"I  c #464646",
"U  c gray28",
"Y  c #484848",
"T  c #494949",
"R  c gray29",
"E  c #4B4B4B",
"W  c #4C4C4C",
"Q  c gray30",
"!  c #4E4E4E",
"~  c gray31",
"^  c #505050",
"/  c #515151",
"(  c gray32",
")  c #535353",
"_  c gray33",
"`  c #555555",
"'  c #565656",
"]  c gray34",
"[  c #585858",
"{  c gray35",
"}  c #5A5A5A",
"|  c #5B5B5B",
" . c gray36",
".. c #5D5D5D",
"X. c gray37",
"o. c #5F5F5F",
"O. c #606060",
"+. c gray38",
"@. c #626262",
"#. c gray39",
"$. c #646464",
"%. c #656565",
"&. c gray40",
"*. c #676767",
"=. c #686868",
"-. c DimGray",
";. c #6A6A6A",
":. c gray42",
">. c #6C6C6C",
",. c #6D6D6D",
"<. c gray43",
"1. c #6F6F6F",
"2. c gray44",
"3. c #717171",
"4. c #727272",
"5. c gray45",
"6. c #747474",
"7. c gray46",
"8. c #767676",
"9. c #777777",
"0. c gray47",
"q. c #797979",
"w. c gray48",
"e. c #7B7B7B",
"r. c #7C7C7C",
"t. c gray49",
"y. c #7E7E7E",
"u. c gray50",
"i. c #808080",
"p. c #818181",
"a. c gray51",
"s. c #838383",
"d. c #848484",
"f. c gray52",
"g. c #868686",
"h. c gray53",
"j. c #888888",
"k. c #898989",
"l. c gray54",
"z. c #8B8B8B",
"x. c gray55",
"c. c #8D8D8D",
"v. c #8E8E8E",
"b. c gray56",
"n. c #909090",
"m. c gray57",
"M. c #929292",
"N. c #939393",
"B. c gray58",
"V. c #959595",
"C. c gray59",
"Z. c #979797",
"A. c #989898",
"S. c gray60",
"D. c #9A9A9A",
"F. c #9B9B9B",
"G. c gray61",
"H. c #9D9D9D",
"J. c gray62",
"K. c #9F9F9F",
"L. c #A0A0A0",
"P. c gray63",
"I. c #A2A2A2",
"U. c gray64",
"Y. c #A4A4A4",
"T. c #A5A5A5",
"R. c gray65",
"E. c #A7A7A7",
"W. c gray66",
"Q. c #A9A9A9",
"!. c #AAAAAA",
"~. c gray67",
"^. c #ACACAC",
"/. c gray68",
"(. c #AEAEAE",
"). c #AFAFAF",
"_. c gray69",
"`. c #B1B1B1",
"'. c #B2B2B2",
"]. c gray70",
"[. c #B4B4B4",
"{. c gray71",
"}. c #B6B6B6",
"|. c #B7B7B7",
" X c gray72",
".X c #B9B9B9",
"XX c gray73",
"oX c #BBBBBB",
"OX c #BCBCBC",
"+X c gray74",
"@X c gray",
"#X c gray75",
"$X c #C0C0C0",
"%X c #C1C1C1",
"&X c gray76",
"*X c #C3C3C3",
"=X c gray77",
"-X c #C5C5C5",
";X c #C6C6C6",
":X c gray78",
">X c #C8C8C8",
",X c gray79",
"<X c #CACACA",
"1X c #CBCBCB",
"2X c gray80",
"3X c #CDCDCD",
"4X c #CECECE",
"5X c gray81",
"6X c #D0D0D0",
"7X c gray82",
"8X c #D2D2D2",
"9X c LightGray",
"0X c gray83",
"qX c #D5D5D5",
"wX c gray84",
"eX c #D7D7D7",
"rX c #D8D8D8",
"tX c gray85",
"yX c #DADADA",
"uX c gray86",
"iX c gainsboro",
"pX c #DDDDDD",
"aX c gray87",
"sX c #DFDFDF",
"dX c gray88",
"fX c #E1E1E1",
"gX c #E2E2E2",
"hX c gray89",
"jX c #E4E4E4",
"kX c gray90",
"lX c #E6E6E6",
"zX c #E7E7E7",
"xX c gray91",
"cX c #E9E9E9",
"vX c #EAEAEA",
"bX c gray92",
"nX c #ECECEC",
"mX c gray93",
"MX c #EEEEEE",
"NX c #EFEFEF",
"BX c gray94",
"VX c #F1F1F1",
"CX c gray95",
"ZX c #F3F3F3",
"AX c #F4F4F4",
"SX c gray96",
"DX c #F6F6F6",
"FX c gray97",
"GX c #F8F8F8",
"HX c #F9F9F9",
"JX c gray98",
"KX c #FBFBFB",
"LX c gray99",
"PX c #FDFDFD",
"IX c #FEFEFE",
"UX c white",
/* pixels */
"8 8 h C o.@.@.@.@.@.@.@.@.Q n b b b n L ..+.+.+.+.+.+.@.@.@.@.@.@.@.@.o.| | | | W B B E  . . ...#.#.#.@.+.+.+.| k y y r 8 8 8 8 ",
"8 8 c ..@.@.@.@.+.@.@.@.W N n b b b b b C  .+.+.+.+.+.+.@.@.@.@.@.@.@.| | | | | Q B B R  . . . .O.#.#.#.+.+.+.+.| l u r 8 8 8 8 ",
"w k  .@.@.@.@.@.@.@.@.{ N N L U D n b b b L +.+.+.+.+.+.@.@.@.@.@.@...| | | | | Q B N H  . . . . .@.#.#.+.+.+.+.+.| l a p w 8 8 ",
"c | +.@.@.@.@.@.@.@.@.U N F R R R D b b b V +.+.+.+.+.+.@.@.@.@.@.+.| | | | | | Q M n D  . . . . .o.#.#.+.+.+.+.+.+.| l d s w e ",
"| O.O.o.@.@.+.O.O.| / R H R R R R C b b b N T T W ^ ^ ^ ^ ^ ) ) ^ ^ ~ Q W W W W I n n M E  . . . . .{ / ^ ^ ^ / _ ] ] ( k d s h ",
"O.O.O.O.+.+.O.O.} E R R R R R R J b b b b V H H U R R R R W ) ( R R R Y Y Y Y Y I n n N ^ } ..........{ Q E E E E / ) ) V d d M ",
"O.O.O.O.O.O.O...W R R R R R R Y n b b b M G H H T R R R R ( ) ) E R R T Y Y Y Y I M M W ( ( | ..........| Q E E E E ( ) G g d M ",
"+.+.+.+. .o.O. .E R R R R R R F b b b B G H H H T R R R W ) ) ) ^ R R T Y Y Y Y J M U ( ( ( ] o.o.........| Q E E E Q ( B b f M ",
"@.@.@.@./ R Q ) _ ^ ~ ^ ^ Q W Y C D F H J J J L I U R R Q ~ / ) ) E R T Y Y Y T W W ( ( ( ( [ o.o.o.........] E E E E W b l B G ",
"@.@.@.@./ R R R R ~ ) ) ) ) ) ) ) ~ I I I I I I I I R Y R ~ ~ ( ) / E T Y Y T ( ( ( ( ( ( (  .o.o.............^ E E E E c k C K ",
"@.@.@.@./ R R R R R Q ) ) ) ) ) ) ) ^ E Y I I I I G c l l x D W ) ) ) / ~ Q ) ) ( ( ( ( ( [ o.o.o............._ E E E E b N C K ",
"@.@.@.@./ R R R R R R ^ ) ) ) ) ) ) ` ` } ` I I F l l l l l c J ( ) ) ) ) ) ) ) ( ( ) _ { o.o.o...} { | ......{ E E E E D C C L ",
"@.@.@.@...{ ) R R R R W ) ) ) ) _ ` ] ] | +./ Y v l l x M M Z F ~ ) ) ) ) ) ) _  .o.O.O.o.o.o.{ Q R R E _ ....../ E E E F C Z L ",
"@.@.@.@.o.....) R R R E ) ) ) _ ] ] ] [ ..+.O.T l l v A A A A A Q ^ ( ) ) ) ( } +.+.+.+.o.o.{ E R R R R E | ....| Q E E G A A F ",
"@.@.@.@.o.....[ R R R E ) ) ) ] ] ] [ ..O.+.+.) l l B A K G A A E ~ ~ ~ ~ ~ ( O.+.+.+.+.o.{ E R R R R R ~  .......| ( E G A n M ",
"@.@.+.+.o.....~ R R R Q ) ) ) [ { | ..o.o.+.+.O.z l C L ~ Q G A E ~ ~ ~ ~ ) o.+.+.+.+.O.) R R R R R E ( {  ...........} J Z z M ",
"O.O.O.O.o.../ R R R R ( ` {  .o.o.o.o.o.o.O.+.+.R H R ~ ~ ~ W Y ~ ^ ) ] ..+.+.+.+.O.` W R R R R R Q ( ) ) ) { ..........K C k M ",
"O.O.O.O.{ Q R R R R ) o.O.O.o.} }  .o.o.o.o.+.+.+. .| / ~ ~ ~ ~ ) ..o.O.+.+.+.+...~ R R R R R R ^ ) ) ) ) ) ) [ ........K N s v ",
"O.O.O.O.^ R R R R ( O.O.O. .Q R R W ] o.o.o.O.+.+.O. .` ~ ~ ~ ^  .o.O.+.+.+.+.{ W R R R R R R ^ ) ) ) ) ) ) ) ) } ......H h t x ",
"o.o.o.o.^ R R Q [ O.O.O...Q R R R R R ) o.o.o.+.+.+.o.| ) ~ ~ [  ...O.O.o._ W R R R R R R R ^ ) ) ( ( ) ) ) ) ) _  .....B f r x ",
"........_ ( ` } | | O...Q R R R R R R R Q _ | O.O.+.+.o. .{ } o.|  .} ( W R R R R R R R R ^ ) ) ( ~ ~ ^ ( ) ) ) ( [ ....J B s c ",
"........` ) ) _ ` ` ] W R R R R R R R R R R R ) O.O.+.+. ...o.o.{ ( E R R R R R R R R R ~ ) ) ) ~ ~ ~ ~ ~ ( ) ) ( )  ...K V g v ",
"........` ) ) _ ` _ E R R R R R R R R R R R R R ] +.+.O...o.o.{ R R R R R R R R R R R ~ ) ) ( ^ ~ ~ ~ Q ~ ~ ( ( ( ( [ ..A g p x ",
"[ ......` ) ) ) ` ) R R R R R R R T T R R R R R _ ......o.o.o.] R R R R R R R R R E ^ ) ) W K H Y E ~ Q Q ~ ~ ^ ( ( _ [ h u r a ",
"k { ....` ( ( ( ) ` ~ R R R R R U F G Y R R R Q _ ) ` ........ .^ R R R R R R E / ( ) W n h h B V V A U ~ ~ ~ ~ ~ ^ Q x y r r r ",
"a c { .._ ( ( ( _  . .~ R R R U D A A H R R E ) ) ) ) { .........._ W R R R ~ ) ) ) I k h h l M B B V V U ~ ~ ~ ~ E l a r r e e ",
"p s c { _ ( ( ( | ..../ R R Y D A A A D T R ~ ) ) ) ) _  ........... .[ [ } { ) ) Y h h h c n n n M V V C E ~ ~ E l s p r w 6 7 ",
"8 t u k ^ ( ( [ .... .W R R G A A A A A U R Q ) ) ) ) ) ] ....................] ) x h h l n n n n n N V V H ~ R g s s y w 7 6 6 ",
"6 6 q e u h h l z z k d d s p p s s d d f g g k k k k k k z z z l l l l l z z l h u u u p a d l b n n n x s g u e r t w 6 6 6 6 ",
"6 6 q e e r p a p p u t e q q q q w r r r r r r r e r r r r r e w w w w w e r r r r r p h c b n n n n n n l r e e e e q 6 6 6 6 ",
"9 w e r g b M n n n n b b x y q q q w e r r r e q q q w q w e w w w w w w e r r r t k n n n n n n n n n n n s e e e e e q 9 9 8 ",
"x x c D H G F F F F F F F A n d f h l l z x x l l l k t q q r y e q w w w e t y s B F F F F F F F Z Z Z A D C l k l l l l z x x ",
"@.@.@.@.@.o...........] G b b b b n W @.@.@.@.@.@.@...[ d r a y 8 7 8 q a s s x } o.o.o.o.o.o.o.| / / ( } } } } } } } }  .+.@.@.",
"@.@.@.@.O...........W n b b b n B b b ^ @.@.@.@.@.o.....{ x s q 7 7 7 7 y s x } o.o.o.o.o.........[ / ` } } } } } } } ..@.@.@.@.",
"@.@.@.@...........T b b b N F L L D b N o.@.@.@.+.........{ z 9 7 7 7 7 u x } o.o.o.o.o...........] / [ } } } } }  .@.@.@.@.@.@.",
"@.@.@.+........./ b b b C L L L L L B b ` @.@.@.o...........` u 7 7 7 7 d } o.o.o.o.o...........{ / / ] } } } }  .@.@.@.@.@.@.@.",
") o.o.o.{ ` ` ` V b b Z L L L L L I Y L } o.o..... .[ [ ] [ ` / w 7 7 e { o.o.o.o.o.....] ] ` ` ) ) ) {  .) / / / / / / / / / / ",
"~ o.o.o. .` ) ^ b b M L L L L L T ~ ~ ~ | o.o.o.o...} ` ` ` ` ` f w w k o.o.o.o.o.....{ ) ) ) ) ) ) | o.) ~ ~ ~ Q R R R R R R R ",
"~ o.o.o.o.o.[ E b b C L L L L R ~ ~ ~ ^ ..o.o.o.o.o...{ ` ` ` ` h w w l o.o.o.o.o...| ) ) ) ) ) _ { o.[ ~ ~ ~ ~ W R R R W W R R ",
") o.o.o...o...^ b b G L L I W ~ ~ ~ ^ ) o.o.o.o.o.o... .` ` ` ` h w w l O.O.O.o... .` ) ) ) ) ` ..o.o.^ ~ ~ ~ ~ E R R E ) ) E R ",
"| o.o.o...o.o.{ L C I Y E ~ ^ ^ / ( ) [ O.+.+.+.+.O... .` ` ` ` h e e z O.O.O.O. .` ) ) ) ) ] ..o.o.O.( Q Q W E R R R / ) ) ( ( ",
" .o.o.o.o.o.o.o.{ ) ) ) ) ) ) ) ) ) ` ..O.+.+.+.+.O... .` ` ` ` l r r x O.O.O.O.] ) _ ) ) { o.o.o.+.{ R R R R R R R E ) ) ) ) ) ",
"..o.o.o.o.o...o.o.| ) ) ) ) ) ) _ } o.o.o.O.+.+.O.......} ` ` ` k r r x O.O.O.O.] ) ) ) } o.o.O.+.o.E R R R R R R R ^ ) ) ) ) _ ",
"o.o.o.o.o.......o.o.{ ` ` ] ]  .o.o.o.o.O.+.+.o.[ { .... .` ` ` k r r x +.+.+.+.] ) _ | o.o.O.+.+.) R R R R R R R R ^ / ( ) ) ` ",
"o.o.o.o.........o.o.o.O.+.+.+.+.+.+.+.+.+.O.( R R R ~ | ] ` ` ` v r r c #.#.#.#.[ `  ...o.O.+.+...R R R R R R R R W Q Q Q ) ) { ",
"o.o.o.........o.o.o.o.O.+.+.+.+.+.+.O.+.o.Q R R W E R ~ ` ` ` ` D s r c #.#.#.#.| ......o.+.+.+.) R R R R R R R E Q Q Q ~ ) _ ..",
"o.o.......o.+.O.o.o.o.o.O.+.+.+.+.+.+.+.^ R W ( ) ( R R ` _ ` ` D c r c #.#.#.#.o.......+.+.+.+.W R R R R R R E Q Q ^ ( ) ) [ o.",
"o....... . .} { ` _ ` ] { ..O.+.+.+.+. .R E ) ) ) ) W R ) ` ` ` D k r x o.o.o.O.......O.+.+.+. .R R R R R R R W Q ~ ) ) ) ` ..o.",
"......` Q R R R R R R R R R Q ] O.+.+.} E ^ ) ) ) ) W R ) _ ` ` M t r x ..............O.+.+.+.] R R R R R R Q Q Q / ) ) )  .o.o.",
"...._ R R R R R R R R R R R R R / o.+.} ) ) ) ) ) ( R R [ / ^ ^ k r r x ........ .....O.+.+.+._ R R R R R E ) ( ( ) ) ) _ ..o.o.",
"..` R R R R R R R R R R R R R R R Q o.| ) ) ) ) ( W R Q | ` ~ ~ C l y x ........[ ......+.+.+.( R R R R R / ) ) ) ) ) ) _ ..o.o.",
"{ E R R R R R R R R R R R R R R R R } o.) ) ) / R R E `  .} ~ ~ A N k x o.o.o.o.`  .....o.+.O._ E R R R Q ) ) ~ H Y ~ ) ` o.o.o.",
"^ R R R R R R R R R Y I L U U ~ / _ o...[ ) ) ( W ~ )  . . .` ~ A N n b O.O.O.O.] { ......o.O.` ( ~ ^ / ) T c p p d l c ^ o.o...",
"E R R R R R R R H n z z V D D J ` ........[ ) ) ) _ | o. . . .[ A N M D O.O.O.O.] _  .......o.] ) ) ) ( N p p p p h l l B o.o.| ",
"R R R R R R U v k k N Y T G D D F / {  ..... .} | o.o... . . . .G N N H O.O.O.O.] ) [ ........{ ) ) Q z p p p p s l l l b o.o.{ ",
"W R R E Q ^ ^ A k c Y R R Y D D D G ^ ) _ [ { }  ...o. . . . .{ V N N C  .O.O.O.` ) )  .........] / f p p p p a h l l x I o.o. .",
"{ Q ~ / / / / W L U R R R R J D D D H / ) ) ) ) ) ) ` {  . .{ A N N N N V | O.O.] ) ) ] ........| J l a p a l I ~ ` o.+.+.+.+.o.",
"o.| ) / / / / ~ R R R R R R Y D D D D I ) ) ) ) ) ) ) ) ` { A N N N N N n b | O.] ) ) )  .......T G G G D J [ o.o.O.+.+.+.+.+.+.",
"O.o..._ / / / / E R R R R U G D D D D F ^ ) ) ) ) ) ) ) / Z N N N N N N N c v ` ` ) ) ) { ...._ G G G G H [ o.o.O.+.+.+.+.+.+.+.",
"+.o.o.| / / / / ^ E R R Y D D D D D D D T ) ) ) ) ) ) / C N N N N N N N N N k v / ) ) ) ] ....T G G G G ^ o.o.O.+.+.+.+.+.+.+.+.",
"x z z l h h g d d s a a a y y y y p c M B C C b f f k d s f z b M N N N N N b d a k k k k z l p u u u u g h l x x x x x x x x x ",
"e e e e e y s d a t w w 9 8 8 8 q k v v v v k w q w r r r q 6 7 q s M N N N N d r r r r r e 9 8 8 8 8 8 w e e e e e e e e e e e ",
"e e e u l c v c z l l l k g y r z v v v v h w q q r r e w w q 7 6 6 e v N N N n p r r r e 9 8 8 8 8 8 w e e e e e e e e e e e e ",
"w w t x N D Z C C C C C C C B b n B A D B l k k z x x z z z z k g g g h C F F F N f g h h g g g h h h z x x z a e e e e w w w w "
};
