/* XPM */
static char *wall3[] = {
/* columns rows colors chars-per-pixel */
"64 64 256 2 ",
"   c black",
".  c #010101",
"X  c #020202",
"o  c gray1",
"O  c #040404",
"+  c gray2",
"@  c #060606",
"#  c #070707",
"$  c gray3",
"%  c #090909",
"&  c gray4",
"*  c #0B0B0B",
"=  c #0C0C0C",
"-  c gray5",
";  c #0E0E0E",
":  c gray6",
">  c #101010",
",  c #111111",
"<  c gray7",
"1  c #131313",
"2  c gray8",
"3  c #151515",
"4  c #161616",
"5  c gray9",
"6  c #181818",
"7  c #191919",
"8  c gray10",
"9  c #1B1B1B",
"0  c gray11",
"q  c #1D1D1D",
"w  c #1E1E1E",
"e  c gray12",
"r  c #202020",
"t  c gray13",
"y  c #222222",
"u  c #232323",
"i  c gray14",
"p  c #252525",
"a  c gray15",
"s  c #272727",
"d  c #282828",
"f  c gray16",
"g  c #2A2A2A",
"h  c gray17",
"j  c #2C2C2C",
"k  c #2D2D2D",
"l  c gray18",
"z  c #2F2F2F",
"x  c gray19",
"c  c #313131",
"v  c #323232",
"b  c gray20",
"n  c #343434",
"m  c #353535",
"M  c gray21",
"N  c #373737",
"B  c gray22",
"V  c #393939",
"C  c #3A3A3A",
"Z  c gray23",
"A  c #3C3C3C",
"S  c gray24",
"D  c #3E3E3E",
"F  c #3F3F3F",
"G  c gray25",
"H  c #414141",
"J  c gray26",
"K  c #434343",
"L  c #444444",
"P  c gray27",
"I  c #464646",
"U  c gray28",
"Y  c #484848",
"T  c #494949",
"R  c gray29",
"E  c #4B4B4B",
"W  c #4C4C4C",
"Q  c gray30",
"!  c #4E4E4E",
"~  c gray31",
"^  c #505050",
"/  c #515151",
"(  c gray32",
")  c #535353",
"_  c gray33",
"`  c #555555",
"'  c #565656",
"]  c gray34",
"[  c #585858",
"{  c gray35",
"}  c #5A5A5A",
"|  c #5B5B5B",
" . c gray36",
".. c #5D5D5D",
"X. c gray37",
"o. c #5F5F5F",
"O. c #606060",
"+. c gray38",
"@. c #626262",
"#. c gray39",
"$. c #646464",
"%. c #656565",
"&. c gray40",
"*. c #676767",
"=. c #686868",
"-. c DimGray",
";. c #6A6A6A",
":. c gray42",
">. c #6C6C6C",
",. c #6D6D6D",
"<. c gray43",
"1. c #6F6F6F",
"2. c gray44",
"3. c #717171",
"4. c #727272",
"5. c gray45",
"6. c #747474",
"7. c gray46",
"8. c #767676",
"9. c #777777",
"0. c gray47",
"q. c #797979",
"w. c gray48",
"e. c #7B7B7B",
"r. c #7C7C7C",
"t. c gray49",
"y. c #7E7E7E",
"u. c gray50",
"i. c #808080",
"p. c #818181",
"a. c gray51",
"s. c #838383",
"d. c #848484",
"f. c gray52",
"g. c #868686",
"h. c gray53",
"j. c #888888",
"k. c #898989",
"l. c gray54",
"z. c #8B8B8B",
"x. c gray55",
"c. c #8D8D8D",
"v. c #8E8E8E",
"b. c gray56",
"n. c #909090",
"m. c gray57",
"M. c #929292",
"N. c #939393",
"B. c gray58",
"V. c #959595",
"C. c gray59",
"Z. c #979797",
"A. c #989898",
"S. c gray60",
"D. c #9A9A9A",
"F. c #9B9B9B",
"G. c gray61",
"H. c #9D9D9D",
"J. c gray62",
"K. c #9F9F9F",
"L. c #A0A0A0",
"P. c gray63",
"I. c #A2A2A2",
"U. c gray64",
"Y. c #A4A4A4",
"T. c #A5A5A5",
"R. c gray65",
"E. c #A7A7A7",
"W. c gray66",
"Q. c #A9A9A9",
"!. c #AAAAAA",
"~. c gray67",
"^. c #ACACAC",
"/. c gray68",
"(. c #AEAEAE",
"). c #AFAFAF",
"_. c gray69",
"`. c #B1B1B1",
"'. c #B2B2B2",
"]. c gray70",
"[. c #B4B4B4",
"{. c gray71",
"}. c #B6B6B6",
"|. c #B7B7B7",
" X c gray72",
".X c #B9B9B9",
"XX c gray73",
"oX c #BBBBBB",
"OX c #BCBCBC",
"+X c gray74",
"@X c gray",
"#X c gray75",
"$X c #C0C0C0",
"%X c #C1C1C1",
"&X c gray76",
"*X c #C3C3C3",
"=X c gray77",
"-X c #C5C5C5",
";X c #C6C6C6",
":X c gray78",
">X c #C8C8C8",
",X c gray79",
"<X c #CACACA",
"1X c #CBCBCB",
"2X c gray80",
"3X c #CDCDCD",
"4X c #CECECE",
"5X c gray81",
"6X c #D0D0D0",
"7X c gray82",
"8X c #D2D2D2",
"9X c LightGray",
"0X c gray83",
"qX c #D5D5D5",
"wX c gray84",
"eX c #D7D7D7",
"rX c #D8D8D8",
"tX c gray85",
"yX c #DADADA",
"uX c gray86",
"iX c gainsboro",
"pX c #DDDDDD",
"aX c gray87",
"sX c #DFDFDF",
"dX c gray88",
"fX c #E1E1E1",
"gX c #E2E2E2",
"hX c gray89",
"jX c #E4E4E4",
"kX c gray90",
"lX c #E6E6E6",
"zX c #E7E7E7",
"xX c gray91",
"cX c #E9E9E9",
"vX c #EAEAEA",
"bX c gray92",
"nX c #ECECEC",
"mX c gray93",
"MX c #EEEEEE",
"NX c #EFEFEF",
"BX c gray94",
"VX c #F1F1F1",
"CX c gray95",
"ZX c #F3F3F3",
"AX c #F4F4F4",
"SX c gray96",
"DX c #F6F6F6",
"FX c gray97",
"GX c #F8F8F8",
"HX c #F9F9F9",
"JX c gray98",
"KX c #FBFBFB",
"LX c gray99",
"PX c #FDFDFD",
"IX c #FEFEFE",
"UX c white",
/* pixels */
"l l l h a a a p y y y y y y y y f l l l l l l l u y y y y y y y y y y y y y y y y y y y y y y y a a a a h l l l l l l l l l l l ",
"l l v x k k k k h h h h h h h k v m m m v v v v h f f f f f f p y u f f f f f f f f f f h h h k x x x x v m m m x x x x x x x l ",
"l v H H H H H H ! ! ! ! ! ! ! ! ! ! ! ! H H H H H H H H H F A M y f A A A A A A H H H H ! ! ! ! ! ! ! ! E E E E A A A A A A A B ",
"l v H H F F F H U U U U U U U U U U U U H F F F F F F F F F B x y f A A V V A A F F F H U U U U U U U U P P P P F V V V V V V n ",
"l x A A M M B V V V V V V V V V V V V V V V V V V V M M M M k h u f A V M M V V V M M M B V V V V V V V V V M M B V B M v v l l ",
"l x A V M M M B V V V V V V V V V V V V V V V V V M M M M M k h l x A V M M B V V V B B V V V V V V V V V B M M M B M M v x l l ",
"l x A V M M M B V V V V V V V B V V V V M B V V M M M M M M k h l x A V M M M M M B B V V V V V V B V V B M M M M M M M v x l l ",
"l x A V M M M V V B B B V V V V V V V V M M B B M M M M M M k h l x A V M M M M M M M B V V V V V V V V B M M M M M M M v x l l ",
"l x A V M M V B M M M B V V V V V V V V B M M M M M M M M M k h s k A V M M M M M M M M V V V V B M M B V M M M M M M M v x l l ",
"l x A V M M B M M M M M V V V V V V B B V B M M M M M M M M h f s h A V M M M M M M M M M M B B M M M M B V M M M M M M v x l l ",
"l x A V M M M M M M M V V V V V B M M M M V B M M M M M n x h f s h A V M M M M M M M m c x n M M M M M M M M M B B M M v x l l ",
"l x A V M M M M M M V V V V V B M M M M M M B B M M n x l g s f s h A V M M M M M M m c x x c M M M M M M M M M M B B M v x l l ",
"l x A V M M M M M V B M n n M M M M M M M M M M m x l l g p u p s h A A B M M M M m c x x x c M M M M M M M M M M M M M l h l l ",
"l x A V M M M M V M m n x x n M M M M M M M m v l l l g p p u p s h A A V B M M m c x x x x c M M M M M M M M M M M M M k h l l ",
"l x A V v v v n x k h h h h h l v v v x l l h h h f p u u u u p s h A V n n n x k k h h h h k l l k l v v v x l k k k k h h l l ",
"l l B m x l x l f f f f f f f f k k k h f f s s s s u u u u u u p f M n k k k h h g f f f f g g f s f h h h h f s s s f f f h h ",
"l l l h s s s s s s s s s s s s p p p p y y y y y y y y p p p y y y y y u p p p a s a a a a a a y y y y y y y y y y y y a a a f ",
"x x x l h h h h s f k l x x x x k k k h h h h h h h h h k k h f f f f f f h h f a f k k k k k k f f f f f f f f f f f f h h h h ",
"A A A A A A A M s k H L ! ! ! ! ! ! ! ! ! ! ! ! ! ! ! ! ! ! H H H H H H H H H A a k H H H H H H H H H H A A A A A A A A A A A A ",
"V V V V V V B n s k H K U U U U U U U U U U U U U U U U U U H F F F F F F F F V a k H H F F F F F F F F A V V A A V V V V V V V ",
"M M M M M M k h s k A A M M M M V V M M M M M M M M M M M M M M B V V B M M v x h c P H M M M M M M B V M M M B V B M M M M M M ",
"M M M M M M k h l x A V M M M M V C V B B M M M M M M M M M M M M B V V B M v x l v P H M M M m n n V B M M M B V M M M M M M M ",
"M M M M M M k h l x A V M M M M M V C C C V B M M V M M M M M M M M B V V M v x l v P H M M M n x x M M M M M V B M M M M M M M ",
"M M M M m c h h h l A V M M M M M M V C V C C B V V M M M M M M M M M B V V n v l n P H M M M m x x n M M M B V M M M M M M M M ",
"M M M m c x h g s h A V M M M M M M M V C V V C C V M M M M M M M M M M B V n n m A P H M M M M n x x m M M M M M M M M M M M M ",
"M M m c x x h f s h A V M M M M M M M M V C C C V M M M M M M M M M M M M B x n V A P H M M M M m x x c M M M M M M M M M M M M ",
"M m c x l l h f s h A V M M M M M M M M M V C V M M M M M M M M M M M M M M l x V A A A M M M M x l l l n M M M M M M M M m l v ",
"c x x l l l h f s h A V M M M M M M M M M M V C V M M M M M M M M M M m n x k x m V A V M M M m l l l l l m M M M M M M M n l l ",
"x x x l l l h f s h A V M M M M M M M M M M M V C V M M M M M M M n n x x l h h l v A V M M M M l l l l l x M M M M M M M x l l ",
"x x x l l l h f s h A V M M M M M M M M M M M M V C V M M M M n c x x l l l h h l x A V M M M M n l l l l l n M M M M M n l l l ",
"h h h h h h h f s h A V v v v x l l l l l x v v n v x x v v x k h h h h f a a f l x A V v v x l l k h h h h h k l x v v l h h h ",
"h h h h h h h s p f M n h h h h f f f f g h l x l k g h x l h g f f f f p p p s l l B m x x k k k k h h h h h h k k x x h h h h ",
"l l l l l l g y y y y y y y y y y y y y p a a a a s s s s s s s s s s s s s s s l l l l l l l l l l l l l l l l l l l l l l l l ",
"l l x x x x l f f f f f f f f p y u f f h k k k k k k k k k k h s f k k h h h k x x x x x x x l l l x x x x x x x x x x x x x l ",
"l x A A A A A A A A A A A A A M y f H H H H H H H H H H H H H A s k H H A A A A A A A A A A A B l x A A A A A A A A A A A A A B ",
"l x A A A A A V V V V V V V V v y f H H F F F F F F F F F F F V s k H H A V A A A A A A A V V m l x A A V V V V A V V V V V V m ",
"l x A A V V V M M M M M M M v x u h A A M M M M M M M M M M v x h x H F M M M V V V V V B M v l s k A V M M M M V B M M M M v x ",
"l x A V B V B M M M M M M M v x l x A V M M M M M M M M M M x l l v H F M M M B B B B M M M v l s h A V M M M M B V M M M M v x ",
"l x A V M M M M M M M M M M v x l x A V M M M B M M M M M M l k l v H F M M M M M M M M M M x h s h A V M M M M M M M M M M v x ",
"l x A V M M M M M M M M M M v x l x A V M M B V M M M M M n l k l v H F M M M M M M M M m n l g s h A V M M M M M M M M M M v x ",
"l x A V M M M M M M M M M M v x l x A V M M B B M M M M c x k k l v H F M M M M M M M M l l l k s h A V M M M M M M M M M M v x ",
"l x A V M M M M M M M M M M v x l x A V M M V B M M M M x x k k l v H F M M M M M M M M l l x l s h A V M M M M M M M M M M v x ",
"l x A V M M M M M M M M M M v x l x A V M M M M M M M M M n h h l x A A B M M M M M M M m x h f s h A V M M M M M M M M M M v x ",
"l x A V n M M M M M M M M M v x l x A V M M M M M M M M M M k h l x A A V M M M M M M M M M h f s h A V M M M M M M M M M M v x ",
"l x A B l v M m l l m M M M v x l x A V M M M M M M M M M M l h s k A A M M M M M M M M M M k f s h A V M M M M M M M M M M v x ",
"l x A B l l n l l l v M M M v x l x A V M M M M M M M M M M n l s h A V M M M M M M M M M M k f s h A V M M M M M M M M M M v x ",
"l x A B h h h h h h h l v v v x l x A V v l k l l x v v l k h h s h A V l l k k v v l k k k h f s h A V v v v v v v v v v v v x ",
"l k M n f f f f f s s f h h h h h h M n h f s h k k x x h f f s p f M n g f f f h x h f f f f f s h B n x l x l x x x x x x x l ",
"a a s a a a a p y y y y y y y y y y y y y y y u l l l h s s s p u u u u p p p p f f f f u u u u h h h f a a a f h l l l l l l l ",
"a f k k k k k h f f h h h h h h f f f f f f f f v v x l h h h f u p f f h h h h k l c c l k k l v v v c x x x x v m m m m m x k ",
"a k H H H H H H H H ! ! ! ! ! ! H H H H H F A A F H A A A A A M u f A A H H H H H H ! ! ! ! ! ! ! ! ! ! E E E E E E E E E E A M ",
"a k H H F F F F F H U U U U U U H F F F F F A A F F A A A V V n p f A A F F F F F H U U U U U U U U U U P P P P P P P P P P A n ",
"a h A A B V V V V V V V V V V B M M M B V B M M M M M V V M v l s h A V M M B B M M M M M M M M M M M M M B M M M M M M M M l h ",
"v B A A V V V V V V V V V B M M M M M M M M M M M M M M M M v x s h A V M M M V B M M M M M M M M M M M B V B M M M M M M M x x ",
"V A A A V V V V V V V V B M M M M M M M M M M M M M M M M M v l s h A V M M M M V B M M M M M M M M M M M M M M M M M M M M v n ",
"V V A A V V V V V V V V B M M M M M M M M M M M M M M M M M x k s h A V M M M M M V M M M M M M M M M M M M M M M M M M M M v n ",
"l n A A V V V B M M M M V M M M M M M M M M M M M M M M M M l k s k A V M M M M M M M M M M M M M M M M M M M M M M M M M M l l ",
"l x A A V V B M M M M M M M M M M M M M M M M M M M M M M M l k l x A V M M M M M M M M M M M M M M M M M M M M M M M M M M k h ",
"l x A A V V V V B B M M M M M M M M M M M M M M M M M M M M l k l x A A B M M M M M M M M M M M M M M M M M M M M M M M M M k h ",
"l x A A V B B B V V M M M M M M M M M M M M M M M M M M M M l k h l A V V B M M M M M M M M M n n n n M M M M M M M M M M M k h ",
"l x A V M M M M M M M M M M M m c c m M M M M M M M M M n h s a s h A V M M M M M M M M M m l l l l l l m M M M n n m M M M k h ",
"l x A V M M M M M M M M M M M c x x c m M M M M M M M x s s p p s h A V M M M M M M M M M x l l l l l l l m M v l l l m M M k h ",
"l x A V v v v x l l l l l l l k x x x v v x l l h f f p p p p p s h A V l l l l x v v v l h h h h h h h f f f f h h h h k k h h ",
"l l B n l x l k f f f f f f f f x x x x x x k k a p p p p p p p p f M v f f f f h h h h f s s f f f f g s a a s h h h h h h h h "
};
