/* XPM */
static char *ground[] = {
/* columns rows colors chars-per-pixel */
"64 64 256 2 ",
"   c black",
".  c #010101",
"X  c #020202",
"o  c gray1",
"O  c #040404",
"+  c gray2",
"@  c #060606",
"#  c #070707",
"$  c gray3",
"%  c #090909",
"&  c gray4",
"*  c #0B0B0B",
"=  c #0C0C0C",
"-  c gray5",
";  c #0E0E0E",
":  c gray6",
">  c #101010",
",  c #111111",
"<  c gray7",
"1  c #131313",
"2  c gray8",
"3  c #151515",
"4  c #161616",
"5  c gray9",
"6  c #181818",
"7  c #191919",
"8  c gray10",
"9  c #1B1B1B",
"0  c gray11",
"q  c #1D1D1D",
"w  c #1E1E1E",
"e  c gray12",
"r  c #202020",
"t  c gray13",
"y  c #222222",
"u  c #232323",
"i  c gray14",
"p  c #252525",
"a  c gray15",
"s  c #272727",
"d  c #282828",
"f  c gray16",
"g  c #2A2A2A",
"h  c gray17",
"j  c #2C2C2C",
"k  c #2D2D2D",
"l  c gray18",
"z  c #2F2F2F",
"x  c gray19",
"c  c #313131",
"v  c #323232",
"b  c gray20",
"n  c #343434",
"m  c #353535",
"M  c gray21",
"N  c #373737",
"B  c gray22",
"V  c #393939",
"C  c #3A3A3A",
"Z  c gray23",
"A  c #3C3C3C",
"S  c gray24",
"D  c #3E3E3E",
"F  c #3F3F3F",
"G  c gray25",
"H  c #414141",
"J  c gray26",
"K  c #434343",
"L  c #444444",
"P  c gray27",
"I  c #464646",
"U  c gray28",
"Y  c #484848",
"T  c #494949",
"R  c gray29",
"E  c #4B4B4B",
"W  c #4C4C4C",
"Q  c gray30",
"!  c #4E4E4E",
"~  c gray31",
"^  c #505050",
"/  c #515151",
"(  c gray32",
")  c #535353",
"_  c gray33",
"`  c #555555",
"'  c #565656",
"]  c gray34",
"[  c #585858",
"{  c gray35",
"}  c #5A5A5A",
"|  c #5B5B5B",
" . c gray36",
".. c #5D5D5D",
"X. c gray37",
"o. c #5F5F5F",
"O. c #606060",
"+. c gray38",
"@. c #626262",
"#. c gray39",
"$. c #646464",
"%. c #656565",
"&. c gray40",
"*. c #676767",
"=. c #686868",
"-. c DimGray",
";. c #6A6A6A",
":. c gray42",
">. c #6C6C6C",
",. c #6D6D6D",
"<. c gray43",
"1. c #6F6F6F",
"2. c gray44",
"3. c #717171",
"4. c #727272",
"5. c gray45",
"6. c #747474",
"7. c gray46",
"8. c #767676",
"9. c #777777",
"0. c gray47",
"q. c #797979",
"w. c gray48",
"e. c #7B7B7B",
"r. c #7C7C7C",
"t. c gray49",
"y. c #7E7E7E",
"u. c gray50",
"i. c #808080",
"p. c #818181",
"a. c gray51",
"s. c #838383",
"d. c #848484",
"f. c gray52",
"g. c #868686",
"h. c gray53",
"j. c #888888",
"k. c #898989",
"l. c gray54",
"z. c #8B8B8B",
"x. c gray55",
"c. c #8D8D8D",
"v. c #8E8E8E",
"b. c gray56",
"n. c #909090",
"m. c gray57",
"M. c #929292",
"N. c #939393",
"B. c gray58",
"V. c #959595",
"C. c gray59",
"Z. c #979797",
"A. c #989898",
"S. c gray60",
"D. c #9A9A9A",
"F. c #9B9B9B",
"G. c gray61",
"H. c #9D9D9D",
"J. c gray62",
"K. c #9F9F9F",
"L. c #A0A0A0",
"P. c gray63",
"I. c #A2A2A2",
"U. c gray64",
"Y. c #A4A4A4",
"T. c #A5A5A5",
"R. c gray65",
"E. c #A7A7A7",
"W. c gray66",
"Q. c #A9A9A9",
"!. c #AAAAAA",
"~. c gray67",
"^. c #ACACAC",
"/. c gray68",
"(. c #AEAEAE",
"). c #AFAFAF",
"_. c gray69",
"`. c #B1B1B1",
"'. c #B2B2B2",
"]. c gray70",
"[. c #B4B4B4",
"{. c gray71",
"}. c #B6B6B6",
"|. c #B7B7B7",
" X c gray72",
".X c #B9B9B9",
"XX c gray73",
"oX c #BBBBBB",
"OX c #BCBCBC",
"+X c gray74",
"@X c gray",
"#X c gray75",
"$X c #C0C0C0",
"%X c #C1C1C1",
"&X c gray76",
"*X c #C3C3C3",
"=X c gray77",
"-X c #C5C5C5",
";X c #C6C6C6",
":X c gray78",
">X c #C8C8C8",
",X c gray79",
"<X c #CACACA",
"1X c #CBCBCB",
"2X c gray80",
"3X c #CDCDCD",
"4X c #CECECE",
"5X c gray81",
"6X c #D0D0D0",
"7X c gray82",
"8X c #D2D2D2",
"9X c LightGray",
"0X c gray83",
"qX c #D5D5D5",
"wX c gray84",
"eX c #D7D7D7",
"rX c #D8D8D8",
"tX c gray85",
"yX c #DADADA",
"uX c gray86",
"iX c gainsboro",
"pX c #DDDDDD",
"aX c gray87",
"sX c #DFDFDF",
"dX c gray88",
"fX c #E1E1E1",
"gX c #E2E2E2",
"hX c gray89",
"jX c #E4E4E4",
"kX c gray90",
"lX c #E6E6E6",
"zX c #E7E7E7",
"xX c gray91",
"cX c #E9E9E9",
"vX c #EAEAEA",
"bX c gray92",
"nX c #ECECEC",
"mX c gray93",
"MX c #EEEEEE",
"NX c #EFEFEF",
"BX c gray94",
"VX c #F1F1F1",
"CX c gray95",
"ZX c #F3F3F3",
"AX c #F4F4F4",
"SX c gray96",
"DX c #F6F6F6",
"FX c gray97",
"GX c #F8F8F8",
"HX c #F9F9F9",
"JX c gray98",
"KX c #FBFBFB",
"LX c gray99",
"PX c #FDFDFD",
"IX c #FEFEFE",
"UX c white",
/* pixels */
"  O - 4 4 3 2 2 2 2 2 6 8 7 2 2 2 2 1 : & + O + + @ # % $ # @ @ : 2 3 8 8 8 8 8 8 8 8 7 3 2 , , , > = $ @ @ $ - < 2 3 5 4 - O   ",
"O , q d h f d s a s s h v n h f h h h h a r > 3 4 4 4 5 4 4 4 4 r h h h x b n n n n n n b z h s a a a a r 8 9 p d h h h g r , O ",
"% 9 j A A A A A A A A A D G A A A A S H B c q e u a a a a a a a u A J J J L R Q Q Q Q Q Q Q Y K F A A A A V c N S J J J D j 9 % ",
"< d S Q ( ( ( ( ( ( ( ( ( ( ( ( ( / E U P c h z c N N N N C Q K c S ) [ { { { X.$.*.*.*.*.*.*.&.o.] ( ( ( ( Y I Q { { { _ D d < ",
"2 h S ( ] ] ] [ ] ] ] ] ] ] ] ] / W E R B l c n N Z Z L { :.<.=.( n ( [  .o.o.o.O.*.,.<.<.<.<.<.<.>.+.[ ] ` Y E E _ X.o.{ J h 2 ",
"1 d A ( ] ] ] ] ] ] ] ] ] ] ] ! E E E Z l z n m Z Y O.<.<.<.-.+.o.U V ] [ [ | X.o.o.+.&.:.<.<.<.<.<.-.X.] A c G T E W ( ) J h 2 ",
", a A ( ] ] ] ] ] ] ] ] ] ] ~ E E T V l z b n K +.<.<.,.*.+.o.o.o.[ C K ] ] ] ] [ { [ [ | o.@.$.%.%.O.X.A l z l z C Y E U N a , ",
"> a A ( ] ] ] ] ] [ ] ] ] ~ E E K v l l v m ( ,.<.>.&.O.o.o.X.| [ ] Q l L ] ] ] ] ) Q E W ] ' Q Q ^ / F l x n v z l c A J v r : ",
"- y N ~ ] ] ] ] ] ] ] ` Q E T V l l z b N ..<.<.*.O.o.o.X.} ] ] ] ] Y l l G ' ] ' Q W Q ^ ] ` E E R B l c n n m n c l l h i 8 * ",
"@ 0 v I E Q / ' ] ] ) W E Y v l l c n B @.<.>.#.o.o.o. .] ] ] ] ] _ b l c l N ( ] ] ] ] ] ] ^ E T M l c n n B Z N n b c h q : o ",
". : t A T E E W ~ Q E E Y c l z b n B #.<.:.+.o.o.o.{ ] / ' ] ] ` n l c n v l c L ` ] [ _ ! E I b l v n m B D R U V l z z e : . ",
"o : q h N L R E E E E Y c l c n m V } <.:.+.o.o.o.) ) ] ! Q ] ] T l l n n n b z l c F ( Y G N z z b n M U ' %.*.$.o./ c h t 1 O ",
"O 1 r k l c D R E E Y v l v n N Z Y <.,.+.o.o.o.) W ' ] Q E Q W Z l c n N C m n c l l l l l l c n m J { <.<.<.<.<.:.#.W h r 3 O ",
"$ 6 i c b x l V E Y v l v m V Z Z o.<.&.o.o.o.] E / ] ) E E E R c l n m Z Z Z B n n v c c v n m C ( o.o.*.=.*.*.:.<.,.o.h e 3 % ",
"% 8 h n b n v z b x z v m C A D D ,.,.O.o.o.} E E Q ) Q E E E J l c n N Z Z Z Z Z B N M n N V L  .o.o.o.o.o.o.o.o.=.<.;.M w 1 $ ",
"% 9 D [ T S b b c c b m Z A F Z Q <.-.o.o.X.Q E E E E E E E R m l n m A Z A J J A Z Z Z S Y ' o.o.o.o.o.o.o.o.o.o.o.>.<.G q 1 @ ",
"% u E *.@.o.X.] E P F m V G A Z  .<.$.o.o.) E E E E E E E E A l c n C J ` O.,.<.<.<.*.$.=.@.o.o.o.o...[ [ { ..o.o.o.:.<.V q 1 + ",
"& j Q $.o.o.o.o.X.! E U n Z Z Z -.<.@.o. .W E E E E E E E J l z n m J [ o.o.-.:.<.<.<.<.<.,.$.o.o. .] ] ] ] ] [ X.o.:.<.v 0 1 + ",
": c Q o.o.o.o.o.o.` E E J c C Y <.>.o.o.` E E E E E E E E b l c n S } o.o.o...X.X.o.+.#.*.<.<.#...] ] ' ` ] ] ] [ X.,.<.k q 1 + ",
"2 b Q } o.o.o.o.X./ E E E n b L =.%.o.o.Q E E W E E ~ ` I l z n N [ o.#.#. .] ] ] [ [ } X.%.>.o.( E U K L ) ] ] ] { ,.*.h w 1 # ",
"5 n Y { o.o.o.} Q E E E E D x A o.o.o.| E E ) ] Q Q ' ] Z l v n R o.@.,.>.{ ] ] ] ] ] ] ] [ | [ ~ I K K K I ` ] ] ] } ~ h e 1 - ",
"8 n L { o.X.[ ` W E E E E G x M X.o.o._ W ) ] ' W _ ] Y l x n N ] o.=.<.*.X.[ [ ] ] ] ] ] ] ] ] ] ` Y K K K P E Q / ) K h e 3 2 ",
"8 c J {  .] ] ] ' ! E E E B x n ` o.o.' ] ] ' Q ( ] ( c l b m Z _ o.-.<.;.+.o. .[ ] ] ] ] ] ] ] ] ] ] Q K K K K K Y E N h r t 3 ",
"8 k J ` ` ` ] ] ] ) ^ ^ U z c n G o.X.] ] ) Q ^ ] ' N l c n V Z T o.+.:.<.,.-.&. .] ] ] ] ) Q ~ ` ] ] ] E T Y P P E T z h a h 7 ",
"6 h G ( ) ~ ] ` Q ~ ] ' N l c m N H [ ] ] _ ` ] ] S l z n N Z Z A [ o.O.=.<.<.,.O.} ] ] ' W E E Y U E ! E E E E E E S l k M k 8 ",
"3 h A ( / E ( / W ' ] W l l n B C c D Q ' ] ] _ A l z b N Z Z Z Z F  .o.o.+.#.@.o.o.[ ] ( E E E I K K L T E E E E Y x l M J c 8 ",
"2 d A ( ^ E E E ) ] _ M l c m Z Z B x l x M M x l x b N G D Z Z Z Z G ' o.o.o.o.o.o. .] Q E E E R P K K K Y E E E V l c R I n 7 ",
"2 a A ( ! E W ) ] ' J l l n N Z Z S M b c c M N b n m F H F Z Z Z Z Z N A E ] o.o.o.} ] ` ~ E E E E Y K L K T E P l l B [ E n 4 ",
"< a A W E W _ ] ' E c l c n V Z Z Y ] X.&.<.<.,._ A v m C Z Z Z Z Z Z Z C v l b U ~ ( ' ] ] / E E E E Y K L E R b l c Q X.Q v 2 ",
", a C I E _ ] ` Q V l z n M Z I #.<.<.<.<.<.,.-.{ ] C z b M Z Z Z Z Z Z Z Z N z l B Y E ^ ] ] ( ^ ~ W E U T E A l x N X.$.Q l 2 ",
", a V E ' ] ` Q J l l c n C ' ,.<.>.*.$.@.o.o.} ] ] U l x n B Z Z Z Z Z Z Z Z C c l x H E ^ ] ] ] ] ) E E E P z z n Y &.*.E h , ",
", a Z ( ] _ Q Y c l z n V o.<.,.&.o.o.o.o.o.{ ] ] ] F l c n B Z J U Y I H Z Z Z Z m l l A E Q ^ ( ) ~ E E U n z b N X.,.*.L s , ",
", a A ( ^ E R m l l b C $.<.>.@.o.o.o.o.X.[ ] ] ] ) x z n M S X.*.o.o.o.o.X._ Y C Z B x l Z E E E E E U V z x n N Y >.<.+.S a , ",
": r Z ~ E E A l l c A *.<.:.+.o.o.o.o.X.[ ] ] ] ] A l b m L =.<.;... ...X.o.o.o. .H N V c l M K U J B z x b m N D $.<.-._ A a , ",
": p m U E H l l x F =.<.-.O.o.o.o.o...] ] ] ] ] R l c n Q >.<.=.{ ] ] ] ] [ } ..o.o.J b N M z l l x c n n N C G $.<.:.} ( A a : ",
", a v I I x l z F -.<.-.O.o.o.o.o.| ] ] ] ] ] ) c x m ' <.<.*.o.[ ] ] ] ] ] ] ] } X.) A c n n b n n M B Z Z J &.<.;.} ] ( A a - ",
", u v L v l z D -.<.-.O.o.o.o.X.[ ] ] ] ] ] ] B l b ' <.>.$.o.o.| ] ] ] ] ] ] ] ] / E E H x n m B Z Z Z Z I -.<.-.[ ] ] ( A a : ",
"> r v c l z A -.<.-.o.o.o.o...[ ] ] ] [ ] ] L l c ! <.,.{ ^  .o.X.] ] ] ] ] ] _ Q E E E E Z x n V Z Z Z W >.<.-.| ] ] ] ( A a > ",
": r a h l V *.<.-.o.o.o.X.{ ] ) Q ) ] ] ] ~ z x J ,.<.$.o.^ W X.o.{ ] ] ] ] ] Q E E E E E L l b M Z Z G ,.<.*.o.[ ] ] ] ( V a , ",
"- 6 q h N +.<.-.O.o.o.| ' / W E E ~ ] ] ` m l m &.<.&.o.o. .E ' o..._ ` ] ] _ E E E E E E J l c n C Z G *.$.o.X.[ ] ] ] ^ b u : ",
"% : q v @.<.>.O.X.| _ ~ E E E E E Q ] ] S l c E <.:.o.o.o.o./ ! o.o.! E _ ] ' E E E E E E N l v m Z Z Z Q o.o.o.[ ] [ ] ( C r = ",
"X : t W -.>.o.} ] ( E E E E E E E Q ] ^ l l n %.<.$.o.o.o. .` E  .X.( E Q ` ] Q E E E E J l c n B Z Z Z Z ( o.o.X.[ ] ] ( Z r & ",
". < b ( [ { ] ] / E E E E E E E E E E V l c K <.:.o.o...{ ] ` E ) [ ` E E W Q E E E E Y c z n N G A Z Z Z Z Q o.o.X.] ) Y b w o ",
"O 2 n ( ] ] ] ' ^ Q E E E E E E E E I z l n T -.+.| [ ] ] ] ) / ] ] ] Q E E E E E E R M l v n S F A Z Z Z Z V K o.o.' E I c < X ",
"O 4 u Q ] ] ] ] ] ] ' / E E E E E E N l c N P ] ] ] ] ] ] ] ] ] ] ` ] / E E E E E E C l c n N Z Z Z Z Z Z Z Z N F ) W E L r > O ",
"@ 4 i c } | { ] ] ] ] ] _ W E E E J l z n Z G ) ] ] ] ] ] ] ] ` ! ^ ] ( E E E E E D l z n m C Z Z F J Y I Z Z Z n S U J l r 1 + ",
"@ 4 h [ <.$.o...] ] ] ] ] ' Q E Y c l v V Z M R ` ] ] ] ] ` ~ E E ~ ] ) E E E E H l l b n J ( O.:.<.<.<.<.@.Q B B x l l z u 3 @ ",
"@ r E *.,.@.o.o.W G I W / ) L S c l c N Z A F C W / _ _ ! E E E E Q ] ` E E E G z l Z / $.<.<.<.<.,.:.;.;.$.o.[ v x v n n a 4 @ ",
"- b Q #.O.o.o.X.W P l l l l l l l c m Z Z D H V A E E E E E E E E E ' ] W R A l m [ ,.<.<.>.=.$.+.o.X.....} X.o.' x x n b a 4 @ ",
"6 n Q *.;.+.o.' E E A l c x c c n n V Z Z A A Z c F E E E E E E E E ) ] E M l F -.<.,.=.#.o.o.o. .[ ] ] ] ] [ X.o.T l c c i 4 $ ",
"8 c Y &.<.=.X.Q E E G l v n m m N V Z Z Z Z Z Z V z A R E E E E E E R H c n } <.<.-.+.o.o.o.o.X.] ] ] ] ] ] ] [ o.o.P z x y 5 ; ",
"8 k J } -.$.) E E E S l c n B Z J R Q ~ ! T L B V m l n J U U L S M z l H -.<.,.&.o.o.o.X.o.X.[ ] [ ] [ } | ] ] X.o.[ m z t 8 2 ",
"8 h J { o.| E E E T A l c n J [ #.-.,.<.<.<.<...A v l l l l l l l l l b >.<.-.+.o.o.o.o.o.o.[ ] [ [  .o.o.o. .] [ | ] P k t 6 5 ",
"8 h J { X.! E E E U A l b ~ O.=.<.<.<.-.-.*.;.$.) E P N l l l l x v b n -.&.X.o.o.o.o.o.o.| ] ] ] ..o.o.o.o.} ] ] ] ] Y k r 4 8 ",
"7 h J { ) E E E R L Z l W O.:.<.,.&.{ ) E W } o.] W E E A l c n m N N c J o.o.o.o.o.X.o. .] ] ] [ o.o.o.o.X.] ] { | ] A k t 7 8 ",
"6 h J ) E E E E U K B l ' ;.<.:.@.X.[ ) E E ) o.[ ` W E R b z n N Z C n x J o.o. .[ X.o.[ ] [ | X.o.o.X.o.{ ]  .o.o.Q z x u 7 8 ",
"3 h H Y E E E Y K K n l  .<.>.O.| ] ] ' E E E W _ ] _ E E D l n N Z Z N n z E [ ] [ o.X.] ] X.o.o.o.o.o.o...o.o.X.! v c x a 4 ; ",
"< f b L T Y P K K J z x X.>.+.o.} ] ] ] ^ E E E W ' ] ~ E F l b N Z Z Z M b z P ] [ ..{ ] ] ..o.o.o.o.o.o.o.o.o.~ l z n c a 4 @ ",
"+ 9 k F K K K K J b z b V ] { o.o.X.[ ] ] ` Q E ~ ] ] Q Y b x n B Z Z Z Z M b z N R ' ] ] ] ] ..o.o.o.o.o.o.o.` n l v n m a 4 @ ",
"O , p m A Z A L E I B n b H ] } X.o.[ ] ] ] ^ E ] ] ! F c z b n Z Z Z Z Z Z M n x l v H Q ] ] ]  .o.o.o.o.X.T x l v n N N a 4 @ ",
"& 7 d V G R ( _ ] _ ^ A c j D ^ ( ( ( ( ~ R I I E S j h h z c b N N N N G Y ! J M z j h h l N F K Y T F M l h j z c n N n s 7 & ",
"@ 5 d V D J T Q Q Q Y S z r q e h M n c z k h s r q q q r t i a a a l D J J L J J A z p r r e e w w w w e r t t u a h c n s 5 @ ",
". : w j v n n b c b n v d w , : : : : : : : : : : : , 1 2 3 5 6 6 e h k c b n c k h h f y 9 3 1 1 1 1 1 1 2 3 3 5 r j l s 7 =   ",
"  O - 5 8 8 4 2 2 2 6 8 7 1 > & O X X X X o o o O O + # $ $ $ # $ 2 4 8 8 8 8 8 8 7 4 3 1 , , ; & @ @ @ @ @ @ $ ; 2 5 8 5 * o   "
};
